<svg fill="currentColor" height="512pt" viewBox="-54 0 511 512" width="512pt" xmlns="http://www.w3.org/2000/svg"><path d="m156.71875 418.816406v-11.351562c0-6.914063-5.625-12.535156-12.535156-12.535156h-128.640625v-242.550782h60.664062c.339844 0 .671875-.03125.996094-.074218l64.472656 37.761718v50.988282h-70.660156c-7.3125 0-13.265625 5.953124-13.265625 13.269531v38.445312c0 7.316407 5.953125 13.269531 13.265625 13.269531h70.660156v9.925782h-70.660156c-7.3125 0-13.265625 5.953125-13.265625 13.269531v38.445313c0 7.316406 5.953125 13.269531 13.265625 13.269531h16.84375c4.152344 0 7.519531-3.367188 7.519531-7.519531 0-4.15625-3.367187-7.523438-7.519531-7.523438h-15.066406v-34.894531h152.808593v34.894531h-91.109374c-4.15625 0-7.523438 3.367188-7.523438 7.523438 0 4.152343 3.371094 7.519531 7.523438 7.519531h92.882812c7.316406 0 13.269531-5.953125 13.269531-13.269531v-38.445313c0-7.316406-5.953125-13.269531-13.269531-13.269531h-70.65625v-9.925782h70.65625c7.316406 0 13.269531-5.953124 13.269531-13.269531v-38.445312c0-7.316407-5.953125-13.269531-13.269531-13.269531h-70.65625v-52.113282l61.230469-35.863281c2.90625-1.703125 4.710937-4.855469 4.710937-8.222656 0-3.367188-1.804687-6.515625-4.710937-8.21875l-61.230469-35.863281v-27.144532h16.578125c4.15625 0 7.523437-3.367187 7.523437-7.523437 0-4.152344-3.367187-7.519531-7.523437-7.519531h-115.03125v-43.542969h181.863281v43.539062h-19.78125c-4.15625 0-7.523437 3.367188-7.523437 7.523438 0 4.152343 3.367187 7.519531 7.523437 7.519531h20.160156c8.085938 0 14.664063-6.574219 14.664063-14.660156v-44.300782c0-8.085937-6.578125-14.664062-14.664063-14.664062h-182.621093c-8.085938 0-14.664063 6.578125-14.664063 14.664062v44.300782c0 8.085937 6.578125 14.664062 14.664063 14.664062h83.789062v26.015625l-64.472656 37.761719c-.324219-.042969-.65625-.070312-.996094-.070312h-63.171875c-6.910156 0-12.535156 5.621093-12.535156 12.535156v247.566406c0 6.910156 5.625 12.535156 12.535156 12.535156h128.640625v8.84375c-22.292969 3.609375-39.375 22.988282-39.375 46.285156 0 25.859376 21.039063 46.898438 46.898438 46.898438s46.894531-21.039062 46.894531-46.898438c0-23.296874-17.078125-42.675781-39.375-46.285156zm68.882812-162.71875v34.898438h-152.808593v-34.898438zm-77.367187-142.859375 53.984375 31.617188-53.984375 31.617187-53.980469-31.617187zm.964844 383.71875c-17.566407 0-31.855469-14.289062-31.855469-31.855469 0-17.5625 14.289062-31.851562 31.855469-31.851562 17.5625 0 31.851562 14.289062 31.851562 31.851562 0 17.566407-14.289062 31.855469-31.851562 31.855469zm0 0"/><path d="m244.414062 177.511719h-19.054687c-6.914063 0-12.535156 5.625-12.535156 12.535156v18.054687c0 6.910157 5.621093 12.535157 12.535156 12.535157h19.054687c6.914063 0 12.535157-5.625 12.535157-12.535157v-18.054687c0-6.910156-5.621094-12.535156-12.535157-12.535156zm-2.507812 28.082031h-14.039062v-13.039062h14.039062zm0 0"/><path d="m275.503906 228.660156h34.765625c4.15625 0 7.523438-3.367187 7.523438-7.523437 0-4.152344-3.371094-7.519531-7.523438-7.519531h-34.765625c-4.15625 0-7.519531 3.367187-7.519531 7.519531 0 4.15625 3.363281 7.523437 7.519531 7.523437zm0 0"/><path d="m395.851562 213.617188h-66.628906c-4.15625 0-7.523437 3.367187-7.523437 7.519531 0 4.15625 3.367187 7.523437 7.523437 7.523437h66.628906c4.152344 0 7.519532-3.367187 7.519532-7.523437 0-4.152344-3.367188-7.519531-7.519532-7.519531zm0 0"/><path d="m275.503906 203.882812h14.808594c4.15625 0 7.523438-3.367187 7.523438-7.519531 0-4.15625-3.367188-7.523437-7.523438-7.523437h-14.808594c-4.15625 0-7.519531 3.367187-7.519531 7.523437 0 4.152344 3.363281 7.519531 7.519531 7.519531zm0 0"/><path d="m371.464844 203.882812h23.699218c4.152344 0 7.519532-3.367187 7.519532-7.519531 0-4.15625-3.367188-7.523437-7.519532-7.523437h-23.699218c-4.15625 0-7.523438 3.367187-7.523438 7.523437 0 4.152344 3.367188 7.519531 7.523438 7.519531zm0 0"/><path d="m308.421875 203.882812h44.296875c4.15625 0 7.523438-3.367187 7.523438-7.519531 0-4.15625-3.367188-7.523437-7.523438-7.523437h-44.296875c-4.15625 0-7.523437 3.367187-7.523437 7.523437 0 4.152344 3.371093 7.519531 7.523437 7.519531zm0 0"/><path d="m244.414062 426.851562h-19.054687c-6.914063 0-12.535156 5.625-12.535156 12.535157v18.054687c0 6.910156 5.621093 12.535156 12.535156 12.535156h19.054687c6.914063 0 12.535157-5.625 12.535157-12.535156v-18.054687c0-6.910157-5.621094-12.535157-12.535157-12.535157zm-2.507812 28.082032h-14.039062v-13.039063h14.039062zm0 0"/><path d="m310.269531 462.957031h-34.765625c-4.15625 0-7.519531 3.367188-7.519531 7.519531 0 4.15625 3.363281 7.523438 7.519531 7.523438h34.765625c4.15625 0 7.523438-3.367188 7.523438-7.523438 0-4.152343-3.367188-7.519531-7.523438-7.519531zm0 0"/><path d="m395.851562 462.957031h-66.628906c-4.15625 0-7.523437 3.367188-7.523437 7.519531 0 4.15625 3.367187 7.523438 7.523437 7.523438h66.628906c4.152344 0 7.519532-3.367188 7.519532-7.523438 0-4.152343-3.367188-7.519531-7.519532-7.519531zm0 0"/><path d="m275.503906 453.222656h14.808594c4.15625 0 7.523438-3.367187 7.523438-7.519531 0-4.15625-3.367188-7.523437-7.523438-7.523437h-14.808594c-4.15625 0-7.519531 3.367187-7.519531 7.523437 0 4.152344 3.363281 7.519531 7.519531 7.519531zm0 0"/><path d="m395.164062 438.179688h-23.699218c-4.15625 0-7.523438 3.367187-7.523438 7.523437 0 4.152344 3.367188 7.519531 7.523438 7.519531h23.699218c4.152344 0 7.519532-3.367187 7.519532-7.519531 0-4.15625-3.367188-7.523437-7.519532-7.523437zm0 0"/><path d="m308.421875 438.179688c-4.15625 0-7.523437 3.367187-7.523437 7.523437 0 4.152344 3.367187 7.519531 7.523437 7.519531h44.296875c4.15625 0 7.523438-3.367187 7.523438-7.519531 0-4.15625-3.367188-7.523437-7.523438-7.523437zm0 0"/></svg>