<?xml version='1.0' encoding='iso-8859-1'?>
<svg  version="1.1" xmlns="http://www.w3.org/2000/svg" viewBox="0 0 469.981 469.981" xmlns:xlink="http://www.w3.org/1999/xlink" enable-background="new 0 0 469.981 469.981" >
  <g>
    <circle cx="425.789" cy="141.268" r="7.5"/>
    <circle cx="425.789" cy="98.841" r="7.5"/>
    <path d="m446.337,193.837c15.297-17.693 23.644-40.035 23.644-63.66 0-26.044-10.142-50.528-28.558-68.943-18.415-18.415-42.899-28.557-68.942-28.557-23.621,0-45.959,8.343-63.649,23.634l-2.008-1.978c-2.951-2.907-7.7-2.872-10.606,0.079-2.907,2.95-2.872,7.699 0.079,10.606l1.961,1.932c-15.061,17.623-23.276,39.792-23.276,63.226 0,3.017 0.142,6.011 0.411,8.979l-208.129,232.616c-2.654,2.967-2.529,7.489 0.286,10.305l21.213,21.213-4.265,4.265c-15.878,15.88-41.716,15.879-57.596,0.001-15.879-15.88-15.879-41.718 0-57.597l140.865-140.865c21.728-21.729 21.728-57.082 0-78.811-21.728-21.727-57.082-21.727-78.809,0l-86.781,86.781 10.606,10.607 86.781-86.781c15.88-15.878 41.718-15.879 57.596,0 15.879,15.879 15.879,41.717 0,57.596l-140.864,140.866c-21.728,21.728-21.728,57.081 7.10543e-15,78.81 10.864,10.863 25.134,16.295 39.404,16.295s28.541-5.432 39.405-16.296l4.264-4.265 21.214,21.213c1.46,1.46 3.38,2.196 5.304,2.196 1.785,0 3.573-0.634 5-1.911l199.493-178.493c0.029-0.026 33.12-29.634 33.12-29.634 2.969,0.269 5.964,0.411 8.981,0.411 23.429,0 45.594-8.212 63.216-23.268l1.969,1.979c1.466,1.473 3.39,2.209 5.315,2.209 1.914,0 3.828-0.728 5.291-2.185 2.936-2.922 2.947-7.671 0.024-10.606l-1.959-1.969zm-320.164,225.647l-21.493-21.492c-0.014-0.014-21.506-21.506-21.506-21.506l165.965-185.49c6.617,13.443 15.364,25.656 26.115,36.409 10.753,10.751 22.965,19.498 36.409,26.115l-185.49,165.964zm197.667-176.86c-14.177-6.118-26.939-14.786-37.98-25.826-11.041-11.042-19.709-23.804-25.827-37.98l18.878-21.099c4.534,15.484 12.9,29.674 24.627,41.402 11.727,11.727 25.916,20.092 41.4,24.626l-21.098,18.877zm48.641-29.947c-22.037-0.001-42.754-8.582-58.336-24.164s-24.164-36.3-24.164-58.336c0-19.461 6.702-37.887 18.999-52.662l15.811,15.578c1.461,1.439 3.362,2.157 5.263,2.157 1.938,0 3.875-0.747 5.343-2.236 2.907-2.95 2.872-7.699-0.079-10.606l-15.748-15.517c14.817-12.432 33.339-19.214 52.911-19.214 22.036,0 42.754,8.581 58.336,24.164 15.583,15.581 24.164,36.299 24.164,58.336 0,19.603-6.806,38.152-19.275,52.981l-79.123-79.485c-2.923-2.938-7.671-2.948-10.606-0.024-2.936,2.922-2.947,7.671-0.024,10.606l79.121,79.483c-14.764,12.259-33.163,18.939-52.593,18.939z"/>
  </g>
</svg>
