<?xml version="1.0" encoding="iso-8859-1"?>
<!-- Generator: Adobe Illustrator 19.0.0, SVG Export Plug-In . SVG Version: 6.00 Build 0)  -->
<svg fill="currentColor" version="1.1" id="Layer_1" xmlns="http://www.w3.org/2000/svg" xmlns:xlink="http://www.w3.org/1999/xlink" x="0px" y="0px"
	 viewBox="0 0 512 512" style="enable-background:new 0 0 512 512;" xml:space="preserve">
<g>
	<g>
		<path d="M501.801,47.923H10.199C4.566,47.923,0,52.489,0,58.122v322.581c0,5.633,4.566,10.199,10.199,10.199h179.845v52.775
			h-36.179c-5.633,0-10.199,4.566-10.199,10.199c0,5.633,4.566,10.199,10.199,10.199h204.27v0.001
			c5.633,0,10.199-4.566,10.199-10.199c0-5.633-4.566-10.199-10.199-10.199h-36.179v-52.775h179.845
			c5.633,0,10.199-4.566,10.199-10.199V58.122C512,52.489,507.434,47.923,501.801,47.923z M301.558,443.679h-91.116v-52.775h91.116
			V443.679z M491.602,370.504H20.398V68.321h471.203V370.504z"/>
	</g>
</g>
<g>
	<g>
		<path d="M238.659,92.178H55.75c-5.633,0-10.199,4.566-10.199,10.199v131.818c0,5.633,4.566,10.199,10.199,10.199h182.909
			c5.633,0,10.199-4.566,10.199-10.199V102.378C248.859,96.745,244.292,92.178,238.659,92.178z M80.847,223.996l32.413-32.413
			l32.413,32.413H80.847z M228.46,223.997h-54.065v-0.001c-0.261-0.337-0.537-0.664-0.846-0.973l-17.522-17.522l39.683-39.683
			l32.751,32.751V223.997z M228.46,169.72l-25.54-25.539c-3.983-3.983-10.441-3.982-14.424,0l-46.895,46.895l-21.13-21.13
			c-3.983-3.983-10.441-3.983-14.425,0l-40.099,40.099v-97.469H228.46V169.72z"/>
	</g>
</g>
<g>
	<g>
		<path d="M465.262,110.547l-18.462-18.463c-9.398-9.397-24.687-9.396-34.084,0L280.37,224.431
			c-1.231,1.231-2.079,2.699-2.549,4.257l-0.001,0.001l-0.002,0.008c-0.008,0.026-0.015,0.051-0.023,0.076L263.47,276.11H55.75
			c-5.633,0-10.199,4.566-10.199,10.199c0,5.633,4.566,10.199,10.199,10.199h215.28c0.003,0,0.007,0,0.01,0c0.002,0,0.004,0,0.007,0
			h0.312c1.496,0,2.913-0.33,4.193-0.909l53.106-16.072l0.001-0.001c1.593-0.482,3.059-1.351,4.256-2.549l132.347-132.347
			c4.552-4.552,7.059-10.605,7.059-17.042C472.321,121.15,469.814,115.098,465.262,110.547z M286.319,271.028l6.092-20.131
			l14.039,14.039L286.319,271.028z M325.703,255.341l-23.698-23.698l103.538-103.538l23.698,23.698L325.703,255.341z
			 M450.839,130.207l-7.174,7.173l-23.698-23.699l7.174-7.173c1.443-1.444,3.793-1.444,5.236,0l18.462,18.463
			c0.943,0.943,1.084,2.045,1.084,2.618C451.924,128.162,451.783,129.264,450.839,130.207z"/>
	</g>
</g>
<g>
	<g>
		<path d="M412.048,325.158H55.75c-5.633,0-10.199,4.566-10.199,10.199c0,5.633,4.566,10.199,10.199,10.199h356.298
			c5.633,0,10.199-4.566,10.199-10.199C422.247,329.724,417.681,325.158,412.048,325.158z"/>
	</g>
</g>
<g>
	<g>
		<path d="M457.333,325.158h-5.509c-5.633,0-10.199,4.566-10.199,10.199c0,5.633,4.566,10.199,10.199,10.199h5.509
			c5.633,0,10.199-4.566,10.199-10.199C467.533,329.724,462.966,325.158,457.333,325.158z"/>
	</g>
</g>
<g>
</g>
<g>
</g>
<g>
</g>
<g>
</g>
<g>
</g>
<g>
</g>
<g>
</g>
<g>
</g>
<g>
</g>
<g>
</g>
<g>
</g>
<g>
</g>
<g>
</g>
<g>
</g>
<g>
</g>
</svg>
