<svg height="511pt" viewBox="0 -38 511.99944 511" width="511pt" xmlns="http://www.w3.org/2000/svg"><path d="m249.613281 15.5h190.46875c7.796875 0 14.140625 6.34375 14.140625 14.140625v155.355469c0 4.140625 3.359375 7.5 7.5 7.5 4.144532 0 7.5-3.359375 7.5-7.5v-155.355469c0-16.066406-13.070312-29.140625-29.140625-29.140625h-190.46875c-4.144531 0-7.5 3.355469-7.5 7.5s3.355469 7.5 7.5 7.5zm0 0"/><path d="m236.820312 185.925781 58.746094 33.914063c1.160156.667968 2.457032 1.003906 3.75 1.003906h.003906c1.292969 0 2.589844-.335938 3.75-1.003906l58.75-33.914063c2.320313-1.339843 3.75-3.816406 3.75-6.496093l-.003906-67.835938c0-2.679688-1.429687-5.152344-3.75-6.492188-.015625-.011718-.035156-.019531-.050781-.03125l-58.695313-33.890624c-2.320312-1.339844-5.179687-1.339844-7.5 0l-58.695312 33.890624c-.019531.011719-.035156.019532-.054688.03125-2.320312 1.339844-3.75 3.8125-3.75 6.492188v67.835938c0 2.679687 1.429688 5.15625 3.75 6.496093zm11.25-10.824219v-50.515624l2.523438 1.457031 41.226562 23.800781-.003906 50.511719zm58.75 25.253907v-50.511719l41.222657-23.800781 2.523437-1.457031.003906 50.515624zm-7.5-114.019531 43.746094 25.257812-6.445312 3.722656-37.300782 21.535156-37.304687-21.535156-6.441406-3.722656zm0 0"/><path d="m180.105469 147.785156c.144531.007813.285156.011719.429687.011719 3.949219 0 7.257813-3.085937 7.480469-7.078125l1.046875-18.726562c.164062-2.980469-1.449219-5.773438-4.105469-7.113282l-16.742187-8.457031c-3.699219-1.871094-8.210938-.386719-10.078125 3.3125-1.867188 3.695313-.382813 8.207031 3.3125 10.074219l4.363281 2.203125-45.019531 25.992187v-51.984375l4.085937 2.675781c1.269532.828126 2.691406 1.226563 4.101563 1.226563 2.445312 0 4.84375-1.195313 6.28125-3.394531 2.269531-3.464844 1.296875-8.113282-2.167969-10.382813l-15.695312-10.269531c-2.492188-1.632812-5.71875-1.632812-8.210938 0l-15.695312 10.269531c-3.464844 2.269531-4.4375 6.917969-2.167969 10.382813s6.914062 4.4375 10.382812 2.167968l4.085938-2.675781c0 71.492188.21875 66.777344.195312 66.675781.039063.171876.078125.316407.121094.460938 1.488281 5.097656 2.050781 2.6875 59.703125 36.820312l-4.359375 2.203126c-3.695313 1.867187-5.179687 6.378906-3.3125 10.074218 1.320313 2.613282 3.960937 4.121094 6.699219 4.121094 1.136718 0 2.292968-.257812 3.375-.808594l16.742187-8.453125c2.660157-1.34375 4.273438-4.136719 4.105469-7.113281l-1.046875-18.730469c-.230469-4.132812-3.761719-7.292969-7.90625-7.066406-4.136719.230469-7.300781 3.769531-7.066406 7.90625l.269531 4.875-45.019531-25.988281 45.019531-25.996094-.269531 4.878906c-.238281 4.136719 2.929687 7.675782 7.0625 7.90625zm0 0"/><path d="m510.398438 316.574219-30.273438-52.433594 21.050781-12.15625c3.675781-2.121094 5.960938-6.078125 5.960938-10.324219 0-4.25-2.285157-8.207031-5.960938-10.328125l-93.222656-53.8125c-4.703125-2.714843-10.320313-2.714843-15.023437 0-4.707032 2.714844-7.511719 7.582031-7.515626 13.011719l-.003906 84.996094h-370.410156v-245.886719c0-7.796875 6.34375-14.140625 14.140625-14.140625h190.472656c4.140625 0 7.5-3.355469 7.5-7.5s-3.359375-7.5-7.5-7.5h-190.472656c-16.070313 0-29.140625 13.074219-29.140625 29.140625v289.753906c0 16.066407 13.070312 29.140625 29.140625 29.140625h163.496094l-7.734375 35.800782c-3.308594.847656-6.578125 1.78125-9.804688 2.804687-3.949218 1.25-6.136718 5.464844-4.886718 9.414063 1.253906 3.949218 5.46875 6.140624 9.417968 4.882812 4.179688-1.324219 8.441406-2.488281 12.773438-3.492188.339844-.054687.671875-.128906.996094-.226562 13.136718-2.964844 26.945312-4.460938 41.210937-4.460938 36.660156 0 70.964844 10.21875 93.949219 27.671876h-187.886719c3.980469-3.015626 8.339844-5.84375 13.035156-8.449219 3.621094-2.015625 4.921875-6.582031 2.910157-10.199219-2.011719-3.621094-6.578126-4.925781-10.199219-2.914062-8.785157 4.882812-16.589844 10.488281-23.195313 16.65625-3.476562 3.242187-4.59375 8.199218-2.847656 12.621093 1.742188 4.425781 5.945312 7.285157 10.703125 7.285157h207.066406c4.757813 0 8.957031-2.859376 10.703125-7.285157 1.742188-4.425781.625-9.378906-2.851562-12.621093-15.488282-14.460938-37.074219-25.355469-61.664063-31.640626l-7.75-35.847656h163.503907c4.476562 0 8.800781-1.007812 12.714843-2.910156l1.820313 3.148438c2.207031 3.820312 6.222656 5.960937 10.347656 5.960937 2.019531 0 4.066406-.515625 5.941406-1.597656l35.121094-20.277344c2.757812-1.589844 4.730469-4.164063 5.558594-7.238281.820312-3.078125.398437-6.289063-1.191406-9.046875zm-242.140626 64.433593c-10.875-1.808593-22.167968-2.75-33.644531-2.75-11.503906 0-22.75.90625-33.636719 2.707032l7.003907-32.429688h53.253906zm171.828126-47.472656h-410.738282c-.070312 0-.140625-.003906-.207031-.003906-7.796875 0-14.140625-6.339844-14.140625-14.136719v-28.871093h370.410156v7.644531c0 4.246093 2.285156 8.203125 5.964844 10.328125 3.675781 2.121094 8.246094 2.121094 11.921875 0l21.050781-12.152344 20.910156 36.21875c-1.625.636719-3.375.972656-5.171874.972656zm25.988281 5.078125-4.222657-7.3125c-.074218-.144531-.15625-.285156-.242187-.421875l-25.808594-44.699218c-1.59375-2.757813-4.164062-4.730469-7.238281-5.558594-1.027344-.273438-2.070312-.410156-3.109375-.410156-2.0625 0-4.101563.542968-5.941406 1.601562l-19.097657 11.027344.042969-102.328125 88.605469 51.148437-19.101562 11.027344c-5.695313 3.285156-7.652344 10.59375-4.367188 16.289062l30.273438 52.433594zm0 0"/></svg>