<svg fill="currentColor" height="511pt" viewBox="-56 1 511 511.999" width="511pt" xmlns="http://www.w3.org/2000/svg"><path d="m359.558594 103.238281c-4.167969-31.273437-30.980469-55.140625-62.980469-55.140625-5.042969 0-10.078125.613282-15.03125 1.832032-22.519531-31.367188-58.449219-49.929688-97.195313-49.929688-23.113281 0-45.542968 6.621094-64.859374 19.144531-17.566407 11.386719-31.808594 27.113281-41.402344 45.65625-43.851563 5.03125-77.589844 42.425781-77.589844 86.988281 0 34.871094 20.652344 66.421876 52.617188 80.375 3.796874 1.65625 8.21875-.074218 9.875-3.871093s-.078126-8.21875-3.871094-9.875c-26.5-11.570313-43.621094-37.722657-43.621094-66.628907 0-38.144531 29.835938-69.953124 67.929688-72.410156 2.722656-.179687 5.132812-1.816406 6.296874-4.28125 8.371094-17.714844 21.488282-32.710937 37.925782-43.367187 16.882812-10.945313 36.488281-16.730469 56.699218-16.730469 35.523438 0 68.34375 17.847656 87.792969 47.746094 1.871094 2.878906 5.460938 4.117187 8.714844 3.003906 5.148437-1.761719 10.4375-2.652344 15.71875-2.652344 25.644531 0 46.929687 20.066406 48.457031 45.683594.171875 2.898438 2 5.433594 4.691406 6.515625 21.59375 8.675781 35.546876 29.292969 35.546876 52.527344 0 25.855469-17.464844 48.410156-42.46875 54.84375-4.007813 1.03125-6.425782 5.121093-5.390626 9.132812.871094 3.386719 3.914063 5.632813 7.257813 5.632813.617187 0 1.246094-.078125 1.875-.238282 31.632813-8.140624 53.726563-36.667968 53.726563-69.371093 0-27.839844-15.832032-52.710938-40.714844-64.585938zm0 0"/><path d="m136.257812 456.917969h-8.015624c-4.144532 0-7.5 3.359375-7.5 7.5 0 4.144531 3.355468 7.5 7.5 7.5h8.015624c4.140626 0 7.5-3.355469 7.5-7.5 0-4.140625-3.359374-7.5-7.5-7.5zm0 0"/><path d="m160.820312 464.417969c0 4.144531 3.359376 7.5 7.5 7.5h104.210938c4.140625 0 7.5-3.355469 7.5-7.5 0-4.140625-3.359375-7.5-7.5-7.5h-104.210938c-4.140624 0-7.5 3.359375-7.5 7.5zm0 0"/><path d="m128.242188 344.691406c-4.144532 0-7.5 3.359375-7.5 7.5 0 4.144532 3.355468 7.5 7.5 7.5h8.015624c4.140626 0 7.5-3.355468 7.5-7.5 0-4.140625-3.359374-7.5-7.5-7.5zm0 0"/><path d="m272.53125 359.691406c4.140625 0 7.5-3.355468 7.5-7.5 0-4.140625-3.359375-7.5-7.5-7.5h-104.210938c-4.140624 0-7.5 3.359375-7.5 7.5 0 4.144532 3.359376 7.5 7.5 7.5zm0 0"/><path d="m296.578125 192.386719h-192.386719c-12.976562 0-23.53125 10.558593-23.53125 23.53125v48.097656c0 12.976563 10.558594 23.53125 23.53125 23.53125h88.695313v17.066406h-8.535157c-4.140624 0-7.5 3.355469-7.5 7.5 0 4.140625 3.359376 7.5 7.5 7.5h112.226563c4.707031 0 8.535156 3.828125 8.535156 8.53125v48.097657c0 4.703124-3.828125 8.53125-8.535156 8.53125h-192.386719c-4.703125 0-8.53125-3.828126-8.53125-8.53125v-48.097657c0-4.703125 3.828125-8.53125 8.53125-8.53125h48.097656c4.144532 0 7.5-3.359375 7.5-7.5 0-4.144531-3.355468-7.5-7.5-7.5h-48.097656c-12.976562 0-23.53125 10.554688-23.53125 23.53125v48.097657c0 12.976562 10.558594 23.53125 23.53125 23.53125h88.695313v17.066406h-88.695313c-12.976562 0-23.53125 10.554687-23.53125 23.53125v48.097656c0 12.972656 10.558594 23.53125 23.53125 23.53125h192.386719c12.976563 0 23.535156-10.558594 23.535156-23.53125v-48.097656c0-12.976563-10.558593-23.53125-23.535156-23.53125h-88.691406v-17.066406h88.691406c12.976563 0 23.53125-10.554688 23.53125-23.53125v-48.097657c0-12.976562-10.554687-23.53125-23.53125-23.53125h-88.691406v-17.066406h88.691406c12.976563 0 23.53125-10.554687 23.53125-23.53125v-48.097656c.003906-12.972657-10.554687-23.53125-23.53125-23.53125zm8.535156 247.984375v48.097656c0 4.703125-3.828125 8.53125-8.535156 8.53125h-192.386719c-4.703125 0-8.53125-3.828125-8.53125-8.53125v-48.097656c0-4.707032 3.828125-8.53125 8.53125-8.53125h192.386719c4.707031 0 8.535156 3.824218 8.535156 8.53125zm0-176.355469c0 4.707031-3.828125 8.53125-8.535156 8.53125h-192.386719c-4.703125 0-8.53125-3.828125-8.53125-8.53125v-48.097656c0-4.703125 3.828125-8.53125 8.53125-8.53125h192.386719c4.707031 0 8.535156 3.828125 8.535156 8.53125zm0 0"/><path d="m136.257812 232.46875h-8.015624c-4.144532 0-7.5 3.355469-7.5 7.5 0 4.140625 3.355468 7.5 7.5 7.5h8.015624c4.140626 0 7.5-3.359375 7.5-7.5 0-4.144531-3.359374-7.5-7.5-7.5zm0 0"/><path d="m272.53125 232.46875h-104.210938c-4.140624 0-7.5 3.355469-7.5 7.5 0 4.140625 3.359376 7.5 7.5 7.5h104.210938c4.140625 0 7.5-3.359375 7.5-7.5 0-4.144531-3.359375-7.5-7.5-7.5zm0 0"/><path d="m192.84375 159.765625c0 4.144531 3.398438 7.542969 7.542969 7.542969 4.140625 0 7.539062-3.398438 7.539062-7.542969 0-4.140625-3.398437-7.539063-7.539062-7.539063-4.144531 0-7.542969 3.398438-7.542969 7.539063zm0 0"/><path d="m223.058594 144.554688c1.917968 0 3.839844-.734376 5.304687-2.199219 2.925781-2.929688 2.925781-7.675781 0-10.605469-15.429687-15.425781-40.527343-15.425781-55.953125 0-2.929687 2.929688-2.929687 7.679688 0 10.605469 2.929688 2.929687 7.675782 2.929687 10.605469 0 9.578125-9.578125 25.160156-9.578125 34.738281 0 1.464844 1.464843 3.382813 2.199219 5.304688 2.199219zm0 0"/><path d="m245.730469 121.878906c1.921875 0 3.839843-.730468 5.304687-2.195312 2.929688-2.929688 2.929688-7.675782 0-10.605469-27.929687-27.929687-73.371094-27.929687-101.300781 0-2.929687 2.929687-2.929687 7.675781 0 10.605469 2.929687 2.929687 7.679687 2.929687 10.605469 0 22.082031-22.078125 58.007812-22.078125 80.085937 0 1.464844 1.464844 3.386719 2.195312 5.304688 2.195312zm0 0"/></svg>