<?xml version="1.0" encoding="iso-8859-1"?>
<!-- Generator: Adobe Illustrator 21.0.0, SVG Export Plug-In . SVG Version: 6.00 Build 0)  -->
<svg fill="currentColor" xmlns="http://www.w3.org/2000/svg" xmlns:xlink="http://www.w3.org/1999/xlink" version="1.1" id="Capa_1" x="0px" y="0px" viewBox="0 0 512 512" style="enable-background:new 0 0 512 512;" xml:space="preserve" width="512" height="512">
<g>
	<path style="fill-rule:evenodd;clip-rule:evenodd;" d="M502,56.001h-51.597v-6.083c0-19.288-15.692-34.979-34.979-34.979   s-34.979,15.692-34.979,34.979v6.083h-41.027v-6.083c0-19.288-15.692-34.979-34.98-34.979c-19.287,0-34.978,15.692-34.978,34.979   v6.083h-41.027v-6.083c0-19.288-15.692-34.979-34.98-34.979c-19.288,0-34.979,15.692-34.979,34.979v6.083h-51.596   c-5.523,0-10,4.477-10,10v78.567v102.64C41.357,260.658,0,310.765,0,370.357c0,53.341,33.721,101.278,83.911,119.286   c1.116,0.4,2.255,0.589,3.376,0.589c4.102,0,7.948-2.543,9.413-6.626c1.865-5.198-0.837-10.924-6.036-12.789   C48.398,455.653,20,415.281,20,370.357c0-52.815,38.573-96.783,89.026-105.232c16.161-2.707,34.965-0.861,51.18,4.014   c10.542,3.17,20.333,8.306,29.148,14.876c8.811,6.567,16.796,14.384,23.486,23.105c6.69,8.722,11.853,18.48,14.97,29.036   c3.39,11.48,4.417,23.459,5.16,35.355c0.645,10.317-1.638,20.65-4.412,30.56c-2.146,7.667-5.342,14.961-9.461,21.771   c-4.065,6.72-8.862,13.024-14.122,18.853c-5.346,5.922-11.282,11.314-17.912,15.771c-6.76,4.544-14.13,7.987-21.597,11.191   c-0.901,0.387-1.8,0.831-2.723,1.162c-5.198,1.865-7.9,7.591-6.036,12.789c1.865,5.199,7.591,7.9,12.79,6.036   c40.593-14.564,70.404-48.711,80.324-89.456H462c5.523,0,10-4.477,10-10s-4.477-10-10-10H253.029   c0.399-0.011,0.178-14.379,0.123-15.631c-0.964-22.054-7.747-44.17-19.658-62.787c-10.489-16.396-25.309-30.204-41.901-40.295   c-16.098-9.79-33.851-15.36-52.587-17.191c-1.615-0.158-22.131-1.265-22.131-0.252v-89.463H492v195.619c0,5.523,4.477,10,10,10   s10-4.477,10-10V144.568V66.001C512,60.478,507.523,56.001,502,56.001z M400.444,49.918c0-8.26,6.72-14.979,14.979-14.979   c8.26,0,14.979,6.72,14.979,14.979v32.166c0,8.26-6.72,14.979-14.979,14.979c-8.26,0-14.979-6.719-14.979-14.979V49.918z    M289.458,49.918c0-8.26,6.72-14.979,14.979-14.979s14.979,6.72,14.979,14.979v32.166c0,8.26-6.72,14.979-14.979,14.979h-0.001   c-8.259,0-14.978-6.719-14.978-14.979V49.918z M178.471,49.918c0-8.26,6.72-14.979,14.98-14.979c8.26,0,14.979,6.72,14.979,14.979   v32.166c0,8.26-6.72,14.979-14.979,14.979h-0.001c-8.26,0-14.979-6.719-14.979-14.979V49.918z M116.875,134.568V76.001h41.596   v6.083c0,19.288,15.692,34.979,34.98,34.979c19.288,0,34.979-15.691,34.979-34.979v-6.083h41.027v6.083   c0,19.288,15.692,34.979,34.979,34.979s34.979-15.691,34.979-34.979v-6.083h41.027v6.083c0,19.288,15.692,34.979,34.979,34.979   s34.979-15.691,34.979-34.979v-6.083H492v58.567H116.875z"/>
	<path style="fill-rule:evenodd;clip-rule:evenodd;" d="M126.705,294.652c-5.523,0-10,4.477-10,10v55.705H83.057   c-5.523,0-10,4.477-10,10c0,5.523,4.477,10,10,10h43.648c5.523,0,10-4.477,10-10v-65.705   C136.705,299.129,132.228,294.652,126.705,294.652z"/>
	<path style="fill-rule:evenodd;clip-rule:evenodd;" d="M126.705,477.061c-5.508,0-10,4.492-10,10c0,5.508,4.492,10,10,10   c5.508,0,10-4.492,10-10C136.705,481.554,132.213,477.061,126.705,477.061z"/>
	<path style="fill-rule:evenodd;clip-rule:evenodd;" d="M502,380.186c-5.508,0-10,4.493-10,10.001c0,5.507,4.492,10,10,10   s10-4.493,10-10C512,384.68,507.508,380.186,502,380.186z"/>
</g>















</svg>
