<?xml version="1.0" encoding="iso-8859-1"?>
<!-- Generator: Adobe Illustrator 19.0.0, SVG Export Plug-In . SVG Version: 6.00 Build 0)  -->
<svg fill="currentColor" version="1.1" id="Capa_1" xmlns="http://www.w3.org/2000/svg" xmlns:xlink="http://www.w3.org/1999/xlink" x="0px" y="0px"
	 viewBox="0 0 512 512" style="enable-background:new 0 0 512 512;" xml:space="preserve">
<g>
	<g>
		<path d="M59.069,227.93C57.21,226.07,54.63,225,52,225s-5.21,1.07-7.07,2.93S42,232.37,42,235s1.069,5.21,2.93,7.07
			c1.861,1.86,4.44,2.93,7.07,2.93s5.21-1.07,7.069-2.93C60.93,240.21,62,237.63,62,235S60.93,229.79,59.069,227.93z"/>
	</g>
</g>
<g>
	<g>
		<path d="M174,0c-25.969,0-47.096,21.127-47.096,47.095v12.787c0,25.968,21.127,47.095,47.096,47.095s47.096-21.127,47.096-47.095
			V47.095C221.096,21.127,199.969,0,174,0z M201.096,59.882c0,14.94-12.155,27.095-27.096,27.095
			c-14.941,0-27.096-12.155-27.096-27.095V47.095C146.904,32.155,159.06,20,174,20s27.096,12.155,27.096,27.095V59.882z"/>
	</g>
</g>
<g>
	<g>
		<path d="M338,0c-25.969,0-47.096,21.127-47.096,47.095v12.787c0,25.968,21.127,47.095,47.096,47.095s47.096-21.127,47.096-47.095
			V47.095C385.096,21.127,363.969,0,338,0z M365.096,59.882c0,14.94-12.155,27.095-27.096,27.095
			c-14.941,0-27.096-12.155-27.096-27.095V47.095C310.904,32.155,323.06,20,338,20s27.096,12.155,27.096,27.095V59.882z"/>
	</g>
</g>
<g>
	<g>
		<path d="M458.356,172.938c5.494-7.703,8.739-17.115,8.739-27.276v-12.786c0-25.968-21.127-47.095-47.096-47.095
			s-47.096,21.127-47.096,47.095v12.786c0,10.161,3.246,19.573,8.739,27.276c-18.131,1.354-33.969,11.065-43.644,25.3
			c-9.675-14.235-25.513-23.945-43.644-25.3c5.494-7.703,8.739-17.115,8.739-27.276v-12.786c0-25.968-21.127-47.095-47.096-47.095
			s-47.096,21.127-47.096,47.095v12.786c0,10.161,3.246,19.573,8.739,27.276c-18.131,1.354-33.969,11.065-43.644,25.3
			c-9.675-14.235-25.513-23.945-43.644-25.3c5.494-7.703,8.739-17.115,8.739-27.276v-12.786c0-25.968-21.127-47.095-47.096-47.095
			s-47.096,21.127-47.096,47.095v12.786c0,10.161,3.246,19.573,8.739,27.276C23.691,175.175,0,200.243,0,230.757v69.891
			c0,25.252,18.097,46.348,42,51.025V502c0,5.523,4.478,10,10,10h80c5.522,0,10-4.477,10-10V351.673
			c13.078-2.559,24.412-10.032,32-20.416c7.588,10.383,18.922,17.857,32,20.416V502c0,5.523,4.478,10,10,10h80
			c5.522,0,10-4.477,10-10V351.673c13.078-2.559,24.412-10.032,32-20.416c7.588,10.383,18.922,17.857,32,20.416V502
			c0,5.523,4.478,10,10,10h80c5.522,0,10-4.477,10-10v-51c0-5.523-4.478-10-10-10c-5.522,0-10,4.477-10,10v41h-20V371
			c0-5.523-4.478-10-10-10c-5.522,0-10,4.477-10,10v121h-20V330.701h60V371c0,5.523,4.478,10,10,10c5.522,0,10-4.477,10-10v-19.327
			c23.903-4.676,42-25.773,42-51.025v-69.891C512,200.243,488.309,175.175,458.356,172.938z M64.904,132.876
			c0-14.94,12.155-27.095,27.096-27.095s27.096,12.155,27.096,27.095v12.786c0,14.94-12.155,27.095-27.096,27.095
			s-27.096-12.155-27.096-27.095V132.876z M122,492h-20V371c0-5.523-4.478-10-10-10c-5.522,0-10,4.477-10,10v121H62V330.701h60V492z
			 M164,300.648c0,14.153-9.239,26.181-22,30.391V235c0-5.523-4.478-10-10-10c-5.522,0-10,4.477-10,10v75.701H62V271
			c0-5.523-4.478-10-10-10s-10,4.477-10,10v60.039c-12.761-4.21-22-16.238-22-30.391v-69.891c0-20.953,17.047-38,38-38h68
			c20.953,0,38,17.047,38,38V300.648z M228.904,132.876c0-14.94,12.155-27.095,27.096-27.095s27.096,12.155,27.096,27.095v12.786
			c0,14.94-12.155,27.095-27.096,27.095c-14.941,0-27.096-12.155-27.096-27.095V132.876z M286,492h-20V371c0-5.523-4.478-10-10-10
			c-5.522,0-10,4.477-10,10v121h-20V330.701h60V492z M328,300.648c0,14.153-9.239,26.181-22,30.391V235c0-5.523-4.478-10-10-10
			c-5.522,0-10,4.477-10,10v75.701h-60V235c0-5.523-4.478-10-10-10c-5.522,0-10,4.477-10,10v96.039
			c-12.761-4.21-22-16.238-22-30.391v-69.891c0-20.953,17.047-38,38-38h68c20.953,0,38,17.047,38,38V300.648z M392.904,132.876
			c0-14.94,12.155-27.095,27.096-27.095c14.941,0,27.096,12.155,27.096,27.095v12.786c0,14.94-12.155,27.095-27.096,27.095
			c-14.941,0-27.096-12.155-27.096-27.095V132.876z M492,300.648c0,14.153-9.239,26.181-22,30.391v-10.338V235
			c0-5.523-4.478-10-10-10c-5.522,0-10,4.477-10,10v75.701h-60V235c0-5.523-4.478-10-10-10c-5.522,0-10,4.477-10,10v96.039
			c-12.761-4.21-22-16.238-22-30.391v-69.891c0-20.953,17.047-38,38-38h68c20.953,0,38,17.047,38,38V300.648z"/>
	</g>
</g>
<g>
	<g>
		<path d="M467.069,404.28c-1.859-1.86-4.429-2.93-7.069-2.93c-2.63,0-5.21,1.07-7.07,2.93c-1.86,1.86-2.93,4.44-2.93,7.07
			c0,2.64,1.069,5.21,2.93,7.07c1.861,1.86,4.44,2.93,7.07,2.93s5.21-1.07,7.069-2.93c1.86-1.86,2.931-4.44,2.931-7.07
			S468.93,406.14,467.069,404.28z"/>
	</g>
</g>
<g>
</g>
<g>
</g>
<g>
</g>
<g>
</g>
<g>
</g>
<g>
</g>
<g>
</g>
<g>
</g>
<g>
</g>
<g>
</g>
<g>
</g>
<g>
</g>
<g>
</g>
<g>
</g>
<g>
</g>
</svg>
