<?xml version="1.0" encoding="iso-8859-1"?>
<!-- Generator: Adobe Illustrator 19.0.0, SVG Export Plug-In . SVG Version: 6.00 Build 0)  -->
<svg fill="currentColor" version="1.1" id="Capa_1" xmlns="http://www.w3.org/2000/svg" xmlns:xlink="http://www.w3.org/1999/xlink" x="0px" y="0px"
	 viewBox="0 0 512 512" style="enable-background:new 0 0 512 512;" xml:space="preserve">
<g>
	<g>
		<path d="M407.07,377.01c-1.86-1.86-4.44-2.93-7.07-2.93s-5.21,1.069-7.07,2.93c-1.86,1.86-2.93,4.44-2.93,7.07
			c0,2.64,1.07,5.21,2.93,7.069c1.86,1.87,4.44,2.931,7.07,2.931s5.21-1.061,7.07-2.931c1.86-1.859,2.93-4.43,2.93-7.069
			C410,381.45,408.93,378.87,407.07,377.01z"/>
	</g>
</g>
<g>
	<g>
		<path d="M470,0H135c-5.523,0-10,4.478-10,10s4.477,10,10,10h335c12.131,0,22,9.869,22,22v258h-94.314c-17.645,0-32-14.355-32-32
			c0-17.645,14.355-32,32-32c5.523,0,10-4.478,10-10c0-5.522-4.477-10-10-10h-74.25c14.354-16.331,23.378-40.192,23.378-62.017
			c0-36.288-26.234-62.626-62.379-62.626c-3.719,0-7.386,0.296-10.967,0.87c1.125-8.146,1.043-18.812-3.844-28.777
			c-5.705-11.632-15.583-18.686-22.864-22.554c-5.808-3.087-16.557-7.771-23.307-4.46c-6.746,3.31-9.625,14.677-10.74,21.158
			c-1.398,8.127-1.868,20.255,3.836,31.887c0.427,0.871,0.89,1.708,1.369,2.529c-31.071,4.25-52.731,29.002-52.731,61.973
			c0,21.824,9.023,45.686,23.378,62.017h-32.25c-28.673,0-52,23.327-52,52c0,12.062,4.14,23.169,11.057,32H20V42
			c0-12.131,9.869-22,22-22h11c5.523,0,10-4.478,10-10S58.523,0,53,0H42C18.841,0,0,18.841,0,42v310.083c0,23.159,18.841,42,42,42
			h155v48.424c-29.474,3.778-52.333,29.008-52.333,59.493c0,5.522,4.477,10,10,10h202.667c5.523,0,10-4.478,10-10
			c0-31.172-23.898-56.859-54.333-59.725v-48.192h46.667c5.523,0,10-4.478,10-10c0-5.522-4.477-10-10-10H42
			c-12.131,0-22-9.869-22-22V320h472v32.083c0,12.131-9.869,22-22,22h-35.333c-5.523,0-10,4.478-10,10c0,5.522,4.477,10,10,10H470
			c23.159,0,42-18.841,42-42V42C512,18.841,493.159,0,470,0z M217,394.083h76V442h-76V394.083z M307.333,462
			c18.605,0,34.284,12.767,38.735,30H165.932c4.451-17.233,20.13-30,38.734-30H307.333z M233.407,56.732
			c5.607,2.294,14.231,7.311,18.26,15.524c3.725,7.595,2.44,16.982,0.779,23.168c-6.022-2.506-14.262-7.25-17.941-14.75
			C230.476,72.46,231.789,62.569,233.407,56.732z M185.186,153.983c0-25.098,17.427-42.626,42.379-42.626
			c8.533,0,16.584,2.129,23.281,6.156c3.171,1.906,7.136,1.906,10.307,0c6.697-4.027,14.748-6.156,23.281-6.156
			c24.952,0,42.379,17.528,42.379,42.626c0,27.329-19.942,61.995-42.359,62.017h-0.046c-8.999-0.011-16.575-5.683-21.347-10.444
			c-1.952-1.946-4.507-2.92-7.063-2.92s-5.111,0.974-7.063,2.92c-4.772,4.761-12.348,10.434-21.347,10.444h-0.046
			C205.128,215.979,185.186,181.312,185.186,153.983z M215.184,300h-58.87c-17.645,0-32-14.355-32-32c0-17.645,14.355-32,32-32
			h58.87c-6.918,8.831-11.057,19.938-11.057,32S208.267,291.169,215.184,300z M256.127,300c-17.645,0-32-14.355-32-32
			c0-17.645,14.355-32,32-32h28.263c0.015,0,0.03,0.001,0.044,0.001c0.017,0,0.033-0.001,0.05-0.001h72.24
			c-5.089,6.5-8.659,14.238-10.193,22.678H260c-5.523,0-10,4.478-10,10c0,5.522,4.477,10,10,10h86.794
			c1.658,7.913,5.115,15.172,9.931,21.322H256.127z"/>
	</g>
</g>
<g>
	<g>
		<path d="M262.07,345.01c-1.86-1.86-4.43-2.93-7.07-2.93c-2.63,0-5.21,1.069-7.07,2.93c-1.86,1.86-2.93,4.44-2.93,7.07
			s1.07,5.21,2.93,7.069c1.86,1.87,4.44,2.931,7.07,2.931s5.21-1.061,7.07-2.931c1.86-1.859,2.93-4.439,2.93-7.069
			S263.93,346.87,262.07,345.01z"/>
	</g>
</g>
<g>
	<g>
		<path d="M99.07,2.93C97.21,1.07,94.63,0,92,0s-5.21,1.069-7.07,2.93C83.07,4.79,82,7.37,82,10s1.07,5.21,2.93,7.069
			C86.79,18.93,89.37,20,92,20s5.21-1.07,7.07-2.931C100.93,15.21,102,12.63,102,10S100.93,4.79,99.07,2.93z"/>
	</g>
</g>
<g>
	<g>
		<path d="M462,436c-27.57,0-50,22.43-50,50v16c0,5.522,4.477,10,10,10h80c5.523,0,10-4.478,10-10v-16
			C512,458.43,489.57,436,462,436z M492,492h-60v-6c0-16.542,13.458-30,30-30s30,13.458,30,30V492z"/>
	</g>
</g>
<g>
</g>
<g>
</g>
<g>
</g>
<g>
</g>
<g>
</g>
<g>
</g>
<g>
</g>
<g>
</g>
<g>
</g>
<g>
</g>
<g>
</g>
<g>
</g>
<g>
</g>
<g>
</g>
<g>
</g>
</svg>
