<?xml version="1.0" encoding="iso-8859-1"?>
<!-- Generator: Adobe Illustrator 19.0.0, SVG Export Plug-In . SVG Version: 6.00 Build 0)  -->
<svg  version="1.1" id="Layer_1" xmlns="http://www.w3.org/2000/svg" xmlns:xlink="http://www.w3.org/1999/xlink" x="0px" y="0px"
	 viewBox="0 0 512.002 512.002" style="enable-background:new 0 0 512.002 512.002;" xml:space="preserve">
<g>
	<g>
		<path d="M504.313,31.55h-375.48c-4.245,0-7.687,3.441-7.687,7.687c0,4.246,3.442,7.687,7.687,7.687h367.794v280.268H15.373V98.644
			h454.981c4.246,0,7.687-3.441,7.687-7.687c0-4.246-3.441-7.687-7.687-7.687H15.373V46.923h67.085c4.245,0,7.687-3.441,7.687-7.687
			c0-4.246-3.442-7.687-7.687-7.687H7.687C3.442,31.55,0,34.99,0,39.236v352.639c0,4.246,3.442,7.687,7.687,7.687h185.68
			l-9.268,72.225c-0.281,2.192,0.394,4.398,1.853,6.056c1.459,1.658,3.562,2.609,5.771,2.609h158.858
			c2.209,0,4.312-0.951,5.771-2.609c1.459-1.658,2.134-3.865,1.854-6.056l-9.268-72.225h155.378c4.246,0,7.687-3.441,7.687-7.687
			V39.236C512,34.991,508.559,31.55,504.313,31.55z M200.458,465.079l8.276-64.492h124.834l8.275,64.492H200.458z M496.627,384.189
			H15.373v-41.624h481.253V384.189z"/>
	</g>
</g>
<g>
	<g>
		<path d="M141.44,223.285l36.24-36.239c3.002-3.004,3.002-7.87,0-10.873c-12.584-12.583-29.315-19.514-47.11-19.514
			c-17.795,0-34.527,6.93-47.111,19.514c-25.977,25.978-25.977,68.245,0,94.223c12.584,12.584,29.315,19.514,47.111,19.514
			s34.527-6.93,47.11-19.514c3.002-3.003,3.002-7.869,0-10.871L141.44,223.285z M130.569,274.536
			c-13.689,0-26.56-5.331-36.24-15.012c-19.982-19.982-19.982-52.498,0-72.48c9.68-9.68,22.551-15.012,36.24-15.012
			c11.092,0,21.647,3.5,30.402,9.978l-35.837,35.837c-3.002,3.003-3.002,7.869,0,10.871l35.837,35.838
			C152.217,271.036,141.662,274.536,130.569,274.536z"/>
	</g>
</g>
<g>
	<g>
		<path d="M384.515,155.688C351.7,155.688,325,182.384,325,215.2v64.251c0,2.504,1.22,4.851,3.269,6.291
			c2.049,1.439,4.669,1.791,7.027,0.94l11.964-4.32l16.465,5.433c1.672,0.552,3.482,0.513,5.128-0.11l13.996-5.294l16.071,5.392
			c0.793,0.266,1.619,0.4,2.445,0.4c0.895,0,1.789-0.156,2.641-0.468l14.746-5.396l15.432,4.511
			c2.319,0.681,4.829,0.225,6.767-1.227c1.937-1.451,3.077-3.731,3.077-6.15v-64.252
			C444.028,182.385,417.33,155.688,384.515,155.688z M428.655,269.197l-8.013-2.342c-1.574-0.46-3.256-0.406-4.799,0.159
			l-14.587,5.338l-16.116-5.406c-0.793-0.266-1.619-0.4-2.445-0.4c-0.922,0-1.845,0.166-2.719,0.497l-14.016,5.302l-16.403-5.411
			c-1.635-0.539-3.4-0.514-5.018,0.069l-4.164,1.504V215.2c0-24.339,19.801-44.14,44.14-44.14s44.141,19.801,44.141,44.14V269.197z"
			/>
	</g>
</g>
<g>
	<g>
		<path d="M366.102,207.755c-8.563,0-15.529,6.966-15.529,15.528c0,8.563,6.966,15.529,15.529,15.529s15.529-6.966,15.529-15.529
			C381.632,214.721,374.666,207.755,366.102,207.755z M366.102,223.44c-0.069,0-0.156-0.087-0.156-0.156
			c0-0.068,0.087-0.155,0.156-0.155c0.069,0,0.156,0.087,0.156,0.155C366.258,223.353,366.171,223.44,366.102,223.44z"/>
	</g>
</g>
<g>
	<g>
		<path d="M402.927,207.756c-8.563,0-15.529,6.966-15.529,15.528c0,8.563,6.966,15.529,15.529,15.529s15.529-6.966,15.529-15.529
			C418.456,214.722,411.49,207.756,402.927,207.756z M402.927,223.439c-0.069,0-0.156-0.087-0.156-0.156
			c0-0.068,0.087-0.155,0.156-0.155c0.067,0,0.156,0.088,0.156,0.155C403.083,223.352,402.996,223.439,402.927,223.439z"/>
	</g>
</g>
<g>
</g>
<g>
</g>
<g>
</g>
<g>
</g>
<g>
</g>
<g>
</g>
<g>
</g>
<g>
</g>
<g>
</g>
<g>
</g>
<g>
</g>
<g>
</g>
<g>
</g>
<g>
</g>
<g>
</g>
</svg>
