<?xml version="1.0" encoding="iso-8859-1"?>
<!-- Generator: Adobe Illustrator 16.0.0, SVG Export Plug-In . SVG Version: 6.00 Build 0)  -->
<!DOCTYPE svg PUBLIC "-//W3C//DTD SVG 1.1//EN" "http://www.w3.org/Graphics/SVG/1.1/DTD/svg11.dtd">
<svg version="1.1" id="Capa_1" xmlns="http://www.w3.org/2000/svg" xmlns:xlink="http://www.w3.org/1999/xlink" x="0px" y="0px"
	 width="70px" height="70px" viewBox="0 0 70 70" style="enable-background:new 0 0 70 70;" xml:space="preserve">
<g>
	<g>
		<g>
			<path d="M56.999,67.539c-5.819,0-14.058-6.449-17.403-13.449h-9.194c-3.327,7-11.561,13.306-17.402,13.306
				c-10.611,0-13-20.74-13-27.998c0-9.534,7.626-17.308,17-17.308h36c9.374,0,17,7.736,17,17.226
				C69.999,46.63,67.609,67.539,56.999,67.539z M29.095,50.089h11.809c0.824,0,1.562,0.541,1.863,1.31
				c2.438,6.252,10.084,12.156,14.231,12.156c5.992,0,9-15.546,9-24.232c0-7.282-5.832-13.233-13-13.233h-36
				c-7.047,0-13,6.121-13,13.325c0,9.801,3.205,23.996,9,23.996c4.172,0,11.823-5.842,14.232-12.021
				C27.531,50.621,28.27,50.089,29.095,50.089z"/>
		</g>
		<g>
			<path d="M33.499,48.089h-1c-0.553,0-1-0.446-1-1c0-0.553,0.447-1,1-1h1c0.553,0,1,0.447,1,1
				C34.499,47.643,34.052,48.089,33.499,48.089z"/>
		</g>
		<g>
			<path d="M13.095,60.749c-0.553,0-1-0.432-1-0.983c0-0.553,0.447-0.99,1-0.99c2.871,0,9.921-7.199,11.785-12.019
				c0.149-0.385,0.52-0.668,0.933-0.668h3.686c0.553,0,1,0.447,1,1c0,0.554-0.447,1-1,1h-3.023
				C24.231,53.089,17.22,60.749,13.095,60.749z"/>
		</g>
		<g>
			<g>
				<path d="M34.98,25.862c-0.576,0-1.148-0.248-1.544-0.727c-0.702-0.853-0.582-2.113,0.27-2.816
					c1.673-1.38,2.774-3.228,2.806-4.706c0.018-0.822-0.285-1.485-0.954-2.087c-2.238-2.015-6.895-6.207-2.518-12.241
					c0.649-0.893,1.898-1.091,2.794-0.444c0.895,0.649,1.094,1.899,0.443,2.794c-1.798,2.479-1.396,3.901,1.955,6.919
					c1.533,1.379,2.32,3.157,2.279,5.145c-0.059,2.672-1.65,5.553-4.26,7.707C35.88,25.711,35.429,25.862,34.98,25.862z"/>
			</g>
		</g>
		<g>
			<g>
				<path d="M16.88,48.158c-0.553,0-1-0.447-1-1v-14c0-0.553,0.447-1,1-1c0.553,0,1,0.447,1,1v14
					C17.88,47.71,17.433,48.158,16.88,48.158z"/>
			</g>
			<g>
				<path d="M23.499,41.089h-14c-0.553,0-1-0.446-1-1c0-0.553,0.447-1,1-1h14c0.553,0,1,0.447,1,1
					C24.499,40.643,24.052,41.089,23.499,41.089z"/>
			</g>
		</g>
		<g>
			<g>
				<path d="M53.691,40.249c-0.916,0-1.776-0.356-2.424-1.006c-0.646-0.645-1.004-1.506-1.004-2.422s0.356-1.776,1.004-2.424
					c1.293-1.295,3.553-1.295,4.847,0c0.647,0.648,1.005,1.508,1.005,2.424s-0.355,1.777-1.004,2.424
					C55.467,39.893,54.607,40.249,53.691,40.249z M53.691,35.396c-0.381,0-0.739,0.146-1.01,0.417
					c-0.27,0.27-0.418,0.629-0.418,1.01s0.148,0.74,0.418,1.01c0.539,0.541,1.479,0.541,2.02,0c0.27-0.27,0.418-0.629,0.418-1.01
					s-0.148-0.738-0.419-1.01C54.432,35.542,54.072,35.396,53.691,35.396z"/>
			</g>
			<g>
				<path d="M59.175,45.732c-0.916,0-1.776-0.357-2.425-1.006c-0.646-0.646-1.003-1.506-1.003-2.422s0.356-1.775,1.004-2.423
					c1.293-1.295,3.552-1.295,4.847,0c1.338,1.334,1.338,3.509,0.002,4.847C60.95,45.376,60.09,45.732,59.175,45.732z
					 M59.174,40.878c-0.381,0-0.738,0.148-1.009,0.418c-0.271,0.271-0.418,0.627-0.418,1.009c0,0.381,0.147,0.739,0.418,1.01
					c0.54,0.539,1.479,0.539,2.021,0c0.556-0.558,0.556-1.461-0.002-2.019C59.914,41.027,59.557,40.878,59.174,40.878z"/>
			</g>
			<g>
				<path d="M48.209,45.732c-0.916,0-1.775-0.355-2.424-1.004c-0.648-0.649-1.004-1.508-1.003-2.424
					c0-0.916,0.356-1.775,1.004-2.423c1.293-1.295,3.553-1.295,4.846,0c0.647,0.646,1.005,1.507,1.005,2.423
					c0.002,0.916-0.354,1.776-1.004,2.424C49.984,45.376,49.125,45.732,48.209,45.732z M48.209,40.878
					c-0.381,0-0.738,0.148-1.009,0.418c-0.271,0.271-0.418,0.627-0.418,1.009c0,0.381,0.147,0.739,0.417,1.01
					c0.541,0.541,1.48,0.539,2.02,0c0.271-0.271,0.418-0.629,0.418-1.01c0-0.382-0.147-0.738-0.418-1.009
					C48.948,41.027,48.59,40.878,48.209,40.878z"/>
			</g>
			<g>
				<path d="M53.691,51.214c-0.916,0-1.776-0.354-2.424-1.004c-0.646-0.646-1.004-1.508-1.004-2.424s0.356-1.774,1.004-2.422
					c1.293-1.295,3.553-1.295,4.847,0c0.647,0.645,1.005,1.506,1.005,2.422c0.001,0.916-0.355,1.777-1.004,2.424
					C55.469,50.859,54.607,51.214,53.691,51.214z M53.691,46.361c-0.381,0-0.739,0.147-1.01,0.418
					c-0.27,0.27-0.418,0.627-0.418,1.008c0,0.383,0.148,0.74,0.418,1.01c0.541,0.541,1.48,0.539,2.02,0
					c0.27-0.27,0.418-0.629,0.418-1.01s-0.148-0.738-0.418-1.008C54.432,46.509,54.072,46.361,53.691,46.361z"/>
			</g>
		</g>
	</g>
</g>
<g>
</g>
<g>
</g>
<g>
</g>
<g>
</g>
<g>
</g>
<g>
</g>
<g>
</g>
<g>
</g>
<g>
</g>
<g>
</g>
<g>
</g>
<g>
</g>
<g>
</g>
<g>
</g>
<g>
</g>
</svg>
