<?xml version="1.0" encoding="iso-8859-1"?>
<!-- Generator: Adobe Illustrator 19.0.0, SVG Export Plug-In . SVG Version: 6.00 Build 0)  -->
<svg version="1.1" id="Capa_1" xmlns="http://www.w3.org/2000/svg" xmlns:xlink="http://www.w3.org/1999/xlink" x="0px" y="0px"
	 viewBox="0 0 512 512" style="enable-background:new 0 0 512 512;" xml:space="preserve">
<g>
	<g>
		<path d="M498.526,98.491c7.43,0,13.474-6.045,13.474-13.475V54.97c0-7.43-6.044-13.475-13.474-13.475h-51.333V22.092
			c0-11.84-10.963-21.472-24.438-21.472h-124.33c-4.218,0-7.636,3.419-7.636,7.636c0,15.509-16.053,34.453-34.788,34.453
			s-34.788-18.944-34.788-34.453c0-4.217-3.418-7.636-7.636-7.636H130.01c-4.218,0-7.636,3.419-7.636,7.636
			c0,4.217,3.418,7.636,7.636,7.636h76.693C210.797,36.776,230.89,57.98,256,57.98s45.203-21.205,49.296-42.089h117.458
			c4.884,0,9.167,2.898,9.167,6.201v27.038v41.724v35.226v41.723v35.226v41.724v35.226v41.723v35.226v41.724v35.226V475.6v14.309
			c0,3.303-4.283,6.201-9.167,6.201H89.246c-4.884,0-9.167-2.898-9.167-6.201V475.6v-41.723v-35.226v-41.724v-35.226v-41.723
			v-35.226v-41.724v-35.226v-41.722V90.855V49.131V22.092c0-3.303,4.283-6.201,9.167-6.201h13.02c4.218,0,7.636-3.419,7.636-7.636
			s-3.418-7.636-7.636-7.636h-13.02c-13.475,0-24.438,9.632-24.438,21.472v19.403H13.474C6.044,41.495,0,47.54,0,54.97v30.045
			c0,7.43,6.044,13.475,13.474,13.475h51.333v19.954H13.474C6.044,118.444,0,124.488,0,131.918v30.046
			c0,7.43,6.044,13.474,13.474,13.474h51.333v19.954H13.474C6.044,195.394,0,201.438,0,208.868v30.045
			c0,7.43,6.044,13.475,13.474,13.475h51.333v19.954H13.474C6.044,272.342,0,278.387,0,285.817v30.046
			c0,7.43,6.044,13.474,13.474,13.474h51.333v19.954H13.474C6.044,349.291,0,355.337,0,362.767v30.045
			c0,7.43,6.044,13.475,13.474,13.475h51.333v19.954H13.474C6.044,426.241,0,432.285,0,439.715v30.046
			c0,7.43,6.044,13.474,13.474,13.474h51.333v6.673c0,11.84,10.963,21.472,24.438,21.472h333.509
			c13.475,0,24.438-9.632,24.438-21.472v-6.673h51.333c7.43,0,13.474-6.044,13.474-13.474v-30.046
			c0-7.43-6.044-13.474-13.474-13.474h-51.333v-19.954h51.333c7.43,0,13.474-6.045,13.474-13.475v-30.045
			c0-7.43-6.044-13.475-13.474-13.475h-51.333v-19.954h51.333c7.43,0,13.474-6.044,13.474-13.474v-30.046
			c0-7.43-6.044-13.474-13.474-13.474h-51.333v-19.954h51.333c7.43,0,13.474-6.045,13.474-13.475V208.87
			c0-7.43-6.044-13.475-13.474-13.475h-51.333v-19.954h51.333c7.43,0,13.474-6.044,13.474-13.474v-30.046
			c0-7.43-6.044-13.474-13.474-13.474h-51.333V98.491H498.526z M447.193,56.766h49.536v26.452h-49.536V56.766z M64.807,467.965
			H15.271v-26.452h49.536V467.965z M64.807,391.016H15.271v-26.452h49.536V391.016z M64.807,314.066H15.271v-26.452h49.536V314.066z
			 M64.807,237.116H15.271v-26.452h49.536V237.116z M64.807,160.167H15.271v-26.452h49.536V160.167z M64.807,83.219H15.271V56.766
			h49.536V83.219z M447.193,441.512h49.536v26.452h-49.536V441.512z M447.193,364.564h49.536v26.452h-49.536V364.564z
			 M447.193,287.615h49.536v26.452h-49.536V287.615z M447.193,210.665h49.536v26.452h-49.536V210.665z M447.193,133.715h49.536
			v26.452h-49.536V133.715z"/>
	</g>
</g>
<g>
	<g>
		<path d="M343.69,227.837l-4.892-0.617c-1.11-3.189-2.407-6.318-3.884-9.368l3.027-3.893c5.379-6.913,4.764-16.796-1.429-22.989
			l-15.481-15.482c-6.186-6.187-16.064-6.806-22.974-1.442l-3.914,3.037c-3.018-1.462-6.113-2.748-9.267-3.849l-0.612-4.904
			c-1.086-8.69-8.509-15.244-17.267-15.244h-21.894c-8.748,0-16.17,6.545-17.265,15.225l-0.616,4.891
			c-3.188,1.109-6.315,2.406-9.362,3.882l-3.914-3.037c-6.91-5.364-16.788-4.745-22.974,1.442l-15.48,15.481
			c-6.193,6.193-6.809,16.075-1.432,22.988l3.029,3.894c-1.476,3.048-2.775,6.178-3.884,9.368l-4.894,0.618
			c-8.679,1.094-15.224,8.516-15.224,17.264v21.895c0,8.757,6.553,16.18,15.244,17.267l4.905,0.612
			c1.102,3.154,2.387,6.25,3.849,9.267l-3.038,3.915c-5.364,6.911-4.744,16.787,1.443,22.972l15.481,15.482
			c6.193,6.193,16.075,6.808,22.99,1.431l3.893-3.029c3.047,1.476,6.177,2.774,9.367,3.884l0.616,4.891
			c1.095,8.679,8.517,15.224,17.265,15.224h21.894c8.758,0,16.181-6.553,17.267-15.244l0.612-4.904
			c3.156-1.103,6.254-2.39,9.272-3.852l3.894,3.029c6.911,5.377,16.795,4.762,22.989-1.431l15.48-15.481
			c6.187-6.186,6.808-16.063,1.443-22.973l-3.037-3.915c1.462-3.017,2.747-6.113,3.849-9.267l4.906-0.613
			c8.69-1.086,15.243-8.509,15.243-17.266v-21.895C358.914,236.352,352.369,228.93,343.69,227.837z M343.643,266.996
			c0,1.072-0.802,1.98-1.865,2.113l-9.757,1.219c-3.041,0.38-5.561,2.542-6.399,5.49c-1.517,5.343-3.671,10.529-6.402,15.416
			c-1.494,2.675-1.245,5.985,0.634,8.406l6.037,7.78c0.656,0.845,0.581,2.053-0.177,2.81l-15.481,15.482
			c-0.757,0.758-1.968,0.834-2.813,0.175l-7.76-6.036c-2.422-1.883-5.737-2.135-8.413-0.638c-4.892,2.733-10.083,4.889-15.428,6.408
			c-2.948,0.838-5.11,3.357-5.49,6.398l-1.219,9.757c-0.132,1.063-1.041,1.865-2.113,1.865h-21.894c-1.071,0-1.98-0.801-2.113-1.862
			l-1.228-9.744c-0.384-3.041-2.548-5.559-5.498-6.393c-5.377-1.521-10.595-3.684-15.506-6.429c-1.163-0.65-2.447-0.97-3.724-0.97
			c-1.664,0-3.32,0.543-4.69,1.609l-7.759,6.036c-0.846,0.657-2.057,0.584-2.814-0.175l-15.482-15.482
			c-0.757-0.757-0.833-1.965-0.177-2.81l6.038-7.779c1.879-2.421,2.129-5.731,0.634-8.406c-2.731-4.887-4.885-10.074-6.402-15.416
			c-0.838-2.948-3.358-5.11-6.399-5.49l-9.756-1.219c-1.064-0.133-1.866-1.041-1.866-2.113v-21.895c0-1.07,0.8-1.979,1.863-2.113
			l9.742-1.23c3.04-0.383,5.558-2.548,6.392-5.498c1.521-5.378,3.685-10.595,6.43-15.506c1.496-2.678,1.246-5.993-0.638-8.414
			l-6.037-7.761c-0.658-0.846-0.583-2.055,0.176-2.813l15.481-15.482c0.757-0.757,1.966-0.832,2.811-0.176l7.779,6.037
			c2.422,1.879,5.73,2.128,8.406,0.634c4.911-2.743,10.124-4.905,15.496-6.423c2.951-0.834,5.115-3.352,5.499-6.393l1.228-9.744
			c0.133-1.062,1.042-1.863,2.113-1.863h21.894c1.072,0,1.98,0.802,2.113,1.865l1.219,9.757c0.38,3.042,2.542,5.561,5.491,6.399
			c5.341,1.517,10.528,3.671,15.417,6.402c2.676,1.495,5.985,1.246,8.406-0.634l7.779-6.037c0.843-0.656,2.054-0.581,2.811,0.176
			l15.482,15.482c0.758,0.758,0.832,1.966,0.174,2.813l-6.036,7.761c-1.883,2.421-2.135,5.735-0.638,8.413
			c2.747,4.915,4.91,10.132,6.429,15.506c0.833,2.95,3.351,5.115,6.392,5.499l9.745,1.228c1.063,0.134,1.863,1.042,1.863,2.113
			V266.996z"/>
	</g>
</g>
<g>
	<g>
		<path d="M256,200.727c-30.478,0-55.275,24.796-55.275,55.274c0,7.672,1.545,15.103,4.592,22.087
			c1.687,3.865,6.185,5.632,10.053,3.946c3.866-1.686,5.631-6.187,3.945-10.052c-2.201-5.047-3.318-10.424-3.318-15.981
			c0-22.058,17.945-40.003,40.003-40.003s40.003,17.945,40.003,40.003S278.058,296.004,256,296.004
			c-6.758,0-13.434-1.714-19.306-4.957c-3.693-2.039-8.337-0.699-10.376,2.993c-2.038,3.692-0.699,8.337,2.993,10.376
			c8.127,4.488,17.355,6.86,26.689,6.86c30.478,0,55.275-24.796,55.275-55.274C311.275,225.524,286.478,200.727,256,200.727z"/>
	</g>
</g>
<g>
</g>
<g>
</g>
<g>
</g>
<g>
</g>
<g>
</g>
<g>
</g>
<g>
</g>
<g>
</g>
<g>
</g>
<g>
</g>
<g>
</g>
<g>
</g>
<g>
</g>
<g>
</g>
<g>
</g>
</svg>
