<?xml version="1.0" encoding="iso-8859-1"?>
<!-- Generator: Adobe Illustrator 19.0.0, SVG Export Plug-In . SVG Version: 6.00 Build 0)  -->
<svg fill="currentColor" xmlns="http://www.w3.org/2000/svg" xmlns:xlink="http://www.w3.org/1999/xlink" version="1.1" id="Layer_1" x="0px" y="0px" viewBox="0 0 512 512" style="enable-background:new 0 0 512 512;" xml:space="preserve" width="512" height="512">
<g>
	<path d="M502,0H10C4.478,0,0,4.477,0,10v492c0,5.523,4.478,10,10,10h492c5.522,0,10-4.477,10-10V10C512,4.477,507.522,0,502,0z    M492,20v60H216.181l-30-60H492z M163.819,20l10,20H90c-5.51,0-10,4.49-10,10c0,5.51,4.49,10,10,10h93.819l10,20H20V20H163.819z    M492,492H20V100h472V492z"/>
	<path d="M462,60c5.52,0,10-4.48,10-10s-4.48-10-10-10c-5.521,0-10,4.48-10,10S456.479,60,462,60z"/>
	<path d="M382,60c5.52,0,10-4.48,10-10s-4.48-10-10-10c-5.521,0-10,4.48-10,10S376.479,60,382,60z"/>
	<path d="M422,60c5.52,0,10-4.48,10-10s-4.48-10-10-10c-5.521,0-10,4.48-10,10S416.479,60,422,60z"/>
	<path d="M50,60c5.51,0,10-4.49,10-10c0-5.51-4.49-10-10-10s-10,4.49-10,10C40,55.51,44.49,60,50,60z"/>
	<path d="M186.047,198.921c-3.278-4.443-9.537-5.388-13.984-2.11l-38.143,28.142c-2.555,1.885-4.063,4.872-4.063,8.047   s1.508,6.162,4.063,8.047l38.143,28.142c1.787,1.318,3.867,1.954,5.93,1.954c3.067,0,6.094-1.406,8.055-4.063   c3.279-4.444,2.334-10.705-2.109-13.984L156.701,233l27.236-20.095C188.381,209.626,189.326,203.365,186.047,198.921z"/>
	<path d="M325.953,267.079c1.961,2.658,4.987,4.064,8.055,4.063c2.062,0,4.143-0.636,5.93-1.954l38.143-28.142   c2.555-1.885,4.063-4.872,4.063-8.047s-1.508-6.162-4.063-8.047l-38.143-28.142c-4.445-3.28-10.705-2.334-13.984,2.11   s-2.334,10.705,2.109,13.984L355.299,233l-27.236,20.095C323.619,256.374,322.674,262.635,325.953,267.079z"/>
	<path d="M209.163,317.752c1.533,0.847,3.191,1.25,4.828,1.25c3.521,0,6.938-1.865,8.761-5.165l84-152   c2.672-4.834,0.919-10.918-3.915-13.589c-4.831-2.669-10.917-0.918-13.589,3.916l-84,152   C202.576,308.997,204.329,315.081,209.163,317.752z"/>
	<path d="M301,452h-40c-5.522,0-10,4.477-10,10s4.478,10,10,10h40c5.522,0,10-4.477,10-10S306.522,452,301,452z"/>
	<path d="M221,452h-10c-5.522,0-10,4.477-10,10s4.478,10,10,10h10c5.522,0,10-4.477,10-10S226.522,452,221,452z"/>
	<path d="M301,412h-90c-5.522,0-10,4.477-10,10s4.478,10,10,10h90c5.522,0,10-4.477,10-10S306.522,412,301,412z"/>
	<path d="M291,372c-5.522,0-10,4.477-10,10s4.478,10,10,10h10c5.522,0,10-4.477,10-10s-4.478-10-10-10H291z"/>
	<path d="M211,392h40c5.522,0,10-4.477,10-10s-4.478-10-10-10h-40c-5.522,0-10,4.477-10,10S205.478,392,211,392z"/>
	<path d="M431,452h-70c-5.522,0-10,4.477-10,10s4.478,10,10,10h70c5.522,0,10-4.477,10-10S436.522,452,431,452z"/>
	<path d="M451,412h-90c-5.522,0-10,4.477-10,10s4.478,10,10,10h90c5.522,0,10-4.477,10-10S456.522,412,451,412z"/>
	<path d="M351,382c0,5.51,4.49,10,10,10h50c5.51,0,10-4.49,10-10c0-5.51-4.49-10-10-10h-50C355.49,372,351,376.49,351,382z"/>
	<path d="M451,392c5.51,0,10-4.49,10-10c0-5.51-4.49-10-10-10s-10,4.49-10,10C441,387.51,445.49,392,451,392z"/>
	<path d="M131,452H61c-5.522,0-10,4.477-10,10s4.478,10,10,10h70c5.522,0,10-4.477,10-10S136.522,452,131,452z"/>
	<path d="M61,432c5.51,0,10-4.49,10-10c0-5.51-4.49-10-10-10s-10,4.49-10,10C51,427.51,55.49,432,61,432z"/>
	<path d="M151,412h-50c-5.51,0-10,4.49-10,10c0,5.51,4.49,10,10,10h50c5.51,0,10-4.49,10-10C161,416.49,156.51,412,151,412z"/>
	<path d="M151,372H61c-5.522,0-10,4.477-10,10s4.478,10,10,10h90c5.522,0,10-4.477,10-10S156.522,372,151,372z"/>
</g>















</svg>
