<?xml version="1.0" encoding="iso-8859-1"?>
<!-- Generator: Adobe Illustrator 19.0.0, SVG Export Plug-In . SVG Version: 6.00 Build 0)  -->
<svg  version="1.1" id="Capa_1" xmlns="http://www.w3.org/2000/svg" xmlns:xlink="http://www.w3.org/1999/xlink" x="0px" y="0px"
	 viewBox="0 0 512 512" style="enable-background:new 0 0 512 512;" xml:space="preserve">
<g>
	<g>
		<path d="M432.044,229.021c-5.315-1.487-10.837,1.614-12.327,6.932c-14.357,51.255-52.612,93.355-102.331,112.617
			c-3.85,1.492-6.387,5.196-6.387,9.325V372h-45v-90.452c2.679,0.294,5.354,0.448,8.015,0.448c19.122,0,37.539-7.513,51.549-21.523
			c18.496-18.496,25.667-44.667,19.182-70.006c-0.906-3.54-3.669-6.303-7.209-7.209c-25.339-6.483-51.51,0.687-70.006,19.181
			c-4.538,4.538-8.391,9.541-11.531,14.878c-3.14-5.337-6.992-10.339-11.53-14.878c-18.496-18.496-44.67-25.667-70.007-19.182
			c-3.54,0.906-6.303,3.669-7.209,7.209c-6.484,25.34,0.687,51.511,19.182,70.007c14.012,14.011,32.426,21.523,51.549,21.523
			c2.661,0,5.336-0.155,8.015-0.449V372h-45v-14.104c0-4.129-2.538-7.833-6.387-9.325C129.648,323.402,86,259.677,86,190
			c0-93.738,76.262-170,170-170c78.679,0,146.605,53.313,165.184,129.646c1.306,5.367,6.719,8.658,12.081,7.352
			c5.366-1.306,8.658-6.715,7.352-12.081c-9.892-40.641-33.462-77.45-66.37-103.646C340.33,14.271,299.44,0,256,0
			C151.233,0,66,85.234,66,190c0,39.087,11.78,76.632,34.067,108.578c20.45,29.313,48.331,52.034,80.933,66.035v9.108
			c-11.639,4.128-20,15.243-20,28.28s8.361,24.152,20,28.28V437c0,41.355,33.645,75,75,75s75-33.645,75-75v-6.72
			c11.639-4.128,20-15.243,20-28.28s-8.361-24.152-20-28.28v-9.111c52.44-22.571,92.55-68.188,107.977-123.261
			C440.466,236.03,437.363,230.511,432.044,229.021z M281.672,216.582c11.989-11.988,28.411-17.432,44.886-15.136
			c2.296,16.476-3.149,32.898-15.136,44.885c-11.988,11.988-28.407,17.432-44.885,15.136
			C264.239,244.99,269.685,228.569,281.672,216.582z M245.463,261.467c-16.479,2.295-32.898-3.149-44.885-15.136
			c-11.988-11.988-17.434-28.409-15.136-44.885c16.474-2.298,32.897,3.148,44.885,15.135
			C242.315,228.569,247.761,244.99,245.463,261.467z M311,437c0,30.327-24.673,55-55,55c-30.327,0-55-24.673-55-55v-5h110V437z
			 M321,412H191c-5.514,0-10-4.486-10-10c0-5.514,4.486-10,10-10h130c5.514,0,10,4.486,10,10C331,407.514,326.514,412,321,412z"/>
	</g>
</g>
<g>
	<g>
		<path d="M436,180c-5.523,0-10,4.477-10,10l-0.002,0.86c-0.026,5.523,4.429,10.021,9.952,10.048c0.017,0,0.033,0,0.049,0
			c5.5,0,9.972-4.445,9.999-9.952L446,190C446,184.477,441.523,180,436,180z"/>
	</g>
</g>
<g>
	<g>
		<path d="M255.99,54c-5.523,0-10,4.477-10,10v65.743c0,5.523,4.477,10,10,10s10-4.477,10-10V64C265.99,58.477,261.513,54,255.99,54
			z"/>
	</g>
</g>
<g>
	<g>
		<path d="M212.243,122.67l-19.076-19.06c-3.907-3.905-10.238-3.902-14.142,0.005c-3.904,3.907-3.901,10.239,0.005,14.142
			l19.076,19.061c1.953,1.951,4.51,2.926,7.068,2.926c2.561,0,5.121-0.978,7.074-2.932
			C216.152,132.905,216.149,126.573,212.243,122.67z"/>
	</g>
</g>
<g>
	<g>
		<path d="M332.969,103.629c-3.907-3.904-10.239-3.9-14.142,0.006l-20.28,20.297c-3.904,3.907-3.901,10.239,0.005,14.142
			c1.953,1.951,4.51,2.926,7.068,2.926c2.561,0,5.121-0.978,7.074-2.932l20.28-20.297
			C336.878,113.864,336.875,107.532,332.969,103.629z"/>
	</g>
</g>
<g>
	<g>
		<path d="M263.2,162.01c-1.86-1.86-4.44-2.93-7.07-2.93s-5.21,1.07-7.07,2.93c-1.87,1.86-2.93,4.44-2.93,7.07
			c0,2.64,1.06,5.21,2.93,7.07c1.86,1.87,4.44,2.93,7.07,2.93s5.21-1.06,7.07-2.93c1.86-1.86,2.93-4.43,2.93-7.07
			C266.13,166.45,265.06,163.87,263.2,162.01z"/>
	</g>
</g>
<g>
</g>
<g>
</g>
<g>
</g>
<g>
</g>
<g>
</g>
<g>
</g>
<g>
</g>
<g>
</g>
<g>
</g>
<g>
</g>
<g>
</g>
<g>
</g>
<g>
</g>
<g>
</g>
<g>
</g>
</svg>
