<svg  height="512pt" viewBox="-78 0 512 512" width="512pt" xmlns="http://www.w3.org/2000/svg"><path d="m348.5 147c4.140625 0 7.5-3.359375 7.5-7.5v-62c0-15.164062-12.335938-27.5-27.5-27.5h-34.5v-12.5c0-9.648438-7.851562-17.5-17.5-17.5h-38.835938c.707032-4.878906-.632812-9.804688-3.789062-13.632812-3.335938-4.046876-8.257812-6.367188-13.503906-6.367188h-84.742188c-5.246094 0-10.164062 2.320312-13.5 6.367188-3.15625 3.828124-4.5 8.753906-3.792968 13.632812h-38.335938c-9.648438 0-17.5 7.851562-17.5 17.5v12.5h-35c-15.164062 0-27.5 12.335938-27.5 27.5v407c0 15.164062 12.335938 27.5 27.5 27.5h33c4.140625 0 7.5-3.359375 7.5-7.5s-3.359375-7.5-7.5-7.5h-33c-6.894531 0-12.5-5.605469-12.5-12.5v-5.519531c3.753906 1.925781 8 3.019531 12.5 3.019531h301c4.5 0 8.746094-1.09375 12.5-3.019531v5.519531c0 6.894531-5.605469 12.5-12.5 12.5h-233c-4.140625 0-7.5 3.359375-7.5 7.5s3.359375 7.5 7.5 7.5h233c15.164062 0 27.5-12.335938 27.5-27.5v-310c0-4.140625-3.359375-7.5-7.5-7.5s-7.5 3.359375-7.5 7.5v280c0 6.894531-5.605469 12.5-12.5 12.5h-301c-6.894531 0-12.5-5.605469-12.5-12.5v-377c0-6.894531 5.605469-12.5 12.5-12.5h99.523438l5.96875 30.742188c2.507812 12.898437 13.859374 22.257812 26.996093 22.257812h36.023438c13.136719 0 24.492187-9.359375 26.996093-22.257812l5.96875-30.742188h99.523438c6.894531 0 12.5 5.605469 12.5 12.5v62c0 4.140625 3.359375 7.5 7.5 7.5zm-271-97v-12.5c0-1.378906 1.121094-2.5 2.5-2.5h41.199219l2.914062 15zm130.78125 42.882812c-1.140625 5.863282-6.300781 10.117188-12.269531 10.117188h-36.023438c-5.96875 0-11.128906-4.253906-12.269531-10.117188l-14.542969-74.90625c-.195312-1.007812.242188-1.726562.523438-2.066406s.902343-.910156 1.929687-.910156h84.742188c1.027344 0 1.648437.570312 1.929687.910156.277344.339844.71875 1.058594.523438 2.066406zm23.605469-42.882812 2.914062-15h41.699219c1.378906 0 2.5 1.121094 2.5 2.5v12.5zm0 0"/><path d="m123 170.5c0-9.648438-7.851562-17.5-17.5-17.5h-35c-9.648438 0-17.5 7.851562-17.5 17.5v35c0 9.648438 7.851562 17.5 17.5 17.5h35c9.648438 0 17.5-7.851562 17.5-17.5zm-15 35c0 1.378906-1.121094 2.5-2.5 2.5h-35c-1.378906 0-2.5-1.121094-2.5-2.5v-35c0-1.378906 1.121094-2.5 2.5-2.5h35c1.378906 0 2.5 1.121094 2.5 2.5zm0 0"/><path d="m296 167h-145c-4.140625 0-7.5 3.359375-7.5 7.5s3.359375 7.5 7.5 7.5h145c4.140625 0 7.5-3.359375 7.5-7.5s-3.359375-7.5-7.5-7.5zm0 0"/><path d="m151 211h40c4.140625 0 7.5-3.359375 7.5-7.5s-3.359375-7.5-7.5-7.5h-40c-4.140625 0-7.5 3.359375-7.5 7.5s3.359375 7.5 7.5 7.5zm0 0"/><path d="m266 211c4.140625 0 7.5-3.359375 7.5-7.5s-3.359375-7.5-7.5-7.5h-40c-4.140625 0-7.5 3.359375-7.5 7.5s3.359375 7.5 7.5 7.5zm0 0"/><path d="m123 270.5c0-9.648438-7.851562-17.5-17.5-17.5h-35c-9.648438 0-17.5 7.851562-17.5 17.5v35c0 9.648438 7.851562 17.5 17.5 17.5h35c9.648438 0 17.5-7.851562 17.5-17.5zm-15 35c0 1.378906-1.121094 2.5-2.5 2.5h-35c-1.378906 0-2.5-1.121094-2.5-2.5v-35c0-1.378906 1.121094-2.5 2.5-2.5h35c1.378906 0 2.5 1.121094 2.5 2.5zm0 0"/><path d="m296 266h-145c-4.140625 0-7.5 3.359375-7.5 7.5s3.359375 7.5 7.5 7.5h145c4.140625 0 7.5-3.359375 7.5-7.5s-3.359375-7.5-7.5-7.5zm0 0"/><path d="m151 311h40c4.140625 0 7.5-3.359375 7.5-7.5s-3.359375-7.5-7.5-7.5h-40c-4.140625 0-7.5 3.359375-7.5 7.5s3.359375 7.5 7.5 7.5zm0 0"/><path d="m266 311c4.140625 0 7.5-3.359375 7.5-7.5s-3.359375-7.5-7.5-7.5h-40c-4.140625 0-7.5 3.359375-7.5 7.5s3.359375 7.5 7.5 7.5zm0 0"/><path d="m105.5 353h-35c-9.648438 0-17.5 7.851562-17.5 17.5v35c0 9.648438 7.851562 17.5 17.5 17.5h35c9.648438 0 17.5-7.851562 17.5-17.5v-35c0-9.648438-7.851562-17.5-17.5-17.5zm2.5 52.5c0 1.378906-1.121094 2.5-2.5 2.5h-35c-1.378906 0-2.5-1.121094-2.5-2.5v-35c0-1.378906 1.121094-2.5 2.5-2.5h35c1.378906 0 2.5 1.121094 2.5 2.5zm0 0"/><path d="m303.5 373.5c0-4.140625-3.359375-7.5-7.5-7.5h-145c-4.140625 0-7.5 3.359375-7.5 7.5s3.359375 7.5 7.5 7.5h145c4.140625 0 7.5-3.359375 7.5-7.5zm0 0"/><path d="m151 396c-4.140625 0-7.5 3.359375-7.5 7.5s3.359375 7.5 7.5 7.5h40c4.140625 0 7.5-3.359375 7.5-7.5s-3.359375-7.5-7.5-7.5zm0 0"/><path d="m226 396c-4.140625 0-7.5 3.359375-7.5 7.5s3.359375 7.5 7.5 7.5h40c4.140625 0 7.5-3.359375 7.5-7.5s-3.359375-7.5-7.5-7.5zm0 0"/><path d="m186.5 35h-17c-2.183594 0-4.261719.953125-5.6875 2.609375s-2.054688 3.855469-1.726562 6.015625l5 33c.554687 3.664062 3.707031 6.375 7.414062 6.375h7c3.707031 0 6.859375-2.710938 7.414062-6.375l5-33c.328126-2.160156-.300781-4.355469-1.726562-6.015625-1.425781-1.65625-3.503906-2.609375-5.6875-2.609375zm0 0"/></svg>