<svg fill="currentColor" height="512pt" viewBox="-38 0 512 512" width="512pt" xmlns="http://www.w3.org/2000/svg"><path d="m427.5 327.5c4.144531 0 7.5-3.355469 7.5-7.5v-35.5c0-8.445312-3.800781-16.300781-10.414062-21.542969-.015626-.011719-.03125-.023437-.050782-.035156-.085937-.066406-.175781-.128906-.261718-.191406-4.785157-3.691407-10.71875-5.730469-16.773438-5.730469h-25v-249.5c0-4.144531-3.355469-7.5-7.5-7.5h-315c-4.144531 0-7.5 3.355469-7.5 7.5v24.167969c0 4.140625 3.355469 7.5 7.5 7.5s7.5-3.359375 7.5-7.5v-16.667969h300v275.148438l-150 85.714843-37.964844-21.691406c-3.59375-2.058594-8.175781-.808594-10.230468 2.789063-2.054688 3.597656-.804688 8.179687 2.792968 10.230468l227.160156 129.808594h-371.757812c-2.847656 0-5.527344-.933594-7.761719-2.710938-3.011719-2.382812-4.738281-5.953124-4.738281-9.789062v-200c0-2.195312.582031-4.296875 1.632812-6.144531l127.679688 72.960937c1.175781.671875 2.453125.988282 3.714844.988282 2.605468 0 5.136718-1.355469 6.519531-3.777344 2.054687-3.597656.804687-8.179688-2.789063-10.234375l-84.257812-48.144531v-226.148438c0-4.144531-3.355469-7.5-7.5-7.5s-7.5 3.355469-7.5 7.5v193h-25c-6.058594 0-12.003906 2.042969-16.78125 5.734375-.085938.0625-.171875.121094-.253906.1875-.015625.011719-.027344.019531-.042969.027344-6.621094 5.25-10.421875 13.105469-10.421875 21.550781v200c0 8.445312 3.800781 16.300781 10.414062 21.542969 4.835938 3.839843 10.902344 5.957031 17.085938 5.957031h380c6.078125 0 12.042969-2.054688 16.828125-5.769531.058594-.042969.121094-.085938.179687-.132813.023438-.015625.046876-.03125.070313-.050781 6.621094-5.246094 10.421875-13.101563 10.421875-21.546875v-132.75c0-4.144531-3.355469-7.5-7.5-7.5s-7.5 3.355469-7.5 7.5v132.75c0 2.195312-.582031 4.296875-1.632812 6.144531l-185.75-106.144531 185.75-106.144531c1.050781 1.847656 1.632812 3.949219 1.632812 6.144531v35.5c0 4.144531 3.355469 7.5 7.5 7.5zm-375-45.925781-16.757812-9.574219h16.757812zm330-9.574219h16.757812l-16.757812 9.574219zm0 0"/><path d="m305.5 201.5c4.144531 0 7.5-3.355469 7.5-7.5v-148c0-4.144531-3.355469-7.5-7.5-7.5h-176c-4.144531 0-7.5 3.355469-7.5 7.5v148c0 4.144531 3.355469 7.5 7.5 7.5zm-168.5-15v-20.355469l47.929688-42.058593 81.566406 62.414062zm161 0h-6.820312l-26.988282-20.652344 33.808594-29.390625zm0-133v63.082031l-45.96875 39.960938-60.355469-46.183594c-4.285156-3.28125-10.339843-3.078125-14.398437.484375l-40.277344 35.34375v-92.6875zm0 0"/><path d="m257.800781 112.679688c14.5625 0 26.414063-11.851563 26.414063-26.417969 0-14.566407-11.851563-26.414063-26.414063-26.414063-14.566406 0-26.417969 11.847656-26.417969 26.414063 0 14.566406 11.851563 26.417969 26.417969 26.417969zm0-37.832032c6.292969 0 11.414063 5.121094 11.414063 11.414063 0 6.296875-5.121094 11.417969-11.414063 11.417969-6.296875 0-11.417969-5.121094-11.417969-11.417969 0-6.292969 5.121094-11.414063 11.417969-11.414063zm0 0"/><path d="m102 229c0 4.144531 3.355469 7.5 7.5 7.5h216c4.144531 0 7.5-3.355469 7.5-7.5s-3.355469-7.5-7.5-7.5h-216c-4.144531 0-7.5 3.355469-7.5 7.5zm0 0"/><path d="m109.5 272.5h216c4.144531 0 7.5-3.355469 7.5-7.5s-3.355469-7.5-7.5-7.5h-216c-4.144531 0-7.5 3.355469-7.5 7.5s3.355469 7.5 7.5 7.5zm0 0"/><path d="m109.5 308.5h216c4.144531 0 7.5-3.355469 7.5-7.5s-3.355469-7.5-7.5-7.5h-216c-4.144531 0-7.5 3.355469-7.5 7.5s3.355469 7.5 7.5 7.5zm0 0"/></svg>