<?xml version="1.0" encoding="iso-8859-1"?>
<!-- Generator: Adobe Illustrator 19.0.0, SVG Export Plug-In . SVG Version: 6.00 Build 0)  -->
<svg xmlns="http://www.w3.org/2000/svg" xmlns:xlink="http://www.w3.org/1999/xlink" version="1.1" id="Layer_1" x="0px" y="0px" viewBox="0 0 511.855 511.855" style="enable-background:new 0 0 511.855 511.855;" xml:space="preserve" width="512" height="512">
<g>
	
		<rect x="112.533" y="130.691" transform="matrix(-0.5284 0.849 -0.849 -0.5284 301.9146 111.3437)" width="14.999" height="17.668"/>
	<polygon points="224.87,55.503 232.846,68.208 256.857,53.132 280.848,68.206 288.828,55.505 256.86,35.419  "/>
	<rect x="377.376" y="107.625" transform="matrix(0.5319 -0.8468 0.8468 0.5319 74.575 384.2823)" width="15" height="34.124"/>
	<rect x="132.315" y="401.841" transform="matrix(-0.8543 -0.5197 0.5197 -0.8543 46.7728 831.791)" width="15.274" height="15"/>
	<rect x="156.525" y="423.481" transform="matrix(-0.8543 -0.5197 0.5197 -0.8543 101.4913 890.4068)" width="38" height="15"/>
	<rect x="301.928" y="439.045" transform="matrix(-0.5285 -0.8489 0.8489 -0.5285 92.7581 947.2748)" width="15" height="17.67"/>
	<rect x="359.928" y="395.277" transform="matrix(-0.5285 -0.8489 0.8489 -0.5285 212.0679 941.3154)" width="15" height="32.983"/>
	<rect x="434.928" y="230.855" width="15" height="18"/>
	<rect x="364.928" y="451.855" width="15" height="60"/>
	<rect x="132.928" y="451.855" width="15" height="60"/>
	<polygon points="70.079,134.936 256.865,17.711 355.169,79.457 363.148,66.755 256.868,0 41.777,134.989 87.598,163.508    95.524,150.773  "/>
	<path d="M375.85,74.733l-7.979,12.702l73.905,46.421l-97.849,60.854v-56.855h-15v39.5h-145v-39.5h-15v58.602l-60.669-37.76   l-7.926,12.735l68.595,42.692v7.8c0,25.378,10.864,48.263,28.18,64.26c-28.919,11.001-54.712,30.11-73.661,54.812   c-22.583,29.44-34.52,64.662-34.52,101.858v69h15v-69c0-25.317,6.339-49.581,17.667-71.018l70.141,42.669l7.796-12.815   l-70.289-42.759c8.436-12.775,18.757-24.272,30.628-34.04l96.609,58.771l95.54-59.484c11.914,9.631,22.374,21.015,30.964,33.732   l-126.23,78.59l-44.406-27.014l-7.796,12.815l52.292,31.812l133.916-83.376c4.937,9.127,8.975,18.786,11.951,28.869l14.387-4.246   c-7.953-26.945-22.77-51.69-42.847-71.561c-16.686-16.514-36.706-29.341-58.505-37.612c17.318-15.997,28.183-38.883,28.183-64.263   v-9.551l91-56.595v60.075h15v-69.404l20.151-12.532L375.85,74.733z M338.906,314.674l-82.518,51.375l-83.469-50.777   c11.793-7.761,24.774-13.952,38.69-18.224c13.117,7.855,28.448,12.378,44.818,12.378c16.361,0,31.685-4.518,44.798-12.366   C314.634,301.181,327.296,307.153,338.906,314.674z M328.928,221.926c0,39.977-32.523,72.5-72.5,72.5s-72.5-32.523-72.5-72.5   v-29.57h145V221.926z"/>
	<path d="M406.105,413.49c1.874,9.608,2.823,19.488,2.823,29.366v69h15v-69c0-10.839-1.043-21.685-3.101-32.237L406.105,413.49z"/>
</g>















</svg>
