<svg height="472pt" viewBox="0 -8 472 471" width="472pt" xmlns="http://www.w3.org/2000/svg"><path d="m232 88.464844h-72c-4.417969 0-8 3.582031-8 8 0 4.417968 3.582031 8 8 8h72c4.417969 0 8-3.582032 8-8 0-4.417969-3.582031-8-8-8zm0 0"/><path d="m48 88.464844c-4.417969 0-8 3.582031-8 8 0 4.417968 3.582031 8 8 8h32c4.417969 0 8-3.582032 8-8 0-4.417969-3.582031-8-8-8zm0 0"/><path d="m112 88.464844c-4.417969 0-8 3.582031-8 8 0 4.417968 3.582031 8 8 8h16c4.417969 0 8-3.582032 8-8 0-4.417969-3.582031-8-8-8zm0 0"/><path d="m232 344.464844h-184c-17.671875 0-32-14.328125-32-32v-180.320313c8.773438 7.925781 20.175781 12.316407 32 12.320313h184c4.417969 0 8-3.582032 8-8 0-4.417969-3.582031-8-8-8h-184c-17.671875 0-32-14.328125-32-32s14.328125-32 32-32h184c4.417969 0 8-3.582032 8-8 0-4.417969-3.582031-8-8-8h-184c-26.5.027344-47.9726562 21.5-48 48v216c.0273438 26.5 21.5 47.972656 48 48h184c4.417969 0 8-3.582032 8-8 0-4.417969-3.582031-8-8-8zm0 0"/><path d="m240 256.464844v-40c0-4.417969-3.582031-8-8-8s-8 3.582031-8 8v40c0 4.417968 3.582031 8 8 8s8-3.582032 8-8zm0 0"/><path d="m384 176.464844c44.746094-.0625 82.339844-33.660156 87.40625-78.121094v-.0625c4.605469-40.726562-19.542969-79.226562-58.210938-92.8125-38.667968-13.585938-81.589843 1.355469-103.46875 36.011719 0 0-.070312.054687-.101562.105469-.03125.046874-.039062.144531-.089844.207031-17.074218 27.085937-18.058594 61.320312-2.5625 89.339843 15.492188 28.023438 45.007813 45.390626 77.027344 45.332032zm-72-88c.011719-10.726563 2.441406-21.316406 7.105469-30.976563l16.894531 11.257813v19.71875c0 3.671875 2.5 6.871094 6.0625 7.761718l24.59375 6.152344-6.289062 31.46875-9.289063 18.617188c-23.984375-12.332032-39.066406-37.03125-39.078125-64zm144 0c0 1.296875-.128906 2.566406-.191406 3.847656l-28.175782 18.785156 4.207032-21.03125c.28125-1.367187.191406-2.777344-.253906-4.097656l-8-24c-.742188-2.234375-2.433594-4.027344-4.617188-4.902344l-31.921875-12.761718 12.953125-25.984376c32.722656 7.488282 55.945312 36.574219 56 70.144532zm-72.96875-71.953125-14.191406 28.378906c-1 2-1.117188 4.332031-.320313 6.421875.796875 2.09375 2.433594 3.753906 4.511719 4.585938l36.570312 14.613281 6.160157 18.464843-7.601563 37.886719c-.632812 3.171875.707032 6.414063 3.394532 8.214844s6.191406 1.804687 8.886718.011719l30.511719-20.34375c-13.144531 33.898437-49.625 52.546875-84.800781 43.351562l9.046875-18.058594c.320312-.632812.546875-1.308593.679687-2.007812l8-40c.835938-4.183594-1.761718-8.289062-5.902344-9.328125l-25.976562-6.484375v-17.753906c0-2.675782-1.335938-5.171875-3.558594-6.65625l-20.882812-13.910156c13.414062-17.027344 33.800781-27.089844 55.472656-27.386719zm0 0"/><path d="m448 304.464844h-128c-13.253906 0-24 10.746094-24 24v72c0 13.253906 10.746094 24 24 24h27.054688l-8 16h-11.054688c-4.417969 0-8 3.582031-8 8 0 4.417968 3.582031 8 8 8h112c4.417969 0 8-3.582032 8-8 0-4.417969-3.582031-8-8-8h-11.054688l-8-16h27.054688c13.253906 0 24-10.746094 24-24v-72c0-13.253906-10.746094-24-24-24zm-128 16h20.6875l-14.34375 14.34375c-2.078125 2.007812-2.914062 4.984375-2.179688 7.78125.730469 2.796875 2.914063 4.980468 5.710938 5.710937 2.796875.734375 5.773438-.101562 7.78125-2.179687l25.65625-25.65625h84.6875c4.417969 0 8 3.582031 8 8v48h-36.6875l18.34375-18.34375c3.03125-3.140625 2.988281-8.128906-.097656-11.214844-3.085938-3.085938-8.074219-3.128906-11.214844-.097656l-29.65625 29.65625h-84.6875v-48c0-4.417969 3.582031-8 8-8zm91.054688 120h-54.109376l8-16h38.109376zm44.945312-40c0 4.417968-3.582031 8-8 8h-128c-4.417969 0-8-3.582032-8-8v-8h144zm0 0"/><path d="m276 321.554688-96-56c-3.785156-1.902344-8.394531-.523438-10.515625 3.140624-2.121094 3.664063-1.015625 8.347657 2.515625 10.683594l96 56c3.785156 1.898438 8.394531.519532 10.515625-3.144531s1.015625-8.347656-2.515625-10.679687zm0 0"/><path d="m295.351562 149.3125c-1.742187-4.058594-6.441406-5.941406-10.503906-4.199219l-112 48c-3.488281 1.496094-5.445312 5.242188-4.683594 8.960938.765626 3.71875 4.039063 6.390625 7.835938 6.390625 1.085938.003906 2.15625-.214844 3.152344-.648438l112-48c4.058594-1.742187 5.941406-6.441406 4.199218-10.503906zm0 0"/><path d="m381.816406 199.808594-3.609375 80.296875c-.097656 2.121093.652344 4.191406 2.085938 5.761719 1.429687 1.566406 3.425781 2.503906 5.546875 2.597656h.367187c4.28125.003906 7.808594-3.363282 8-7.640625l3.609375-80.296875c.199219-4.417969-3.222656-8.160156-7.640625-8.359375s-8.160156 3.222656-8.359375 7.640625zm0 0"/><path d="m116 264.464844c-15.464844 0-28-12.535156-28-28 0-4.417969-3.582031-8-8-8s-8 3.582031-8 8c0 24.300781 19.699219 44 44 44s44-19.699219 44-44c0-24.300782-19.699219-44-44-44-4.417969 0-8 3.582031-8 8 0 4.417968 3.582031 8 8 8 15.464844 0 28 12.535156 28 28s-12.535156 28-28 28zm0 0"/></svg>