<?xml version="1.0"?>
<svg fill="currentColor" xmlns="http://www.w3.org/2000/svg" viewBox="0 0 64 64" width="64px" height="64px">
    <path d="M 31 2 C 22.923 2 15.420047 5.2428125 9.8730469 11.132812 C -0.30495313 21.938813 -0.57046875 39.102078 9.2695312 50.205078 C 12.189531 53.499078 15.707562 56.027703 19.726562 57.720703 C 20.092562 57.874703 20.482047 57.949219 20.873047 57.949219 C 21.304047 57.949219 21.736719 57.856875 22.136719 57.671875 C 22.907719 57.312875 23.491188 56.639125 23.742188 55.828125 L 27.917969 42.341797 C 28.337969 40.983797 27.774219 39.504219 26.574219 38.824219 C 23.629219 37.158219 21.879812 34.026391 22.007812 30.650391 C 22.182813 26.017391 26.095469 22.137906 30.730469 22.003906 C 33.173469 21.924906 35.510484 22.834922 37.271484 24.544922 C 39.032484 26.254922 40 28.547 40 31 C 40 34.241 38.238297 37.243891 35.404297 38.837891 C 34.216297 39.505891 33.655313 40.962734 34.070312 42.302734 L 38.257812 55.828125 C 38.508812 56.640125 39.095234 57.311875 39.865234 57.671875 C 40.627234 58.025875 41.504437 58.043703 42.273438 57.720703 C 46.292437 56.028703 49.810469 53.499078 52.730469 50.205078 C 62.569469 39.102078 62.304953 21.938812 52.126953 11.132812 C 46.579953 5.2428125 39.077 2 31 2 z M 31 4 C 38.52 4 45.504922 7.0209062 50.669922 12.503906 C 60.145922 22.564906 60.393422 38.543859 51.232422 48.880859 C 48.513422 51.947859 45.237094 54.302953 41.496094 55.876953 C 41.242094 55.982953 40.961984 55.976422 40.708984 55.857422 C 40.448984 55.736422 40.251969 55.509328 40.167969 55.236328 L 39.300781 52.435547 C 48.127781 49.021547 54 40.537 54 31 C 54 24.038 50.895375 17.525766 45.484375 13.134766 C 45.056375 12.786766 44.427125 12.850297 44.078125 13.279297 C 43.730125 13.708297 43.795609 14.338547 44.224609 14.685547 C 49.166609 18.696547 52 24.644 52 31 C 52 39.661 46.695984 47.372438 38.708984 50.523438 L 35.980469 41.710938 C 35.842469 41.265937 36.014719 40.789078 36.386719 40.580078 C 39.849719 38.633078 42 34.963 42 31 C 42 28.002 40.815062 25.199375 38.664062 23.109375 C 36.513063 21.020375 33.683875 19.926906 30.671875 20.003906 C 25.005875 20.169906 20.221813 24.912219 20.007812 30.574219 C 19.851813 34.701219 21.989891 38.529453 25.587891 40.564453 C 25.974891 40.784453 26.151813 41.283 26.007812 41.75 L 21.832031 55.238281 C 21.748031 55.510281 21.549063 55.736422 21.289062 55.857422 C 21.036062 55.976422 20.755953 55.983953 20.501953 55.876953 C 16.760953 54.302953 13.484625 51.947859 10.765625 48.880859 C 1.605625 38.543859 1.852125 22.565906 11.328125 12.503906 C 16.494125 7.0209063 23.48 4 31 4 z M 30.5625 8.0058594 C 24.670936 8.125335 18.961328 10.510516 14.736328 14.736328 C 12.144328 17.329328 10.258813 20.397375 9.1328125 23.859375 C 8.9618125 24.384375 9.2484375 24.950094 9.7734375 25.121094 C 9.8764375 25.154094 9.9790313 25.169922 10.082031 25.169922 C 10.503031 25.169922 10.895203 24.901469 11.033203 24.480469 C 12.062203 21.321469 13.785344 18.518391 16.152344 16.150391 C 20.901344 11.403391 27.702844 9.201625 34.339844 10.265625 C 34.881844 10.355625 35.396375 9.9835 35.484375 9.4375 C 35.570375 8.8925 35.200297 8.3780156 34.654297 8.2910156 C 33.291172 8.0722031 31.922092 7.9782881 30.5625 8.0058594 z M 38.658203 9.3867188 C 38.268906 9.4032656 37.908422 9.6466562 37.763672 10.035156 C 37.570672 10.553156 37.832609 11.130266 38.349609 11.322266 C 39.058609 11.587266 39.765219 11.895234 40.449219 12.240234 C 40.594219 12.313234 40.746437 12.347656 40.898438 12.347656 C 41.264437 12.347656 41.616969 12.147828 41.792969 11.798828 C 42.041969 11.307828 41.844563 10.704078 41.351562 10.455078 C 40.601562 10.077078 39.828781 9.7392187 39.050781 9.4492188 C 38.921781 9.4009688 38.787969 9.3812031 38.658203 9.3867188 z M 9.1386719 29.082031 C 8.5926719 29.060031 8.1178906 29.476344 8.0878906 30.027344 C 8.0578906 30.578344 8.48025 31.049078 9.03125 31.080078 L 11.029297 31.185547 C 11.047297 31.186547 11.064031 31.1875 11.082031 31.1875 C 11.610031 31.1875 12.051078 30.773234 12.080078 30.240234 C 12.109078 29.688234 11.687719 29.2185 11.136719 29.1875 L 9.1386719 29.082031 z M 11.667969 34.28125 C 11.540234 34.256453 11.405281 34.254953 11.269531 34.283203 L 9.3125 34.697266 C 8.7715 34.811266 8.4260156 35.344766 8.5410156 35.884766 C 8.6410156 36.355766 9.0565313 36.677734 9.5195312 36.677734 C 9.5875312 36.677734 9.6565625 36.67025 9.7265625 36.65625 L 11.683594 36.242188 C 12.223594 36.126188 12.569078 35.594687 12.455078 35.054688 C 12.369578 34.649687 12.051172 34.355641 11.667969 34.28125 z M 13.099609 39.064453 C 12.969938 39.073422 12.840047 39.107672 12.716797 39.169922 L 10.933594 40.076172 C 10.441594 40.326172 10.246094 40.929875 10.496094 41.421875 C 10.673094 41.768875 11.023672 41.96875 11.388672 41.96875 C 11.540672 41.96875 11.696797 41.932375 11.841797 41.859375 L 13.623047 40.953125 C 14.115047 40.702125 14.3125 40.100422 14.0625 39.607422 C 13.875 39.239172 13.488625 39.037547 13.099609 39.064453 z M 16.103516 43.261719 C 15.847891 43.247844 15.586359 43.331125 15.380859 43.515625 L 13.892578 44.853516 C 13.481578 45.222516 13.449359 45.855625 13.818359 46.265625 C 14.015359 46.485625 14.2885 46.597656 14.5625 46.597656 C 14.8005 46.597656 15.039469 46.512797 15.230469 46.341797 L 16.71875 45.003906 C 17.12975 44.634906 17.161969 44.001797 16.792969 43.591797 C 16.608969 43.386797 16.359141 43.275594 16.103516 43.261719 z M 20.09375 46.585938 C 19.709984 46.517594 19.305078 46.676938 19.080078 47.023438 L 17.988281 48.699219 C 17.687281 49.162219 17.817297 49.781984 18.279297 50.083984 C 18.447297 50.192984 18.637219 50.246094 18.824219 50.246094 C 19.151219 50.246094 19.472062 50.086969 19.664062 49.792969 L 20.755859 48.115234 C 21.056859 47.652234 20.924891 47.034422 20.462891 46.732422 C 20.347141 46.657422 20.221672 46.608719 20.09375 46.585938 z"/>
</svg>
