<?xml version="1.0" encoding="iso-8859-1"?>
<!-- Generator: Adobe Illustrator 19.0.0, SVG Export Plug-In . SVG Version: 6.00 Build 0)  -->
<svg  version="1.1" id="Capa_1" xmlns="http://www.w3.org/2000/svg" xmlns:xlink="http://www.w3.org/1999/xlink" x="0px" y="0px"
	 viewBox="0 0 512 512" style="enable-background:new 0 0 512 512;" xml:space="preserve">
<g>
	<g>
		<path d="M125.191,189.227c-21.764,0-38.387,10.453-38.387,38.216v49.869c0,27.762,16.623,38.216,38.387,38.216
			c21.593-0.001,38.559-10.455,38.559-38.216v-49.869C163.75,199.68,146.784,189.227,125.191,189.227z M145.585,277.312
			c0,15.081-7.711,22.106-20.393,22.106c-12.853,0-20.222-7.025-20.222-22.106v-49.869c0-15.081,7.369-22.107,20.222-22.107
			c12.682,0,20.393,7.026,20.393,22.107V277.312z"/>
	</g>
</g>
<g>
	<g>
		<path d="M202.483,219.903c0-10.797,8.912-15.595,21.421-15.595c14.567,0,19.022,6.512,23.649,6.512
			c5.141,0,7.541-6.341,7.541-9.769c0-9.425-20.051-12.339-31.19-12.339c-18.336,0-39.586,7.541-39.586,32.903
			c0,41.13,55.695,29.305,55.695,59.638c0,12.339-9.254,18.165-21.593,18.165c-19.022,0-23.135-13.538-29.304-13.538
			c-4.285,0-7.883,5.655-7.883,9.769c0,8.568,15.595,20.222,37.873,20.222c22.621,0,39.073-11.996,39.073-36.502
			C258.179,233.784,202.483,245.265,202.483,219.903z"/>
	</g>
</g>
<g>
	<g>
		<path d="M440.183,231.305c-6.303-29.2-24.873-54.447-50.948-69.266c-3.602-2.046-8.18-0.786-10.227,2.814
			c-2.047,3.602-0.787,8.18,2.814,10.227c22.367,12.712,38.295,34.359,43.699,59.391c0.759,3.516,3.868,5.919,7.324,5.919
			c0.524,0,1.057-0.056,1.59-0.171C438.484,239.345,441.057,235.354,440.183,231.305z"/>
	</g>
</g>
<g>
	<g>
		<path d="M471.317,234.086c-3.71-23.336-13.458-45.491-28.19-64.071c-14.53-18.324-33.564-32.772-55.045-41.781
			c-3.82-1.602-8.215,0.196-9.817,4.016c-1.602,3.819,0.196,8.215,4.016,9.816c39.136,16.414,67.577,52.576,74.224,94.376
			c0.587,3.692,3.774,6.323,7.397,6.323c0.392,0,0.788-0.03,1.187-0.094C469.179,242.021,471.968,238.177,471.317,234.086z"/>
	</g>
</g>
<g>
	<g>
		<path d="M352.68,79.49V54.034c0-10.831-8.812-19.643-19.642-19.643H19.642C8.812,34.392,0,43.203,0,54.034v403.932
			c0,10.831,8.812,19.643,19.642,19.643h313.396c10.831,0,19.642-8.812,19.642-19.643v-25.469
			C442.574,423.368,512,347.173,512,255.993S442.574,88.618,352.68,79.49z M337.68,457.966c0,2.56-2.083,4.643-4.642,4.643H19.642
			c-2.56,0-4.642-2.083-4.642-4.643V54.034c0-2.56,2.083-4.643,4.642-4.643h313.396c2.56,0,4.642,2.083,4.642,4.643V457.966z
			 M352.68,230.918c7.867,5.719,12.85,14.986,12.85,25.075s-4.982,19.356-12.85,25.075V230.918z M352.68,298.24
			c16.646-7.164,27.85-23.795,27.85-42.247c0-18.452-11.204-35.083-27.85-42.247v-18.622c11.487,3.421,21.868,10.079,29.84,19.257
			c10.018,11.535,15.536,26.313,15.536,41.612c0,15.3-5.518,30.077-15.536,41.612c-7.972,9.178-18.353,15.837-29.84,19.258V298.24z
			 M352.68,417.425v-85.051c15.9-3.768,30.337-12.466,41.165-24.932c12.388-14.264,19.211-32.535,19.211-51.448
			c0-18.913-6.823-37.185-19.211-51.448c-10.827-12.466-25.265-21.165-41.165-24.932V94.562C434.23,103.617,497,173.036,497,255.993
			S434.23,408.369,352.68,417.425z"/>
	</g>
</g>
<g>
	<g>
		<path d="M311.676,268.579c-4.093-0.6-7.907,2.235-8.507,6.334c-4.07,27.794-16.752,53.018-36.677,72.942
			c-50.658,50.66-133.086,50.66-183.746,0.001c-19.925-19.926-32.607-45.149-36.677-72.943c-0.6-4.098-4.405-6.926-8.507-6.334
			c-4.099,0.6-6.935,4.409-6.334,8.508c4.54,31.011,18.688,59.15,40.912,81.376c28.253,28.253,65.367,42.38,102.479,42.38
			s74.226-14.127,102.479-42.38c22.225-22.226,36.372-50.364,40.913-81.376C318.61,272.988,315.774,269.18,311.676,268.579z"/>
	</g>
</g>
<g>
	<g>
		<path d="M318.011,234.888c-4.538-31.015-18.686-59.158-40.913-81.385c-56.507-56.506-148.452-56.506-204.959,0
			c-22.303,22.304-36.465,50.548-40.957,81.68c-0.591,4.101,2.253,7.903,6.353,8.494c0.363,0.053,0.724,0.078,1.08,0.078
			c3.667,0,6.875-2.693,7.414-6.43c4.025-27.903,16.721-53.22,36.716-73.215c50.659-50.66,133.087-50.66,183.746,0
			c19.927,19.927,32.61,45.152,36.678,72.95c0.6,4.099,4.411,6.93,8.507,6.335C315.775,242.795,318.611,238.987,318.011,234.888z"/>
	</g>
</g>
<g>
</g>
<g>
</g>
<g>
</g>
<g>
</g>
<g>
</g>
<g>
</g>
<g>
</g>
<g>
</g>
<g>
</g>
<g>
</g>
<g>
</g>
<g>
</g>
<g>
</g>
<g>
</g>
<g>
</g>
</svg>
