<?xml version="1.0" encoding="iso-8859-1"?>
<!-- Generator: Adobe Illustrator 19.0.0, SVG Export Plug-In . SVG Version: 6.00 Build 0)  -->
<svg fill="currentColor" version="1.1" id="Capa_1" xmlns="http://www.w3.org/2000/svg" xmlns:xlink="http://www.w3.org/1999/xlink" x="0px" y="0px"
	 viewBox="0 0 511.999 511.999" style="enable-background:new 0 0 511.999 511.999;" xml:space="preserve">
<g>
	<g>
		<path d="M509.067,80.055c-3.9-3.9-10.24-3.9-14.14,0c-3.91,3.91-3.91,10.24,0,14.14c3.9,3.91,10.24,3.91,14.14,0
			C512.977,90.295,512.977,83.965,509.067,80.055z"/>
	</g>
</g>
<g>
	<g>
		<path d="M480.786,23.485c-3.91-3.9-10.24-3.9-14.15,0c-3.9,3.91-3.9,10.24,0,14.14c3.91,3.91,10.24,3.91,14.15,0
			C484.687,33.725,484.687,27.395,480.786,23.485z"/>
	</g>
</g>
<g>
	<g>
		<path d="M410.076,9.345c-3.91-3.9-10.24-3.9-14.15,0c-3.9,3.91-3.9,10.24,0,14.14c3.91,3.91,10.24,3.91,14.15,0
			C413.977,19.585,413.977,13.255,410.076,9.345z"/>
	</g>
</g>
<g>
	<g>
		<path d="M59.977,445.605c-3.91-3.899-10.24-3.899-14.15,0c-3.9,3.91-3.9,10.24,0,14.15c3.91,3.9,10.24,3.9,14.15,0
			C63.876,455.845,63.876,449.515,59.977,445.605z"/>
	</g>
</g>
<g>
	<g>
		<path d="M141.281,362.808c-3.953-3.856-10.284-3.779-14.141,0.174l-53.11,54.43c-3.857,3.952-3.779,10.283,0.173,14.141
			c1.945,1.897,4.465,2.843,6.983,2.843c2.601,0,5.199-1.008,7.158-3.017l53.11-54.43
			C145.311,372.997,145.232,366.666,141.281,362.808z"/>
	</g>
</g>
<g>
	<g>
		<path d="M466.638,235.623l-35.272-35.271c-0.053-0.054-0.106-0.107-0.16-0.16l-42.276-42.276c-0.049-0.05-0.098-0.099-0.148-0.148
			l-42.273-42.273c-0.048-0.049-0.097-0.098-0.146-0.146l-42.285-42.285c-0.047-0.048-0.095-0.096-0.144-0.144l-35.285-35.285
			c-1.875-1.875-4.419-2.929-7.071-2.929c-2.652,0-5.196,1.054-7.071,2.929L141.378,150.761l-14.155,14.146
			c-19.488,19.5-19.487,51.221,0.002,70.71l28.291,28.29c1.888,1.889,2.928,4.398,2.928,7.068s-1.04,5.181-2.928,7.069
			l-13.951,13.95L20.425,400.486c-0.005,0.004-0.009,0.009-0.014,0.013c-1.026,0.907-1.966,1.786-2.866,2.685
			c-23.394,23.394-23.394,61.459,0,84.853c11.315,11.314,26.382,17.546,42.426,17.546c16.043,0,31.111-6.231,42.424-17.544
			c0.915-0.914,1.816-1.877,2.755-2.943c0.002-0.002,0.004-0.005,0.006-0.008c0.005-0.005,0.01-0.01,0.014-0.015l107.151-122.41
			l13.906-13.907c3.898-3.898,10.24-3.897,14.139,0.001l28.287,28.276c9.443,9.45,21.999,14.654,35.353,14.654
			s25.91-5.204,35.349-14.649l14.153-14.142l113.129-113.13C470.542,245.861,470.542,239.529,466.638,235.623z M90.123,471.899
			L90.123,471.899c-0.649,0.735-1.259,1.388-1.867,1.995c-7.538,7.538-17.582,11.688-28.284,11.688s-20.746-4.15-28.283-11.688
			c-15.596-15.596-15.596-40.972-0.002-56.565c0.621-0.62,1.282-1.238,2.021-1.89c0.01-0.009,0.019-0.019,0.029-0.028
			c0.011-0.01,0.022-0.017,0.033-0.027l114.3-102.365l43.261,43.261L90.123,471.899z M325.214,362.897
			c-5.665,5.669-13.197,8.791-21.207,8.791c-8.01,0-15.541-3.122-21.21-8.795l-28.289-28.279c-11.695-11.695-30.726-11.694-42.422,0
			l-7.069,7.069l-42.427-42.427l7.068-7.068c5.666-5.667,8.786-13.2,8.786-21.212c0-8.012-3.121-15.545-8.786-21.211l-28.29-28.29
			c-11.694-11.693-11.693-30.728-0.003-42.425l7.079-7.074l183.848,183.848L325.214,362.897z M346.438,341.684L162.589,157.835
			l98.987-98.987l21.217,21.217l-49.497,49.489c-3.906,3.904-3.906,10.236-0.001,14.142c1.953,1.953,4.512,2.93,7.072,2.93
			c2.559,0,5.118-0.977,7.07-2.929l49.499-49.49l28.288,28.288l-49.498,49.489c-3.906,3.904-3.906,10.236-0.001,14.142
			c1.953,1.953,4.512,2.93,7.072,2.93c2.559,0,5.118-0.977,7.07-2.929l49.499-49.49l28.278,28.278l-49.497,49.489
			c-3.906,3.904-3.906,10.236-0.001,14.142c1.953,1.953,4.512,2.93,7.072,2.93c2.559,0,5.118-0.977,7.07-2.929l49.498-49.49
			l28.288,28.288l-49.497,49.489c-3.906,3.904-3.906,10.236-0.001,14.142c1.953,1.953,4.512,2.93,7.072,2.93
			c2.559,0,5.118-0.977,7.07-2.929l49.499-49.49l21.209,21.209L346.438,341.684z"/>
	</g>
</g>
<g>
	<g>
		<path d="M381.788,37.634c-3.905-3.904-10.237-3.904-14.143,0l-28.28,28.28c-3.905,3.905-3.905,10.237,0,14.143
			c1.954,1.952,4.513,2.929,7.072,2.929c2.559,0,5.119-0.977,7.071-2.929l28.28-28.28C385.693,47.872,385.693,41.54,381.788,37.634z
			"/>
	</g>
</g>
<g>
	<g>
		<path d="M325.218,9.343c-3.905-3.903-10.237-3.904-14.142,0l-14.14,14.14c-3.905,3.905-3.906,10.237,0,14.143
			c1.953,1.953,4.512,2.929,7.071,2.929c2.559,0,5.119-0.977,7.071-2.929l14.14-14.14C329.123,19.581,329.124,13.249,325.218,9.343z
			"/>
	</g>
</g>
<g>
	<g>
		<path d="M452.498,51.774c-3.905-3.904-10.237-3.904-14.143,0l-56.57,56.57c-3.904,3.905-3.904,10.238,0.001,14.143
			c1.953,1.952,4.512,2.929,7.071,2.929s5.119-0.977,7.071-2.929l56.57-56.57C456.403,62.012,456.403,55.68,452.498,51.774z"/>
	</g>
</g>
<g>
	<g>
		<path d="M480.789,108.345c-3.905-3.907-10.236-3.906-14.142-0.002l-42.43,42.42c-3.906,3.905-3.906,10.236-0.001,14.143
			c1.953,1.953,4.512,2.93,7.072,2.93c2.559,0,5.118-0.977,7.07-2.928l42.43-42.42C484.693,118.583,484.693,112.252,480.789,108.345
			z"/>
	</g>
</g>
<g>
	<g>
		<path d="M494.928,179.054c-3.905-3.904-10.237-3.904-14.142,0l-14.14,14.14c-3.905,3.905-3.905,10.237,0,14.143
			c1.953,1.952,4.512,2.929,7.071,2.929s5.119-0.977,7.071-2.929l14.14-14.14C498.833,189.292,498.833,182.96,494.928,179.054z"/>
	</g>
</g>
<g>
</g>
<g>
</g>
<g>
</g>
<g>
</g>
<g>
</g>
<g>
</g>
<g>
</g>
<g>
</g>
<g>
</g>
<g>
</g>
<g>
</g>
<g>
</g>
<g>
</g>
<g>
</g>
<g>
</g>
</svg>
