<?xml version="1.0" encoding="iso-8859-1"?>
<!-- Generator: Adobe Illustrator 19.0.0, SVG Export Plug-In . SVG Version: 6.00 Build 0)  -->
<svg  version="1.1" id="Layer_1" xmlns="http://www.w3.org/2000/svg" xmlns:xlink="http://www.w3.org/1999/xlink" x="0px" y="0px"
	 viewBox="0 0 512 512" style="enable-background:new 0 0 512 512;" xml:space="preserve">
<g>
	<g>
		<g>
			<path d="M375.396,369.964c-4.143,0-7.5,3.357-7.5,7.5s3.357,7.5,7.5,7.5h1.941c4.143,0,7.5-3.357,7.5-7.5s-3.357-7.5-7.5-7.5
				H375.396z"/>
			<path d="M350.158,263.98h14.561c4.143,0,7.5-3.357,7.5-7.5s-3.357-7.5-7.5-7.5h-14.561c-4.143,0-7.5,3.357-7.5,7.5
				S346.016,263.98,350.158,263.98z"/>
			<path d="M350.158,235.175h29.121c4.143,0,7.5-3.357,7.5-7.5s-3.357-7.5-7.5-7.5h-29.121c-4.143,0-7.5,3.357-7.5,7.5
				S346.016,235.175,350.158,235.175z"/>
			<path d="M350.158,292.786h29.121c4.143,0,7.5-3.357,7.5-7.5s-3.357-7.5-7.5-7.5h-29.121c-4.143,0-7.5,3.357-7.5,7.5
				S346.016,292.786,350.158,292.786z"/>
			<path d="M405.488,181.768h-29.121c-4.143,0-7.5,3.357-7.5,7.5s3.357,7.5,7.5,7.5h21.621v144.391h-91.777V196.768h22.106
				c4.143,0,7.5-3.357,7.5-7.5s-3.357-7.5-7.5-7.5h-29.606c-4.143,0-7.5,3.357-7.5,7.5v231.404c0,4.143,3.357,7.5,7.5,7.5h22.943
				c3.068,8.394,11.136,14.403,20.58,14.403h19.73c12.077,0,21.902-9.825,21.902-21.902c0-12.077-9.825-21.903-21.902-21.903h-19.73
				c-9.443,0-17.51,6.007-20.579,14.402h-15.444v-57.014h91.777v57.014h-2.207c-4.143,0-7.5,3.357-7.5,7.5s3.357,7.5,7.5,7.5h9.707
				c4.143,0,7.5-3.357,7.5-7.5V189.268C412.988,185.125,409.631,181.768,405.488,181.768z M342.234,413.77h19.73
				c3.805,0,6.902,3.096,6.902,6.903c0,3.805-3.096,6.902-6.902,6.902h-19.73c-3.805,0-6.902-3.096-6.902-6.902
				C335.332,416.866,338.429,413.77,342.234,413.77z"/>
			<path d="M201.641,164.632c-4.142,0-7.5,3.357-7.5,7.5s3.358,7.5,7.5,7.5h46.594c4.142,0,7.5-3.357,7.5-7.5s-3.358-7.5-7.5-7.5
				H201.641z"/>
			<path d="M230.762,251.049c-4.142,0-7.5,3.357-7.5,7.5s3.358,7.5,7.5,7.5h1.941c4.142,0,7.5-3.357,7.5-7.5s-3.358-7.5-7.5-7.5
				H230.762z"/>
			<path d="M201.641,251.049c-4.142,0-7.5,3.357-7.5,7.5s3.358,7.5,7.5,7.5h1.941c4.142,0,7.5-3.357,7.5-7.5s-3.358-7.5-7.5-7.5
				H201.641z"/>
			<path d="M254.021,229.743c0-4.143-3.358-7.5-7.5-7.5H201.64c-4.142,0-7.5,3.357-7.5,7.5s3.358,7.5,7.5,7.5h44.881
				C250.664,237.243,254.021,233.886,254.021,229.743z"/>
			<path d="M201.641,208.438h9.707c4.142,0,7.5-3.357,7.5-7.5s-3.358-7.5-7.5-7.5h-9.707c-4.142,0-7.5,3.357-7.5,7.5
				S197.499,208.438,201.641,208.438z"/>
			<path d="M201.641,122.021h106.777c4.143,0,7.5-3.357,7.5-7.5s-3.357-7.5-7.5-7.5H201.641c-4.142,0-7.5,3.357-7.5,7.5
				S197.499,122.021,201.641,122.021z"/>
			<path d="M351.008,196.768h1.941c4.143,0,7.5-3.357,7.5-7.5s-3.357-7.5-7.5-7.5h-1.941c-4.143,0-7.5,3.357-7.5,7.5
				C343.508,193.41,346.865,196.768,351.008,196.768z"/>
			<path d="M351.129,369.964c-4.143,0-7.5,3.357-7.5,7.5s3.357,7.5,7.5,7.5h1.941c4.143,0,7.5-3.357,7.5-7.5s-3.357-7.5-7.5-7.5
				H351.129z"/>
			<path d="M201.641,150.826h49.282c4.142,0,7.5-3.357,7.5-7.5s-3.357-7.5-7.5-7.5h-49.282c-4.142,0-7.5,3.357-7.5,7.5
				S197.499,150.826,201.641,150.826z"/>
			<path d="M63.801,122.021h1.941c4.142,0,7.5-3.357,7.5-7.5s-3.358-7.5-7.5-7.5h-1.941c-4.142,0-7.5,3.357-7.5,7.5
				S59.659,122.021,63.801,122.021z"/>
			<path d="M94.863,208.438h19.414c4.142,0,7.5-3.357,7.5-7.5s-3.358-7.5-7.5-7.5H94.863c-4.142,0-7.5,3.357-7.5,7.5
				S90.721,208.438,94.863,208.438z"/>
			<path d="M63.801,150.826h1.941c4.142,0,7.5-3.357,7.5-7.5s-3.358-7.5-7.5-7.5h-1.941c-4.142,0-7.5,3.357-7.5,7.5
				S59.659,150.826,63.801,150.826z"/>
			<path d="M63.801,208.438h1.941c4.142,0,7.5-3.357,7.5-7.5s-3.358-7.5-7.5-7.5h-1.941c-4.142,0-7.5,3.357-7.5,7.5
				S59.659,208.438,63.801,208.438z"/>
			<path d="M63.801,179.632h1.941c4.142,0,7.5-3.357,7.5-7.5s-3.358-7.5-7.5-7.5h-1.941c-4.142,0-7.5,3.357-7.5,7.5
				S59.659,179.632,63.801,179.632z"/>
			<path d="M504.5,312.352h-21.621V70.204c0-14.725-12.073-26.704-26.914-26.704H56.035c-14.84,0-26.914,11.979-26.914,26.704
				v242.149H7.5c-4.142,0-7.5,3.357-7.5,7.5c0,25.313,20.783,45.908,46.328,45.906H240.47c4.142,0,7.5-3.357,7.5-7.5
				s-3.358-7.5-7.5-7.5H46.329c-14.654,0-26.99-9.977-30.396-23.408h182.994c3.974,5.792,10.67,9.603,18.245,9.603h23.297
				c4.142,0,7.5-3.357,7.5-7.5s-3.358-7.5-7.5-7.5h-23.297c-3.894,0-7.061-3.096-7.061-6.903c0-3.805,3.168-6.902,7.061-6.902h23.54
				c4.142,0,7.5-3.357,7.5-7.5s-3.358-7.5-7.5-7.5h-23.54c-11.244,0-20.55,8.395-21.894,19.203h-24.965V91.442h297.565v220.911
				h-4.148c-4.143,0-7.5,3.357-7.5,7.5s3.357,7.5,7.5,7.5h32.338c-3.407,13.43-15.743,23.408-30.396,23.408h-3.397
				c-4.143,0-7.5,3.357-7.5,7.5s3.357,7.5,7.5,7.5h3.397c25.545,0,46.328-20.595,46.328-45.908
				C512,315.71,508.643,312.353,504.5,312.352z M155.312,312.352H44.121V91.442h111.191V312.352z M467.879,76.442H44.121v-6.238
				c0-6.454,5.345-11.704,11.914-11.704h399.93c6.569,0,11.914,5.25,11.914,11.704V76.442z"/>
			<path d="M94.863,179.632h38.828c4.142,0,7.5-3.357,7.5-7.5s-3.358-7.5-7.5-7.5H94.863c-4.142,0-7.5,3.357-7.5,7.5
				S90.721,179.632,94.863,179.632z"/>
			<path d="M327.832,248.98h-1.941c-4.143,0-7.5,3.357-7.5,7.5s3.357,7.5,7.5,7.5h1.941c4.143,0,7.5-3.357,7.5-7.5
				S331.975,248.98,327.832,248.98z"/>
			<path d="M327.832,277.786h-1.941c-4.143,0-7.5,3.357-7.5,7.5s3.357,7.5,7.5,7.5h1.941c4.143,0,7.5-3.357,7.5-7.5
				S331.975,277.786,327.832,277.786z"/>
			<path d="M326.861,369.964c-4.143,0-7.5,3.357-7.5,7.5s3.357,7.5,7.5,7.5h1.941c4.143,0,7.5-3.357,7.5-7.5s-3.357-7.5-7.5-7.5
				H326.861z"/>
			<path d="M327.832,220.175h-1.941c-4.143,0-7.5,3.357-7.5,7.5s3.357,7.5,7.5,7.5h1.941c4.143,0,7.5-3.357,7.5-7.5
				S331.975,220.175,327.832,220.175z"/>
			<path d="M94.863,150.826h19.414c4.142,0,7.5-3.357,7.5-7.5s-3.358-7.5-7.5-7.5H94.863c-4.142,0-7.5,3.357-7.5,7.5
				S90.721,150.826,94.863,150.826z"/>
			<path d="M94.863,122.021h38.828c4.142,0,7.5-3.357,7.5-7.5s-3.358-7.5-7.5-7.5H94.863c-4.142,0-7.5,3.357-7.5,7.5
				S90.721,122.021,94.863,122.021z"/>
			<path d="M424.61,154.754H279.59c-9.649,0-17.5,7.851-17.5,17.5v78.8c-0.088-0.003-0.177-0.005-0.266-0.005h-1.941
				c-4.142,0-7.5,3.357-7.5,7.5s3.358,7.5,7.5,7.5h1.941c0.089,0,0.178-0.002,0.266-0.005V451c0,9.649,7.851,17.5,17.5,17.5h145.019
				c9.649,0,17.5-7.851,17.5-17.5V172.254C442.109,162.604,434.259,154.754,424.61,154.754z M427.11,451c0,1.379-1.121,2.5-2.5,2.5
				H279.59c-1.379,0-2.5-1.121-2.5-2.5V172.254c0-1.379,1.121-2.5,2.5-2.5h145.019c1.379,0,2.5,1.121,2.5,2.5h0.001V451z"/>
		</g>
	</g>
</g>
<g>
</g>
<g>
</g>
<g>
</g>
<g>
</g>
<g>
</g>
<g>
</g>
<g>
</g>
<g>
</g>
<g>
</g>
<g>
</g>
<g>
</g>
<g>
</g>
<g>
</g>
<g>
</g>
<g>
</g>
</svg>
