<?xml version="1.0" encoding="iso-8859-1"?>
<!-- Generator: Adobe Illustrator 19.0.0, SVG Export Plug-In . SVG Version: 6.00 Build 0)  -->
<svg  version="1.1" id="Capa_1" xmlns="http://www.w3.org/2000/svg" xmlns:xlink="http://www.w3.org/1999/xlink" x="0px" y="0px"
	 viewBox="0 0 511.998 511.998" style="enable-background:new 0 0 511.998 511.998;" xml:space="preserve">
<g>
	<g>
		<path d="M361.927,95.384h-14.483c-2.207-4.476-6.805-7.569-12.124-7.569h-22.089c-5.319,0-9.917,3.094-12.125,7.569h-21.937
			c-1.144-2.319-2.928-4.259-5.127-5.596V67.596c0-4.143-3.358-7.5-7.5-7.5c-4.142,0-7.5,3.357-7.5,7.5v20.219h-6.085V18.044
			c0-1.649,1.393-3.043,3.042-3.043s3.042,1.394,3.042,3.043v15.803c0,4.143,3.358,7.5,7.5,7.5c4.142,0,7.5-3.357,7.5-7.5V18.043
			C274.042,8.094,265.95,0,256,0c-9.949,0-18.042,8.094-18.042,18.043v71.744c-2.199,1.337-3.983,3.277-5.127,5.596h-21.937
			c-2.207-4.476-6.806-7.569-12.125-7.569H176.68c-5.319,0-9.917,3.094-12.124,7.569h-14.483c-9.949,0-18.042,8.094-18.042,18.043
			c0,9.948,8.094,18.042,18.042,18.042h13.083v266.169c0,7.279,3.725,13.865,9.964,17.615c6.239,3.751,13.803,3.95,20.23,0.535
			l44.607-23.698v101.867c0,9.948,8.094,18.042,18.042,18.042s18.042-8.094,18.042-18.042V392.089l44.606,23.697
			c3.049,1.62,6.354,2.427,9.651,2.427c3.654,0,7.3-0.99,10.579-2.962c6.239-3.75,9.964-10.336,9.964-17.615V131.469h13.083
			c9.949,0,18.042-8.094,18.042-18.042C379.969,103.478,371.875,95.384,361.927,95.384z M163.158,116.469h-13.083
			c-1.649,0-3.042-1.393-3.042-3.042s1.393-3.043,3.042-3.043h13.083V116.469z M280.57,110.384h19.137v6.085H280.57V110.384z
			 M212.294,110.384h19.137v6.085h-19.137V110.384z M259.044,493.958c0,1.649-1.393,3.042-3.042,3.042s-3.042-1.393-3.042-3.042
			V384.122l3.042-1.616l3.042,1.616V493.958z M333.844,397.637c0,2.836-1.882,4.273-2.692,4.759
			c-0.81,0.487-2.962,1.475-5.465,0.146l-62.189-33.038v-30.908c0-4.143-3.358-7.5-7.5-7.5c-4.142,0-7.5,3.357-7.5,7.5v30.912
			l-62.183,33.035c-2.503,1.329-4.655,0.342-5.465-0.146c-0.81-0.486-2.692-1.924-2.692-4.759V102.814h19.137v31.992
			c0,4.143,3.358,7.5,7.5,7.5h34.137c4.142,0,7.5-3.357,7.5-7.5v-31.992h2.066v202.531c0,4.143,3.358,7.5,7.5,7.5
			c4.142,0,7.5-3.357,7.5-7.5V102.814h2.072v31.992c0,4.143,3.358,7.5,7.5,7.5h34.137c4.142,0,7.5-3.357,7.5-7.5v-31.992h19.137
			V397.637z M361.927,116.469h-13.083v-6.085h13.083c1.649,0,3.042,1.394,3.042,3.043S363.576,116.469,361.927,116.469z"/>
	</g>
</g>
<g>
</g>
<g>
</g>
<g>
</g>
<g>
</g>
<g>
</g>
<g>
</g>
<g>
</g>
<g>
</g>
<g>
</g>
<g>
</g>
<g>
</g>
<g>
</g>
<g>
</g>
<g>
</g>
<g>
</g>
</svg>
