<svg  height="496pt" viewBox="-64 0 496 496" width="496pt" xmlns="http://www.w3.org/2000/svg"><path d="m152 200c0 4.417969-3.582031 8-8 8s-8-3.582031-8-8 3.582031-8 8-8 8 3.582031 8 8zm0 0"/><path d="m232 200c0 4.417969-3.582031 8-8 8s-8-3.582031-8-8 3.582031-8 8-8 8 3.582031 8 8zm0 0"/><path d="m184 264c-8.824219 0-16-7.175781-16-16h-16c0 17.648438 14.351562 32 32 32s32-14.351562 32-32h-16c0 8.824219-7.175781 16-16 16zm0 0"/><path d="m368 48v-32c0-8.824219-7.175781-16-16-16h-336c-8.824219 0-16 7.175781-16 16v32c0 8.824219 7.175781 16 16 16h32v61.769531l5.472656 1.824219c.597656.199219 5.4375 1.765625 13.976563 3.855469-2.28125 9.292969-3.449219 18.863281-3.449219 28.550781v48c0 7.175781-2.488281 10.28125-6.238281 14.976562-4.355469 5.429688-9.761719 12.183594-9.761719 24.984376 0 12.800781 5.40625 19.566406 9.761719 25 3.757812 4.695312 6.238281 7.808593 6.238281 14.992187 0 7.199219-2.625 10.488281-6.246094 15.023437-4.347656 5.429688-9.753906 12.191407-9.753906 25 0 3.3125.367188 6.351563 1.089844 9.222657-19.792969 8.9375-33.089844 28.847656-33.089844 51v107.800781h336v-107.800781c0-22.152344-13.289062-42.0625-33.078125-50.992188.71875-2.871093 1.078125-5.917969 1.078125-9.230469 0-12.808593-5.40625-19.570312-9.753906-25-3.621094-4.535156-6.246094-7.816406-6.246094-15.023437 0-7.183594 2.488281-10.296875 6.238281-14.992187 4.355469-5.433594 9.761719-12.191407 9.761719-25 0-12.808594-5.40625-19.554688-9.761719-24.984376-3.75-4.695312-6.238281-7.800781-6.238281-14.976562v-48c0-9.6875-1.167969-19.257812-3.449219-28.558594 8.539063-2.082031 13.378907-3.65625 13.976563-3.855468l5.472656-1.816407v-61.769531h16v82.0625c-4.742188 2.546875-8.214844 7.226562-8.929688 12.882812l-6.886718 55.117188c-.121094.953125-.183594 1.914062-.183594 2.875 0 12.71875 10.34375 23.0625 23.0625 23.0625h1.875c12.71875 0 23.0625-10.34375 23.0625-23.0625 0-.960938-.0625-1.921875-.175781-2.859375l-6.886719-55.140625c-.714844-5.648438-4.183594-10.328125-8.929688-12.875v-82.0625c8.816407 0 15.992188-7.175781 15.992188-16zm-23.0625 176h-1.875c-3.894531 0-7.0625-3.167969-7.0625-7.0625 0-.289062.015625-.578125.054688-.875l6.890624-55.125c.070313-.53125.527344-.9375 1.054688-.9375s.984375.40625 1.054688.929688l6.890624 55.148437c.039063.28125.054688.570313.054688.859375 0 3.894531-3.167969 7.0625-7.0625 7.0625zm-172.671875-80.144531c-16.960937 14.449219-37.9375 22.746093-60.265625 23.886719v-15.742188h-16v16.808594c-5.945312 1.214844-11.328125 3.855468-16 7.390625v-16.199219c0-8.535156 1.054688-16.960938 3.089844-25.144531 20.359375 3.992187 50.652344 8.257812 89.175781 9zm99.734375 41.617187c9.289062 3.3125 16 12.113282 16 22.527344s-6.710938 19.214844-16 22.527344zm-48 133.726563c-3.808594 19.007812-20.625 32.800781-40 32.800781s-36.191406-13.792969-40-32.816406v-8.902344c12.015625 6.167969 25.59375 9.71875 40 9.71875s27.984375-3.550781 40-9.710938zm-40-15.199219c-39.703125 0-72-32.296875-72-72v-48.230469c26.761719-1.175781 51.929688-11.175781 72-28.808593 20.070312 17.625 45.238281 27.625 72 28.808593v48.230469c0 39.703125-32.296875 72-72 72zm-104-96c0-10.414062 6.710938-19.214844 16-22.527344v45.046875c-9.289062-3.304687-16-12.105469-16-22.519531zm-9.753906 104.96875c4.347656-5.441406 9.753906-12.199219 9.753906-25.015625 0-12.808594-5.40625-19.5625-9.753906-24.992187-3.757813-4.703126-6.246094-7.800782-6.246094-15 0-7.183594 2.488281-10.289063 6.238281-14.984376.449219-.5625.90625-1.136718 1.371094-1.730468 6.023437 8.320312 15.152344 14.226562 25.816406 16.058594 3.703125 20.992187 14.789063 39.464843 30.574219 52.519531v14.144531l-63.617188 18.167969c-.214843-1.207031-.382812-2.527344-.382812-4.160157 0-7.191406 2.488281-10.304687 6.246094-15.007812zm33.753906 167.03125h-72v-48h32v16h-16v16h72c10.433594 0 19.328125 6.6875 22.632812 16zm72 0h-16.808594c-3.71875-18.230469-19.871094-32-39.191406-32h-8v-64h40c13.230469 0 24 10.769531 24 24zm16 0v-72c0-13.230469 10.769531-24 24-24h40v64h-8c-19.3125 0-35.472656 13.769531-39.191406 32zm72 0h-38.632812c3.304687-9.3125 12.199218-16 22.632812-16h72v-16h-16v-16h32v48zm72-91.800781v27.800781h-32v-16h-16v48h-16v-80h-56c-13.128906 0-24.703125 6.449219-32 16.246094-7.296875-9.796875-18.871094-16.246094-32-16.246094h-56v80h-16v-48h-16v16h-32v-27.800781c0-17.765625 11.929688-33.574219 29.007812-38.457031l69.519532-19.863282c7.863281 22.457032 29.152344 38.121094 53.472656 38.121094 24.128906 0 45.3125-15.414062 53.433594-38.128906l69.558594 19.882812c17.078124 4.871094 29.007812 20.6875 29.007812 38.445313zm-38.238281-155.222657c3.757812 4.695313 6.238281 7.800782 6.238281 14.984376 0 7.191406-2.488281 10.296874-6.246094 15-4.347656 5.429687-9.753906 12.191406-9.753906 24.992187 0 12.816406 5.40625 19.574219 9.753906 25.015625 3.757813 4.703125 6.246094 7.816406 6.246094 15.007812 0 1.625-.167969 2.953126-.390625 4.160157l-63.609375-18.167969v-14.144531c15.777344-13.046875 26.863281-31.511719 30.574219-52.496094 10.609375-1.769531 19.785156-7.679687 25.832031-16.070313.449219.589844.90625 1.167969 1.355469 1.71875zm-9.761719-72.976562v16.207031c-4.671875-3.535156-10.054688-6.183593-16-7.390625v-16.816406h-16v15.742188c-22.328125-1.132813-43.304688-9.429688-60.265625-23.886719 38.523437-.742188 68.816406-5.007813 89.175781-9 2.035156 8.183593 3.089844 16.609375 3.089844 25.144531zm-208.34375-112v16h224.34375v50.007812c-14.585938 3.976563-57.527344 13.992188-120 13.992188s-105.414062-10.015625-120-13.992188v-66.007812h-48v-32h336v32zm0 0"/><path d="m128 400h32v16h-32zm0 0"/><path d="m208 400h32v16h-32zm0 0"/><path d="m208 432h16v16h-16zm0 0"/><path d="m144 432h16v16h-16zm0 0"/></svg>