<?xml version="1.0" encoding="iso-8859-1"?>
<!-- Generator: Adobe Illustrator 19.0.0, SVG Export Plug-In . SVG Version: 6.00 Build 0)  -->
<svg  version="1.1" id="Capa_1" xmlns="http://www.w3.org/2000/svg" xmlns:xlink="http://www.w3.org/1999/xlink" x="0px" y="0px"
	 viewBox="0 0 511.999 511.999" style="enable-background:new 0 0 511.999 511.999;" xml:space="preserve">
<g>
	<g>
		<path d="M511.939,330.321c-0.638-11.442-6.281-21.921-15.485-28.749c-14.891-11.05-35.555-9.898-49.128,2.742l-82.559,76.887
			c0.503-16.916-10.616-31.846-27.269-36.071L236.67,319.539c-17.682-4.489-36.196-3.883-53.548,1.751l-69.703,22.63v-20.057
			c0-5.522-4.478-9.999-9.999-9.999H9.999c-5.522,0-9.999,4.478-9.999,9.999V501.98c0,5.522,4.478,9.999,9.999,9.999h93.422
			c5.522,0,9.999-4.478,9.999-9.999V364.947l75.878-24.635c13.757-4.468,28.437-4.946,42.453-1.39l100.829,25.591
			c7.831,1.988,12.933,9.266,12.13,17.308c-0.83,8.314-7.758,14.585-16.114,14.585h-70.282c-5.522,0-9.999,4.478-9.999,9.999
			c0,5.522,4.478,9.999,9.999,9.999h21.542c0.376,0.043,0.757,0.07,1.145,0.07h49.589c16.54,0,32.315-6.209,44.421-17.481
			l85.947-80.044c6.515-6.068,16.434-6.62,23.584-1.316c4.418,3.277,7.126,8.307,7.432,13.8c0.307,5.493-1.828,10.792-5.854,14.541
			L367.72,456.194c-8.167,7.602-18.811,11.789-29.968,11.789H182.796c-5.522,0-9.999,4.478-9.999,9.999
			c0,5.522,4.478,9.999,9.999,9.999h154.958c16.23,0,31.712-6.091,43.594-17.15l118.397-110.22
			C508.132,352.803,512.577,341.763,511.939,330.321z M93.422,491.981H19.998V333.863h73.423V491.981z"/>
	</g>
</g>
<g>
	<g>
		<path d="M149.518,470.913c-1.87-1.861-4.44-2.93-7.069-2.93c-2.641,0-5.21,1.069-7.079,2.93c-1.86,1.86-2.93,4.44-2.93,7.069
			s1.069,5.21,2.93,7.068c1.87,1.86,4.439,2.931,7.079,2.931c2.63,0,5.2-1.07,7.069-2.931c1.859-1.859,2.93-4.439,2.93-7.068
			S151.378,472.773,149.518,470.913z"/>
	</g>
</g>
<g>
	<g>
		<path d="M63.776,460.584c-1.851-1.86-4.431-2.93-7.06-2.93c-2.64,0-5.22,1.06-7.079,2.93c-1.859,1.86-2.92,4.431-2.92,7.069
			c0,2.63,1.061,5.21,2.92,7.069c1.87,1.859,4.44,2.93,7.079,2.93c2.63,0,5.2-1.07,7.06-2.93c1.869-1.86,2.939-4.44,2.939-7.069
			C66.715,465.013,65.645,462.444,63.776,460.584z"/>
	</g>
</g>
<g>
	<g>
		<path d="M255.98,0.02c-49.622,0-89.993,40.371-89.993,89.993c0,16.541,13.457,29.998,29.998,29.998s29.998-13.457,29.998-29.998
			s13.457-29.998,29.998-29.998c16.541,0,29.998,13.457,29.998,29.998s-13.457,29.998-29.998,29.998
			c-16.541,0-29.998,13.457-29.998,29.998v42.997c0,16.541,13.457,29.998,29.998,29.998c16.541,0,29.998-13.457,29.998-29.998
			V174.87c35.69-12.598,59.995-46.446,59.995-84.857C345.973,40.39,305.602,0.02,255.98,0.02z M273.478,157.794
			c-4.415,1.14-7.498,5.123-7.498,9.681v25.529c0,5.514-4.486,9.999-9.999,9.999c-5.514,0-9.999-4.486-9.999-9.999v-42.997
			c0-5.514,4.486-9.999,9.999-9.999c27.568,0,49.996-22.428,49.996-49.996c0-27.568-22.428-49.996-49.996-49.996
			c-27.568,0-49.996,22.428-49.996,49.996c0,5.514-4.486,9.999-9.999,9.999c-5.514,0-9.999-4.486-9.999-9.999
			c0-38.595,31.399-69.995,69.995-69.995c38.596,0,69.995,31.4,69.995,69.995C325.975,121.937,304.387,149.81,273.478,157.794z"/>
	</g>
</g>
<g>
	<g>
		<path d="M277.199,254.926c-5.576-5.592-13.31-8.798-21.219-8.798c-7.908,0-15.643,3.207-21.2,8.779
			c-5.591,5.576-8.797,13.31-8.797,21.218s3.207,15.643,8.787,21.209c5.586,5.586,13.316,8.788,21.21,8.788
			c7.895,0,15.626-3.204,21.209-8.788c5.586-5.586,8.788-13.316,8.788-21.209C285.978,268.232,282.775,260.501,277.199,254.926z
			 M263.046,283.194c-1.834,1.835-4.477,2.931-7.066,2.931c-2.59,0-5.234-1.096-7.078-2.94c-1.829-1.824-2.921-4.464-2.921-7.059
			c0-2.635,1.064-5.208,2.939-7.077c1.825-1.829,4.465-2.922,7.06-2.922c2.596,0,5.234,1.092,7.067,2.932
			c1.836,1.834,2.932,4.477,2.932,7.067C265.979,278.716,264.883,281.358,263.046,283.194z"/>
	</g>
</g>
<g>
	<g>
		<path d="M56.711,354.49c-5.522,0-9.999,4.478-9.999,9.999v63.497c0,5.522,4.477,9.999,9.999,9.999
			c5.522,0,9.999-4.478,9.999-9.999v-63.497C66.71,358.968,62.232,354.49,56.711,354.49z"/>
	</g>
</g>
<g>
</g>
<g>
</g>
<g>
</g>
<g>
</g>
<g>
</g>
<g>
</g>
<g>
</g>
<g>
</g>
<g>
</g>
<g>
</g>
<g>
</g>
<g>
</g>
<g>
</g>
<g>
</g>
<g>
</g>
</svg>
