<?xml version="1.0" encoding="utf-8"?><!DOCTYPE svg PUBLIC "-//W3C//DTD SVG 1.1//EN" "http://www.w3.org/Graphics/SVG/1.1/DTD/svg11.dtd"><svg xmlns="http://www.w3.org/2000/svg" xmlns:xlink="http://www.w3.org/1999/xlink"><symbol fill="currentColor" viewBox="-54 0 511 512" id="algorithm" xmlns="http://www.w3.org/2000/svg"><path d="M156.719 418.816v-11.351c0-6.914-5.625-12.535-12.535-12.535H15.543V152.379h60.664c.34 0 .672-.031.996-.074l64.473 37.761v50.989h-70.66c-7.313 0-13.266 5.953-13.266 13.27v38.445c0 7.316 5.953 13.27 13.266 13.27h70.66v9.925h-70.66c-7.313 0-13.266 5.953-13.266 13.27v38.445c0 7.316 5.953 13.27 13.266 13.27h16.843a7.52 7.52 0 0 0 7.52-7.52 7.521 7.521 0 0 0-7.52-7.524H72.793v-34.894h152.809v34.894h-91.11a7.522 7.522 0 1 0 0 15.043h92.883c7.316 0 13.27-5.953 13.27-13.27v-38.445c0-7.316-5.954-13.27-13.27-13.27h-70.656v-9.925h70.656c7.316 0 13.27-5.953 13.27-13.27v-38.445c0-7.316-5.954-13.27-13.27-13.27h-70.656v-52.113l61.23-35.863a9.567 9.567 0 0 0 4.711-8.223 9.56 9.56 0 0 0-4.71-8.218l-61.231-35.864V73.63h16.578a7.522 7.522 0 1 0 0-15.043H58.266V15.043h181.863v43.539h-19.781a7.522 7.522 0 1 0 0 15.043h20.16c8.086 0 14.664-6.574 14.664-14.66v-44.3C255.172 6.577 248.594 0 240.508 0H57.887C49.8 0 43.223 6.578 43.223 14.664v44.3c0 8.087 6.578 14.665 14.664 14.665h83.789v26.016l-64.473 37.761a7.568 7.568 0 0 0-.996-.07H13.035C6.125 137.336.5 142.957.5 149.87v247.566c0 6.91 5.625 12.536 12.535 12.536h128.64v8.843c-22.292 3.61-39.374 22.989-39.374 46.286C102.3 490.96 123.34 512 149.199 512s46.895-21.04 46.895-46.898c0-23.297-17.078-42.676-39.375-46.286zm68.883-162.718v34.898H72.793v-34.898zm-77.368-142.86l53.985 31.617-53.985 31.618-53.98-31.618zm.965 383.719c-17.566 0-31.855-14.289-31.855-31.855 0-17.563 14.289-31.852 31.855-31.852 17.563 0 31.852 14.29 31.852 31.852 0 17.566-14.29 31.855-31.852 31.855zm0 0"/><path d="M244.414 177.512H225.36c-6.914 0-12.535 5.625-12.535 12.535v18.055c0 6.91 5.621 12.535 12.535 12.535h19.055c6.914 0 12.535-5.625 12.535-12.535v-18.055c0-6.91-5.62-12.535-12.535-12.535zm-2.508 28.082h-14.039v-13.04h14.04zm0 0M275.504 228.66h34.766a7.522 7.522 0 1 0 0-15.043h-34.766a7.518 7.518 0 0 0-7.52 7.52 7.519 7.519 0 0 0 7.52 7.523zm0 0M395.852 213.617h-66.63a7.521 7.521 0 1 0 0 15.043h66.63a7.521 7.521 0 0 0 7.52-7.523 7.52 7.52 0 0 0-7.52-7.52zm0 0M275.504 203.883h14.808a7.521 7.521 0 1 0 0-15.043h-14.808a7.519 7.519 0 0 0-7.52 7.523 7.518 7.518 0 0 0 7.52 7.52zm0 0M371.465 203.883h23.7a7.52 7.52 0 0 0 7.519-7.52 7.521 7.521 0 0 0-7.52-7.523h-23.7a7.522 7.522 0 1 0 0 15.043zm0 0M308.422 203.883h44.297a7.521 7.521 0 1 0 0-15.043h-44.297a7.522 7.522 0 1 0 0 15.043zm0 0M244.414 426.852H225.36c-6.914 0-12.535 5.625-12.535 12.535v18.054c0 6.91 5.621 12.536 12.535 12.536h19.055c6.914 0 12.535-5.625 12.535-12.536v-18.054c0-6.91-5.62-12.535-12.535-12.535zm-2.508 28.082h-14.039v-13.04h14.04zm0 0M310.27 462.957h-34.766a7.518 7.518 0 0 0-7.52 7.52 7.519 7.519 0 0 0 7.52 7.523h34.766a7.522 7.522 0 1 0 0-15.043zm0 0M395.852 462.957h-66.63a7.521 7.521 0 1 0 0 15.043h66.63a7.521 7.521 0 0 0 7.52-7.523 7.52 7.52 0 0 0-7.52-7.52zm0 0M275.504 453.223h14.808a7.521 7.521 0 1 0 0-15.043h-14.808a7.519 7.519 0 0 0-7.52 7.523 7.518 7.518 0 0 0 7.52 7.52zm0 0M395.164 438.18h-23.7a7.522 7.522 0 1 0 0 15.043h23.7a7.52 7.52 0 0 0 7.52-7.52 7.521 7.521 0 0 0-7.52-7.523zm0 0M308.422 438.18a7.522 7.522 0 1 0 0 15.043h44.297a7.521 7.521 0 1 0 0-15.043zm0 0"/></symbol><symbol fill="currentColor" viewBox="0 0 465 465" id="articles" xmlns="http://www.w3.org/2000/svg"><path d="M405.437 0h-10c-4.143 0-7.5 3.358-7.5 7.5s3.357 7.5 7.5 7.5h2.5v435h-2.5c-4.143 0-7.5 3.358-7.5 7.5s3.357 7.5 7.5 7.5h10a7.5 7.5 0 0 0 7.5-7.5V7.5a7.5 7.5 0 0 0-7.5-7.5zM315.437 140H109.563c-4.143 0-7.5 3.358-7.5 7.5s3.357 7.5 7.5 7.5h205.873c4.143 0 7.5-3.358 7.5-7.5s-3.357-7.5-7.499-7.5zM315.437 260H109.563c-4.143 0-7.5 3.358-7.5 7.5s3.357 7.5 7.5 7.5h205.873c4.143 0 7.5-3.358 7.5-7.5s-3.357-7.5-7.499-7.5zM315.437 300H232.5c-4.143 0-7.5 3.358-7.5 7.5s3.357 7.5 7.5 7.5h82.937a7.5 7.5 0 0 0 0-15z"/><path d="M365.437 0H129.563c-.251 0-.501.013-.749.038a7.53 7.53 0 0 0-.545.082c-.06.011-.122.016-.182.028a7.298 7.298 0 0 0-.632.159c-.025.008-.052.012-.077.02a7.434 7.434 0 0 0-.623.223l-.066.024a7.214 7.214 0 0 0-.569.269c-.031.016-.064.029-.094.045a7.977 7.977 0 0 0-.504.301c-.042.027-.086.049-.127.077-.154.103-.3.216-.446.33-.048.038-.098.07-.145.109a7.313 7.313 0 0 0-.498.451l-.046.042-70 70c-.018.018-.033.039-.051.057a7.503 7.503 0 0 0-.44.486c-.044.054-.082.112-.125.167a7.215 7.215 0 0 0-.313.423c-.033.049-.06.101-.092.151a7.24 7.24 0 0 0-.287.48c-.02.037-.035.075-.054.112a7.733 7.733 0 0 0-.261.552c-.011.026-.019.054-.03.081-.08.2-.155.402-.218.61-.008.026-.013.053-.021.08a6.989 6.989 0 0 0-.158.63c-.012.059-.017.119-.027.178-.032.182-.064.363-.082.549a7.468 7.468 0 0 0-.038.749v380a7.5 7.5 0 0 0 7.5 7.5h305.873a7.5 7.5 0 0 0 7.5-7.5V7.5a7.499 7.499 0 0 0-7.499-7.5zM122.063 25.606V70H77.67l44.393-44.394zM357.937 450H67.063V85h62.5a7.5 7.5 0 0 0 7.5-7.5V15h220.873v435z"/><path d="M159.563 85h155.873c4.143 0 7.5-3.358 7.5-7.5s-3.357-7.5-7.5-7.5H159.563a7.5 7.5 0 0 0 0 15zM315.437 180H232.5c-4.143 0-7.5 3.358-7.5 7.5s3.357 7.5 7.5 7.5h82.937a7.5 7.5 0 0 0 0-15zM315.437 220H232.5c-4.143 0-7.5 3.358-7.5 7.5s3.357 7.5 7.5 7.5h82.937a7.5 7.5 0 0 0 0-15zM192.5 315c4.143 0 7.5-3.358 7.5-7.5s-3.357-7.5-7.5-7.5h-82.937a7.5 7.5 0 0 0-7.5 7.5v80a7.5 7.5 0 0 0 7.5 7.5H192.5a7.5 7.5 0 0 0 7.5-7.5v-50c0-4.142-3.357-7.5-7.5-7.5s-7.5 3.358-7.5 7.5V380h-67.937v-65H192.5zM109.563 235H192.5c4.143 0 7.5-3.358 7.5-7.5s-3.357-7.5-7.5-7.5h-82.937a7.5 7.5 0 0 0 0 15zM265.437 380H232.5c-4.143 0-7.5 3.358-7.5 7.5s3.357 7.5 7.5 7.5h32.937a7.5 7.5 0 0 0 0-15zM315.437 340H232.5c-4.143 0-7.5 3.358-7.5 7.5s3.357 7.5 7.5 7.5h82.937a7.5 7.5 0 0 0 0-15zM109.563 195H192.5c4.143 0 7.5-3.358 7.5-7.5s-3.357-7.5-7.5-7.5h-82.937a7.5 7.5 0 0 0 0 15z"/></symbol><symbol fill="currentColor" viewBox="0 0 469.981 469.981" id="audio" xmlns="http://www.w3.org/2000/svg"><circle cx="425.789" cy="141.268" r="7.5"/><circle cx="425.789" cy="98.841" r="7.5"/><path d="M446.337 193.837c15.297-17.693 23.644-40.035 23.644-63.66 0-26.044-10.142-50.528-28.558-68.943-18.415-18.415-42.899-28.557-68.942-28.557-23.621 0-45.959 8.343-63.649 23.634l-2.008-1.978a7.5 7.5 0 0 0-10.606.079 7.5 7.5 0 0 0 .079 10.606l1.961 1.932c-15.061 17.623-23.276 39.792-23.276 63.226 0 3.017.142 6.011.411 8.979L67.264 371.771a7.5 7.5 0 0 0 .286 10.305l21.213 21.213-4.265 4.265c-15.878 15.88-41.716 15.879-57.596.001-15.879-15.88-15.879-41.718 0-57.597l140.865-140.865c21.728-21.729 21.728-57.082 0-78.811-21.728-21.727-57.082-21.727-78.809 0L2.177 217.063l10.606 10.607 86.781-86.781c15.88-15.878 41.718-15.879 57.596 0 15.879 15.879 15.879 41.717 0 57.596L16.296 339.351c-21.728 21.728-21.728 57.081 0 78.81C27.16 429.024 41.43 434.456 55.7 434.456s28.541-5.432 39.405-16.296l4.264-4.265 21.214 21.213a7.48 7.48 0 0 0 5.304 2.196 7.477 7.477 0 0 0 5-1.911L330.38 256.9l33.12-29.634a99.5 99.5 0 0 0 8.981.411c23.429 0 45.594-8.212 63.216-23.268l1.969 1.979a7.474 7.474 0 0 0 5.315 2.209 7.474 7.474 0 0 0 5.291-2.185 7.498 7.498 0 0 0 .024-10.606l-1.959-1.969zM126.173 419.484l-21.493-21.492-21.506-21.506 165.965-185.49c6.617 13.443 15.364 25.656 26.115 36.409 10.753 10.751 22.965 19.498 36.409 26.115l-185.49 165.964zm197.667-176.86c-14.177-6.118-26.939-14.786-37.98-25.826-11.041-11.042-19.709-23.804-25.827-37.98l18.878-21.099c4.534 15.484 12.9 29.674 24.627 41.402 11.727 11.727 25.916 20.092 41.4 24.626l-21.098 18.877zm48.641-29.947c-22.037-.001-42.754-8.582-58.336-24.164s-24.164-36.3-24.164-58.336c0-19.461 6.702-37.887 18.999-52.662l15.811 15.578a7.476 7.476 0 0 0 5.263 2.157 7.5 7.5 0 0 0 5.264-12.842L319.57 66.891c14.817-12.432 33.339-19.214 52.911-19.214 22.036 0 42.754 8.581 58.336 24.164 15.583 15.581 24.164 36.299 24.164 58.336 0 19.603-6.806 38.152-19.275 52.981l-79.123-79.485a7.496 7.496 0 0 0-10.606-.024 7.498 7.498 0 0 0-.024 10.606l79.121 79.483c-14.764 12.259-33.163 18.939-52.593 18.939z"/></symbol><symbol fill="currentColor" viewBox="0 0 512 512" id="blog" xmlns="http://www.w3.org/2000/svg"><path d="M501.801 47.923H10.199C4.566 47.923 0 52.489 0 58.122v322.581c0 5.633 4.566 10.199 10.199 10.199h179.845v52.775h-36.179c-5.633 0-10.199 4.566-10.199 10.199s4.566 10.199 10.199 10.199h204.27v.001c5.633 0 10.199-4.566 10.199-10.199s-4.566-10.199-10.199-10.199h-36.179v-52.775h179.845c5.633 0 10.199-4.566 10.199-10.199V58.122c0-5.633-4.566-10.199-10.199-10.199zM301.558 443.679h-91.116v-52.775h91.116v52.775zm190.044-73.175H20.398V68.321h471.203v302.183z"/><path d="M238.659 92.178H55.75c-5.633 0-10.199 4.566-10.199 10.199v131.818c0 5.633 4.566 10.199 10.199 10.199h182.909c5.633 0 10.199-4.566 10.199-10.199V102.378c.001-5.633-4.566-10.2-10.199-10.2zM80.847 223.996l32.413-32.413 32.413 32.413H80.847zm147.613.001h-54.065v-.001a10.16 10.16 0 0 0-.846-.973l-17.522-17.522 39.683-39.683 32.751 32.751v25.428zm0-54.277l-25.54-25.539c-3.983-3.983-10.441-3.982-14.424 0l-46.895 46.895-21.13-21.13c-3.983-3.983-10.441-3.983-14.425 0l-40.099 40.099v-97.469H228.46v57.144z"/><path d="M465.262 110.547L446.8 92.084c-9.398-9.397-24.687-9.396-34.084 0L280.37 224.431a10.148 10.148 0 0 0-2.549 4.257l-.001.001-.002.008-.023.076-14.325 47.337H55.75c-5.633 0-10.199 4.566-10.199 10.199s4.566 10.199 10.199 10.199h215.609c1.496 0 2.913-.33 4.193-.909l53.106-16.072.001-.001a10.185 10.185 0 0 0 4.256-2.549L465.262 144.63a23.944 23.944 0 0 0 7.059-17.042c0-6.438-2.507-12.49-7.059-17.041zM286.319 271.028l6.092-20.131 14.039 14.039-20.131 6.092zm39.384-15.687l-23.698-23.698 103.538-103.538 23.698 23.698-103.538 103.538zm125.136-125.134l-7.174 7.173-23.698-23.699 7.174-7.173a3.706 3.706 0 0 1 5.236 0l18.462 18.463a3.687 3.687 0 0 1 1.084 2.618 3.678 3.678 0 0 1-1.084 2.618zM412.048 325.158H55.75c-5.633 0-10.199 4.566-10.199 10.199s4.566 10.199 10.199 10.199h356.298c5.633 0 10.199-4.566 10.199-10.199s-4.566-10.199-10.199-10.199zM457.333 325.158h-5.509c-5.633 0-10.199 4.566-10.199 10.199s4.566 10.199 10.199 10.199h5.509c5.633 0 10.199-4.566 10.199-10.199.001-5.633-4.566-10.199-10.199-10.199z"/></symbol><symbol fill="currentColor" viewBox="-56 1 511 511.999" id="cdn" xmlns="http://www.w3.org/2000/svg"><path d="M359.559 103.238c-4.168-31.273-30.98-55.14-62.98-55.14-5.044 0-10.079.613-15.032 1.832C259.027 18.563 223.097 0 184.352 0c-23.114 0-45.543 6.621-64.86 19.145A120.201 120.201 0 0 0 78.09 64.8C34.238 69.832.5 107.227.5 151.789c0 34.871 20.652 66.422 52.617 80.375 3.797 1.656 8.219-.074 9.875-3.871s-.078-8.219-3.87-9.875c-26.5-11.57-43.622-37.723-43.622-66.629 0-38.144 29.836-69.953 67.93-72.41a7.506 7.506 0 0 0 6.297-4.281 105.227 105.227 0 0 1 37.925-43.368C144.535 20.785 164.141 15 184.352 15c35.523 0 68.343 17.848 87.793 47.746a7.496 7.496 0 0 0 8.714 3.004c5.149-1.762 10.438-2.652 15.72-2.652 25.644 0 46.929 20.066 48.456 45.683a7.5 7.5 0 0 0 4.692 6.516c21.593 8.676 35.546 29.293 35.546 52.527 0 25.856-17.464 48.41-42.468 54.844a7.498 7.498 0 0 0-5.39 9.133 7.498 7.498 0 0 0 9.132 5.394c31.633-8.14 53.726-36.668 53.726-69.37 0-27.84-15.832-52.712-40.714-64.587zm0 0M136.258 456.918h-8.016a7.5 7.5 0 0 0-7.5 7.5c0 4.145 3.356 7.5 7.5 7.5h8.016a7.5 7.5 0 1 0 0-15zm0 0M160.82 464.418a7.5 7.5 0 0 0 7.5 7.5h104.211a7.5 7.5 0 1 0 0-15h-104.21c-4.141 0-7.5 3.36-7.5 7.5zm0 0M128.242 344.691a7.5 7.5 0 0 0-7.5 7.5c0 4.145 3.356 7.5 7.5 7.5h8.016a7.5 7.5 0 1 0 0-15zm0 0M272.531 359.691a7.5 7.5 0 1 0 0-15h-104.21a7.5 7.5 0 1 0 0 15zm0 0"/><path d="M296.578 192.387H104.191c-12.976 0-23.53 10.558-23.53 23.531v48.098c0 12.976 10.558 23.53 23.53 23.53h88.696v17.067h-8.535a7.5 7.5 0 1 0 0 15h112.226c4.707 0 8.535 3.828 8.535 8.532v48.097c0 4.703-3.828 8.531-8.535 8.531H104.191c-4.703 0-8.53-3.828-8.53-8.53v-48.098c0-4.704 3.827-8.532 8.53-8.532h48.098a7.5 7.5 0 0 0 7.5-7.5c0-4.144-3.355-7.5-7.5-7.5h-48.098c-12.976 0-23.53 10.555-23.53 23.532v48.097c0 12.977 10.558 23.531 23.53 23.531h88.696v17.067H104.19c-12.976 0-23.53 10.555-23.53 23.531v48.098C80.66 501.44 91.218 512 104.19 512h192.387c12.977 0 23.535-10.559 23.535-23.531V440.37c0-12.976-10.558-23.531-23.535-23.531h-88.691v-17.067h88.691c12.977 0 23.531-10.554 23.531-23.53v-48.098c0-12.977-10.554-23.532-23.53-23.532h-88.692v-17.066h88.691c12.977 0 23.531-10.555 23.531-23.531v-48.098c.004-12.973-10.554-23.531-23.53-23.531zm8.535 247.984v48.098c0 4.703-3.828 8.531-8.535 8.531H104.191c-4.703 0-8.53-3.828-8.53-8.531V440.37c0-4.707 3.827-8.531 8.53-8.531h192.387c4.707 0 8.535 3.824 8.535 8.531zm0-176.355c0 4.707-3.828 8.53-8.535 8.53H104.191c-4.703 0-8.53-3.827-8.53-8.53v-48.098c0-4.703 3.827-8.531 8.53-8.531h192.387c4.707 0 8.535 3.828 8.535 8.531zm0 0"/><path d="M136.258 232.469h-8.016a7.497 7.497 0 0 0-7.5 7.5 7.5 7.5 0 0 0 7.5 7.5h8.016a7.5 7.5 0 1 0 0-15zm0 0M272.531 232.469h-104.21a7.5 7.5 0 1 0 0 15h104.21a7.5 7.5 0 1 0 0-15zm0 0M192.844 159.766c0 4.144 3.398 7.543 7.543 7.543 4.14 0 7.539-3.399 7.539-7.543 0-4.141-3.399-7.54-7.54-7.54-4.144 0-7.542 3.399-7.542 7.54zm0 0M223.059 144.555a7.504 7.504 0 0 0 5.305-12.805c-15.43-15.426-40.528-15.426-55.954 0a7.497 7.497 0 0 0 0 10.605 7.497 7.497 0 0 0 10.606 0c9.578-9.578 25.16-9.578 34.738 0a7.477 7.477 0 0 0 5.305 2.2zm0 0"/><path d="M245.73 121.879a7.497 7.497 0 0 0 5.305-12.8c-27.93-27.93-73.37-27.93-101.3 0a7.497 7.497 0 0 0 0 10.605 7.497 7.497 0 0 0 10.605 0c22.082-22.079 58.008-22.079 80.086 0a7.48 7.48 0 0 0 5.304 2.195zm0 0"/></symbol><symbol fill="currentColor" viewBox="0 0 512 512" id="clock" xmlns="http://www.w3.org/2000/svg"><g fill-rule="evenodd" clip-rule="evenodd"><path d="M502 56.001h-51.597v-6.083c0-19.288-15.692-34.979-34.979-34.979s-34.979 15.692-34.979 34.979v6.083h-41.027v-6.083c0-19.288-15.692-34.979-34.98-34.979-19.287 0-34.978 15.692-34.978 34.979v6.083h-41.027v-6.083c0-19.288-15.692-34.979-34.98-34.979-19.288 0-34.979 15.692-34.979 34.979v6.083h-51.596c-5.523 0-10 4.477-10 10v181.207C41.357 260.658 0 310.765 0 370.357c0 53.341 33.721 101.278 83.911 119.286 1.116.4 2.255.589 3.376.589 4.102 0 7.948-2.543 9.413-6.626 1.865-5.198-.837-10.924-6.036-12.789C48.398 455.653 20 415.281 20 370.357c0-52.815 38.573-96.783 89.026-105.232 16.161-2.707 34.965-.861 51.18 4.014 10.542 3.17 20.333 8.306 29.148 14.876 8.811 6.567 16.796 14.384 23.486 23.105 6.69 8.722 11.853 18.48 14.97 29.036 3.39 11.48 4.417 23.459 5.16 35.355.645 10.317-1.638 20.65-4.412 30.56-2.146 7.667-5.342 14.961-9.461 21.771-4.065 6.72-8.862 13.024-14.122 18.853-5.346 5.922-11.282 11.314-17.912 15.771-6.76 4.544-14.13 7.987-21.597 11.191-.901.387-1.8.831-2.723 1.162-5.198 1.865-7.9 7.591-6.036 12.789 1.865 5.199 7.591 7.9 12.79 6.036 40.593-14.564 70.404-48.711 80.324-89.456H462c5.523 0 10-4.477 10-10s-4.477-10-10-10H253.029c.399-.011.178-14.379.123-15.631-.964-22.054-7.747-44.17-19.658-62.787-10.489-16.396-25.309-30.204-41.901-40.295-16.098-9.79-33.851-15.36-52.587-17.191-1.615-.158-22.131-1.265-22.131-.252v-89.463H492v195.619c0 5.523 4.477 10 10 10s10-4.477 10-10V66.001c0-5.523-4.477-10-10-10zm-101.556-6.083c0-8.26 6.72-14.979 14.979-14.979 8.26 0 14.979 6.72 14.979 14.979v32.166c0 8.26-6.72 14.979-14.979 14.979-8.26 0-14.979-6.719-14.979-14.979V49.918zm-110.986 0c0-8.26 6.72-14.979 14.979-14.979s14.979 6.72 14.979 14.979v32.166c0 8.26-6.72 14.979-14.979 14.979h-.001c-8.259 0-14.978-6.719-14.978-14.979V49.918zm-110.987 0c0-8.26 6.72-14.979 14.98-14.979 8.26 0 14.979 6.72 14.979 14.979v32.166c0 8.26-6.72 14.979-14.979 14.979h-.001c-8.26 0-14.979-6.719-14.979-14.979V49.918zm-61.596 84.65V76.001h41.596v6.083c0 19.288 15.692 34.979 34.98 34.979 19.288 0 34.979-15.691 34.979-34.979v-6.083h41.027v6.083c0 19.288 15.692 34.979 34.979 34.979s34.979-15.691 34.979-34.979v-6.083h41.027v6.083c0 19.288 15.692 34.979 34.979 34.979S450.4 101.372 450.4 82.084v-6.083H492v58.567H116.875z"/><path d="M126.705 294.652c-5.523 0-10 4.477-10 10v55.705H83.057c-5.523 0-10 4.477-10 10s4.477 10 10 10h43.648c5.523 0 10-4.477 10-10v-65.705c0-5.523-4.477-10-10-10zM126.705 477.061c-5.508 0-10 4.492-10 10s4.492 10 10 10 10-4.492 10-10c0-5.507-4.492-10-10-10zM502 380.186c-5.508 0-10 4.493-10 10.001 0 5.507 4.492 10 10 10s10-4.493 10-10-4.492-10.001-10-10.001z"/></g></symbol><symbol fill="currentColor" viewBox="0 -26 512 512" id="communication" xmlns="http://www.w3.org/2000/svg"><path d="M256 100c-5.52 0-10 4.48-10 10s4.48 10 10 10 10-4.48 10-10-4.48-10-10-10zm0 0M90 280c5.52 0 10-4.48 10-10s-4.48-10-10-10-10 4.48-10 10 4.48 10 10 10zm0 0"/><path d="M336 0c-90.027 0-163.918 62.07-169.633 140.254C80.63 144.554 0 206.379 0 290c0 34.945 13.828 68.805 39 95.633 4.98 20.531-1.066 42.293-16.07 57.297A9.998 9.998 0 1 0 30 460c28.52 0 56.004-11.184 76.426-30.89C126.32 435.89 152.277 440 176 440c90.016 0 163.898-62.055 169.629-140.223 20.937-.93 42.715-4.797 59.945-10.668C425.996 308.816 453.48 320 482 320a9.998 9.998 0 0 0 7.07-17.07c-15.004-15.004-21.05-36.766-16.07-57.297 25.172-26.828 39-60.688 39-95.633C512 63.113 425.16 0 336 0zM176 420c-23.602 0-50.496-4.633-68.512-11.8a10 10 0 0 0-11.078 2.538c-12.074 13.2-27.773 22.403-44.879 26.633a80.872 80.872 0 0 0 6.098-59.52 9.98 9.98 0 0 0-2.445-4.226C32.496 350.258 20 320.559 20 290c0-70.469 71.438-130 156-130 79.852 0 150 55.527 150 130 0 71.684-67.29 130-150 130zm280.816-186.375a10.027 10.027 0 0 0-2.445 4.227 80.872 80.872 0 0 0 6.098 59.52c-17.106-4.227-32.805-13.435-44.88-26.634a10.007 10.007 0 0 0-11.077-2.539c-15.614 6.211-37.887 10.512-58.914 11.551-2.922-37.816-21.786-73.36-54.036-99.75H422c5.523 0 10-4.477 10-10s-4.477-10-10-10H260.84c-22.7-11.555-48.188-18.293-74.422-19.707C192.164 73.129 257.058 20 336 20c84.563 0 156 59.531 156 130 0 30.559-12.496 60.258-35.184 83.625zm0 0"/><path d="M256 260H130c-5.523 0-10 4.477-10 10s4.477 10 10 10h126c5.523 0 10-4.477 10-10s-4.477-10-10-10zm0 0M256 320H90c-5.523 0-10 4.477-10 10s4.477 10 10 10h166c5.523 0 10-4.477 10-10s-4.477-10-10-10zm0 0M422 100H296c-5.523 0-10 4.477-10 10s4.477 10 10 10h126c5.523 0 10-4.477 10-10s-4.477-10-10-10zm0 0"/></symbol><symbol fill="currentColor" viewBox="0 0 512 512" id="community" xmlns="http://www.w3.org/2000/svg"><path d="M59.069 227.93C57.21 226.07 54.63 225 52 225s-5.21 1.07-7.07 2.93S42 232.37 42 235s1.069 5.21 2.93 7.07c1.861 1.86 4.44 2.93 7.07 2.93s5.21-1.07 7.069-2.93C60.93 240.21 62 237.63 62 235s-1.07-5.21-2.931-7.07zM174 0c-25.969 0-47.096 21.127-47.096 47.095v12.787c0 25.968 21.127 47.095 47.096 47.095s47.096-21.127 47.096-47.095V47.095C221.096 21.127 199.969 0 174 0zm27.096 59.882c0 14.94-12.155 27.095-27.096 27.095s-27.096-12.155-27.096-27.095V47.095C146.904 32.155 159.06 20 174 20s27.096 12.155 27.096 27.095v12.787zM338 0c-25.969 0-47.096 21.127-47.096 47.095v12.787c0 25.968 21.127 47.095 47.096 47.095s47.096-21.127 47.096-47.095V47.095C385.096 21.127 363.969 0 338 0zm27.096 59.882c0 14.94-12.155 27.095-27.096 27.095s-27.096-12.155-27.096-27.095V47.095C310.904 32.155 323.06 20 338 20s27.096 12.155 27.096 27.095v12.787z"/><path d="M458.356 172.938c5.494-7.703 8.739-17.115 8.739-27.276v-12.786c0-25.968-21.127-47.095-47.096-47.095s-47.096 21.127-47.096 47.095v12.786c0 10.161 3.246 19.573 8.739 27.276-18.131 1.354-33.969 11.065-43.644 25.3-9.675-14.235-25.513-23.945-43.644-25.3 5.494-7.703 8.739-17.115 8.739-27.276v-12.786c0-25.968-21.127-47.095-47.096-47.095s-47.096 21.127-47.096 47.095v12.786c0 10.161 3.246 19.573 8.739 27.276-18.131 1.354-33.969 11.065-43.644 25.3-9.675-14.235-25.513-23.945-43.644-25.3 5.494-7.703 8.739-17.115 8.739-27.276v-12.786c0-25.968-21.127-47.095-47.096-47.095s-47.096 21.127-47.096 47.095v12.786c0 10.161 3.246 19.573 8.739 27.276C23.691 175.175 0 200.243 0 230.757v69.891c0 25.252 18.097 46.348 42 51.025V502c0 5.523 4.478 10 10 10h80c5.522 0 10-4.477 10-10V351.673c13.078-2.559 24.412-10.032 32-20.416 7.588 10.383 18.922 17.857 32 20.416V502c0 5.523 4.478 10 10 10h80c5.522 0 10-4.477 10-10V351.673c13.078-2.559 24.412-10.032 32-20.416 7.588 10.383 18.922 17.857 32 20.416V502c0 5.523 4.478 10 10 10h80c5.522 0 10-4.477 10-10v-51c0-5.523-4.478-10-10-10s-10 4.477-10 10v41h-20V371c0-5.523-4.478-10-10-10s-10 4.477-10 10v121h-20V330.701h60V371c0 5.523 4.478 10 10 10s10-4.477 10-10v-19.327c23.903-4.676 42-25.773 42-51.025v-69.891c0-30.514-23.691-55.582-53.644-57.819zM64.904 132.876c0-14.94 12.155-27.095 27.096-27.095s27.096 12.155 27.096 27.095v12.786c0 14.94-12.155 27.095-27.096 27.095s-27.096-12.155-27.096-27.095v-12.786zM122 492h-20V371c0-5.523-4.478-10-10-10s-10 4.477-10 10v121H62V330.701h60V492zm42-191.352c0 14.153-9.239 26.181-22 30.391V235c0-5.523-4.478-10-10-10s-10 4.477-10 10v75.701H62V271c0-5.523-4.478-10-10-10s-10 4.477-10 10v60.039c-12.761-4.21-22-16.238-22-30.391v-69.891c0-20.953 17.047-38 38-38h68c20.953 0 38 17.047 38 38v69.891zm64.904-167.772c0-14.94 12.155-27.095 27.096-27.095s27.096 12.155 27.096 27.095v12.786c0 14.94-12.155 27.095-27.096 27.095s-27.096-12.155-27.096-27.095v-12.786zM286 492h-20V371c0-5.523-4.478-10-10-10s-10 4.477-10 10v121h-20V330.701h60V492zm42-191.352c0 14.153-9.239 26.181-22 30.391V235c0-5.523-4.478-10-10-10s-10 4.477-10 10v75.701h-60V235c0-5.523-4.478-10-10-10s-10 4.477-10 10v96.039c-12.761-4.21-22-16.238-22-30.391v-69.891c0-20.953 17.047-38 38-38h68c20.953 0 38 17.047 38 38v69.891zm64.904-167.772c0-14.94 12.155-27.095 27.096-27.095s27.096 12.155 27.096 27.095v12.786c0 14.94-12.155 27.095-27.096 27.095s-27.096-12.155-27.096-27.095v-12.786zM492 300.648c0 14.153-9.239 26.181-22 30.391V235c0-5.523-4.478-10-10-10s-10 4.477-10 10v75.701h-60V235c0-5.523-4.478-10-10-10s-10 4.477-10 10v96.039c-12.761-4.21-22-16.238-22-30.391v-69.891c0-20.953 17.047-38 38-38h68c20.953 0 38 17.047 38 38v69.891z"/><path d="M467.069 404.28a10.054 10.054 0 0 0-7.069-2.93c-2.63 0-5.21 1.07-7.07 2.93a10.076 10.076 0 0 0-2.93 7.07c0 2.64 1.069 5.21 2.93 7.07 1.861 1.86 4.44 2.93 7.07 2.93s5.21-1.07 7.069-2.93c1.86-1.86 2.931-4.44 2.931-7.07s-1.07-5.21-2.931-7.07z"/></symbol><symbol fill="currentColor" viewBox="0 0 512 512" id="courses" xmlns="http://www.w3.org/2000/svg"><path d="M407.07 377.01c-1.86-1.86-4.44-2.93-7.07-2.93s-5.21 1.069-7.07 2.93a10.076 10.076 0 0 0-2.93 7.07c0 2.64 1.07 5.21 2.93 7.069 1.86 1.87 4.44 2.931 7.07 2.931s5.21-1.061 7.07-2.931a10.056 10.056 0 0 0 2.93-7.069c0-2.63-1.07-5.21-2.93-7.07z"/><path d="M470 0H135c-5.523 0-10 4.478-10 10s4.477 10 10 10h335c12.131 0 22 9.869 22 22v258h-94.314c-17.645 0-32-14.355-32-32s14.355-32 32-32c5.523 0 10-4.478 10-10s-4.477-10-10-10h-74.25c14.354-16.331 23.378-40.192 23.378-62.017 0-36.288-26.234-62.626-62.379-62.626-3.719 0-7.386.296-10.967.87 1.125-8.146 1.043-18.812-3.844-28.777-5.705-11.632-15.583-18.686-22.864-22.554-5.808-3.087-16.557-7.771-23.307-4.46-6.746 3.31-9.625 14.677-10.74 21.158-1.398 8.127-1.868 20.255 3.836 31.887.427.871.89 1.708 1.369 2.529-31.071 4.25-52.731 29.002-52.731 61.973 0 21.824 9.023 45.686 23.378 62.017h-32.25c-28.673 0-52 23.327-52 52 0 12.062 4.14 23.169 11.057 32H20V42c0-12.131 9.869-22 22-22h11c5.523 0 10-4.478 10-10S58.523 0 53 0H42C18.841 0 0 18.841 0 42v310.083c0 23.159 18.841 42 42 42h155v48.424c-29.474 3.778-52.333 29.008-52.333 59.493 0 5.522 4.477 10 10 10h202.667c5.523 0 10-4.478 10-10 0-31.172-23.898-56.859-54.333-59.725v-48.192h46.667c5.523 0 10-4.478 10-10s-4.477-10-10-10H42c-12.131 0-22-9.869-22-22V320h472v32.083c0 12.131-9.869 22-22 22h-35.333c-5.523 0-10 4.478-10 10s4.477 10 10 10H470c23.159 0 42-18.841 42-42V42c0-23.159-18.841-42-42-42zM217 394.083h76V442h-76v-47.917zM307.333 462c18.605 0 34.284 12.767 38.735 30H165.932c4.451-17.233 20.13-30 38.734-30h102.667zM233.407 56.732c5.607 2.294 14.231 7.311 18.26 15.524 3.725 7.595 2.44 16.982.779 23.168-6.022-2.506-14.262-7.25-17.941-14.75-4.029-8.214-2.716-18.105-1.098-23.942zm-48.221 97.251c0-25.098 17.427-42.626 42.379-42.626 8.533 0 16.584 2.129 23.281 6.156a10.004 10.004 0 0 0 10.307 0c6.697-4.027 14.748-6.156 23.281-6.156 24.952 0 42.379 17.528 42.379 42.626 0 27.329-19.942 61.995-42.359 62.017h-.046c-8.999-.011-16.575-5.683-21.347-10.444-1.952-1.946-4.507-2.92-7.063-2.92s-5.111.974-7.063 2.92c-4.772 4.761-12.348 10.434-21.347 10.444h-.046c-22.414-.021-42.356-34.688-42.356-62.017zM215.184 300h-58.87c-17.645 0-32-14.355-32-32s14.355-32 32-32h58.87c-6.918 8.831-11.057 19.938-11.057 32s4.14 23.169 11.057 32zm40.943 0c-17.645 0-32-14.355-32-32s14.355-32 32-32h28.263l.044.001.05-.001h72.24a51.786 51.786 0 0 0-10.193 22.678H260c-5.523 0-10 4.478-10 10s4.477 10 10 10h86.794A51.8 51.8 0 0 0 356.725 300H256.127z"/><path d="M262.07 345.01a10.058 10.058 0 0 0-7.07-2.93c-2.63 0-5.21 1.069-7.07 2.93-1.86 1.86-2.93 4.44-2.93 7.07s1.07 5.21 2.93 7.069c1.86 1.87 4.44 2.931 7.07 2.931s5.21-1.061 7.07-2.931c1.86-1.859 2.93-4.439 2.93-7.069s-1.07-5.21-2.93-7.07zM99.07 2.93C97.21 1.07 94.63 0 92 0s-5.21 1.069-7.07 2.93C83.07 4.79 82 7.37 82 10s1.07 5.21 2.93 7.069C86.79 18.93 89.37 20 92 20s5.21-1.07 7.07-2.931C100.93 15.21 102 12.63 102 10s-1.07-5.21-2.93-7.07zM462 436c-27.57 0-50 22.43-50 50v16c0 5.522 4.477 10 10 10h80c5.523 0 10-4.478 10-10v-16c0-27.57-22.43-50-50-50zm30 56h-60v-6c0-16.542 13.458-30 30-30s30 13.458 30 30v6z"/></symbol><symbol fill="currentColor" viewBox="0 0 512 512" id="documentation" xmlns="http://www.w3.org/2000/svg"><path d="M350.688 496.97H66.121V126.245a7.515 7.515 0 1 0-15.03 0v373.23c0 6.907 5.619 12.525 12.525 12.525h287.072a7.516 7.516 0 0 0 0-15.03zM458.782 67.951L394.906 2.276A7.515 7.515 0 0 0 389.519 0H63.616C56.71 0 51.092 5.62 51.091 12.526v58.613a7.515 7.515 0 1 0 15.03 0V15.031h320.224l59.536 61.212V496.97h-42.59a7.515 7.515 0 1 0 0 15.03h45.094c6.907 0 12.525-5.618 12.525-12.524V73.19a7.511 7.511 0 0 0-2.128-5.239z"/><path d="M458.781 67.951L394.905 2.276a7.515 7.515 0 0 0-12.901 5.24V73.19a7.515 7.515 0 0 0 7.515 7.515h63.876a7.514 7.514 0 1 0 5.386-12.754zm-61.747-2.276V26.019l38.569 39.656h-38.569zM290.78 39.899H109.714c-6.907 0-12.525 5.619-12.525 12.525v41.533c0 6.907 5.619 12.525 12.525 12.525H290.78c6.906 0 12.525-5.619 12.525-12.524V52.423c0-6.907-5.619-12.524-12.525-12.524zm-2.505 51.552H112.219V54.928h176.056v36.523zM172.247 145.811a7.516 7.516 0 0 0-10.53 1.436l-33.203 43.688-9.972-8.726a7.515 7.515 0 0 0-9.897 11.311l16.031 14.027a7.52 7.52 0 0 0 5.707 1.822 7.517 7.517 0 0 0 5.225-2.93l38.075-50.098a7.515 7.515 0 0 0-1.436-10.53zM398.409 144.277H209.136a7.515 7.515 0 1 0 0 15.03h189.273a7.515 7.515 0 1 0 0-15.03zM332.021 169.326H209.136a7.515 7.515 0 1 0 0 15.03h122.885a7.515 7.515 0 1 0 0-15.03zM360.076 194.376h-150.94a7.515 7.515 0 1 0 0 15.03h150.94a7.515 7.515 0 1 0 0-15.03zM172.247 248.014a7.516 7.516 0 0 0-10.53 1.436l-33.203 43.688-9.972-8.726a7.515 7.515 0 0 0-9.897 11.311l16.031 14.027a7.52 7.52 0 0 0 5.707 1.822 7.517 7.517 0 0 0 5.225-2.93l38.075-50.098a7.516 7.516 0 0 0-1.436-10.53zM398.409 246.481H209.136a7.515 7.515 0 1 0 0 15.03h189.273a7.515 7.515 0 1 0 0-15.03zM332.021 271.53H209.136a7.515 7.515 0 1 0 0 15.03h122.885a7.515 7.515 0 1 0 0-15.03zM360.076 296.579h-150.94a7.515 7.515 0 1 0 0 15.03h150.94a7.515 7.515 0 1 0 0-15.03zM398.409 348.685H209.136a7.515 7.515 0 1 0 0 15.03h189.273a7.516 7.516 0 0 0 0-15.03zM332.021 373.734H209.136a7.515 7.515 0 1 0 0 15.03h122.885a7.515 7.515 0 1 0 0-15.03zM360.076 398.783h-150.94a7.515 7.515 0 1 0 0 15.03h150.94a7.515 7.515 0 1 0 0-15.03zM158.681 348.685h-40.079c-6.907 0-12.525 5.619-12.525 12.525v40.078c0 6.907 5.619 12.525 12.525 12.525h40.079c6.907 0 12.525-5.618 12.525-12.524V361.21c0-6.907-5.619-12.525-12.525-12.525zm-2.504 50.099h-35.069v-35.069h35.069v35.069z"/></symbol><symbol fill="currentColor" viewBox="0 0 512.002 512.002" id="games" xmlns="http://www.w3.org/2000/svg"><path d="M504.313 31.55h-375.48a7.687 7.687 0 1 0 0 15.374h367.794v280.268H15.373V98.644h454.981a7.686 7.686 0 0 0 7.687-7.687 7.686 7.686 0 0 0-7.687-7.687H15.373V46.923h67.085a7.687 7.687 0 1 0 0-15.374H7.687A7.688 7.688 0 0 0 0 39.236v352.639a7.687 7.687 0 0 0 7.687 7.687h185.68l-9.268 72.225a7.687 7.687 0 0 0 7.624 8.665h158.858a7.689 7.689 0 0 0 7.625-8.665l-9.268-72.225h155.378a7.686 7.686 0 0 0 7.687-7.687V39.236a7.69 7.69 0 0 0-7.69-7.686zM200.458 465.079l8.276-64.492h124.834l8.275 64.492H200.458zm296.169-80.89H15.373v-41.624h481.253v41.624z"/><path d="M141.44 223.285l36.24-36.239a7.69 7.69 0 0 0 0-10.873c-12.584-12.583-29.315-19.514-47.11-19.514-17.795 0-34.527 6.93-47.111 19.514-25.977 25.978-25.977 68.245 0 94.223 12.584 12.584 29.315 19.514 47.111 19.514s34.527-6.93 47.11-19.514a7.687 7.687 0 0 0 0-10.871l-36.24-36.24zm-10.871 51.251c-13.689 0-26.56-5.331-36.24-15.012-19.982-19.982-19.982-52.498 0-72.48 9.68-9.68 22.551-15.012 36.24-15.012 11.092 0 21.647 3.5 30.402 9.978l-35.837 35.837a7.687 7.687 0 0 0 0 10.871l35.837 35.838c-8.754 6.48-19.309 9.98-30.402 9.98zM384.515 155.688C351.7 155.688 325 182.384 325 215.2v64.251a7.69 7.69 0 0 0 10.296 7.231l11.964-4.32 16.465 5.433a7.682 7.682 0 0 0 5.128-.11l13.996-5.294 16.071 5.392a7.69 7.69 0 0 0 5.086-.068l14.746-5.396 15.432 4.511a7.686 7.686 0 0 0 9.844-7.377v-64.252c0-32.816-26.698-59.513-59.513-59.513zm44.14 113.509l-8.013-2.342a7.687 7.687 0 0 0-4.799.159l-14.587 5.338-16.116-5.406a7.69 7.69 0 0 0-5.164.097l-14.016 5.302-16.403-5.411a7.692 7.692 0 0 0-5.018.069l-4.164 1.504V215.2c0-24.339 19.801-44.14 44.14-44.14s44.141 19.801 44.141 44.14v53.997z"/><path d="M366.102 207.755c-8.563 0-15.529 6.966-15.529 15.528 0 8.563 6.966 15.529 15.529 15.529s15.529-6.966 15.529-15.529c.001-8.562-6.965-15.528-15.529-15.528zm0 15.685c-.069 0-.156-.087-.156-.156 0-.068.087-.155.156-.155s.156.087.156.155c0 .069-.087.156-.156.156zM402.927 207.756c-8.563 0-15.529 6.966-15.529 15.528 0 8.563 6.966 15.529 15.529 15.529s15.529-6.966 15.529-15.529c0-8.562-6.966-15.528-15.529-15.528zm0 15.683c-.069 0-.156-.087-.156-.156 0-.068.087-.155.156-.155.067 0 .156.088.156.155 0 .069-.087.156-.156.156z"/></symbol><symbol viewBox="0 0 512 512" id="hardware" xmlns="http://www.w3.org/2000/svg"><path d="M498.526 98.491c7.43 0 13.474-6.045 13.474-13.475V54.97c0-7.43-6.044-13.475-13.474-13.475h-51.333V22.092c0-11.84-10.963-21.472-24.438-21.472h-124.33a7.636 7.636 0 0 0-7.636 7.636c0 15.509-16.053 34.453-34.788 34.453s-34.788-18.944-34.788-34.453A7.636 7.636 0 0 0 213.577.62H130.01a7.636 7.636 0 0 0-7.636 7.636 7.636 7.636 0 0 0 7.636 7.636h76.693C210.797 36.776 230.89 57.98 256 57.98s45.203-21.205 49.296-42.089h117.458c4.884 0 9.167 2.898 9.167 6.201v467.817c0 3.303-4.283 6.201-9.167 6.201H89.246c-4.884 0-9.167-2.898-9.167-6.201V22.092c0-3.303 4.283-6.201 9.167-6.201h13.02c4.218 0 7.636-3.419 7.636-7.636S106.484.619 102.266.619h-13.02c-13.475 0-24.438 9.632-24.438 21.472v19.403H13.474C6.044 41.495 0 47.54 0 54.97v30.045c0 7.43 6.044 13.475 13.474 13.475h51.333v19.954H13.474C6.044 118.444 0 124.488 0 131.918v30.046c0 7.43 6.044 13.474 13.474 13.474h51.333v19.954H13.474C6.044 195.394 0 201.438 0 208.868v30.045c0 7.43 6.044 13.475 13.474 13.475h51.333v19.954H13.474C6.044 272.342 0 278.387 0 285.817v30.046c0 7.43 6.044 13.474 13.474 13.474h51.333v19.954H13.474C6.044 349.291 0 355.337 0 362.767v30.045c0 7.43 6.044 13.475 13.474 13.475h51.333v19.954H13.474C6.044 426.241 0 432.285 0 439.715v30.046c0 7.43 6.044 13.474 13.474 13.474h51.333v6.673c0 11.84 10.963 21.472 24.438 21.472h333.509c13.475 0 24.438-9.632 24.438-21.472v-6.673h51.333c7.43 0 13.474-6.044 13.474-13.474v-30.046c0-7.43-6.044-13.474-13.474-13.474h-51.333v-19.954h51.333c7.43 0 13.474-6.045 13.474-13.475v-30.045c0-7.43-6.044-13.475-13.474-13.475h-51.333v-19.954h51.333c7.43 0 13.474-6.044 13.474-13.474v-30.046c0-7.43-6.044-13.474-13.474-13.474h-51.333V252.39h51.333c7.43 0 13.474-6.045 13.474-13.475V208.87c0-7.43-6.044-13.475-13.474-13.475h-51.333v-19.954h51.333c7.43 0 13.474-6.044 13.474-13.474v-30.046c0-7.43-6.044-13.474-13.474-13.474h-51.333V98.491h51.334zm-51.333-41.725h49.536v26.452h-49.536V56.766zM64.807 467.965H15.271v-26.452h49.536v26.452zm0-76.949H15.271v-26.452h49.536v26.452zm0-76.95H15.271v-26.452h49.536v26.452zm0-76.95H15.271v-26.452h49.536v26.452zm0-76.949H15.271v-26.452h49.536v26.452zm0-76.948H15.271V56.766h49.536v26.453zm382.386 358.293h49.536v26.452h-49.536v-26.452zm0-76.948h49.536v26.452h-49.536v-26.452zm0-76.949h49.536v26.452h-49.536v-26.452zm0-76.95h49.536v26.452h-49.536v-26.452zm0-76.95h49.536v26.452h-49.536v-26.452z"/><path d="M343.69 227.837l-4.892-.617a87.47 87.47 0 0 0-3.884-9.368l3.027-3.893c5.379-6.913 4.764-16.796-1.429-22.989l-15.481-15.482c-6.186-6.187-16.064-6.806-22.974-1.442l-3.914 3.037a87.126 87.126 0 0 0-9.267-3.849l-.612-4.904c-1.086-8.69-8.509-15.244-17.267-15.244h-21.894c-8.748 0-16.17 6.545-17.265 15.225l-.616 4.891a87.192 87.192 0 0 0-9.362 3.882l-3.914-3.037c-6.91-5.364-16.788-4.745-22.974 1.442l-15.48 15.481c-6.193 6.193-6.809 16.075-1.432 22.988l3.029 3.894a87.215 87.215 0 0 0-3.884 9.368l-4.894.618c-8.679 1.094-15.224 8.516-15.224 17.264v21.895c0 8.757 6.553 16.18 15.244 17.267l4.905.612a87.248 87.248 0 0 0 3.849 9.267l-3.038 3.915c-5.364 6.911-4.744 16.787 1.443 22.972l15.481 15.482c6.193 6.193 16.075 6.808 22.99 1.431l3.893-3.029a87.32 87.32 0 0 0 9.367 3.884l.616 4.891c1.095 8.679 8.517 15.224 17.265 15.224h21.894c8.758 0 16.181-6.553 17.267-15.244l.612-4.904a87.471 87.471 0 0 0 9.272-3.852l3.894 3.029c6.911 5.377 16.795 4.762 22.989-1.431l15.48-15.481c6.187-6.186 6.808-16.063 1.443-22.973l-3.037-3.915a87.248 87.248 0 0 0 3.849-9.267l4.906-.613c8.69-1.086 15.243-8.509 15.243-17.266v-21.895c0-8.749-6.545-16.171-15.224-17.264zm-.047 39.159c0 1.072-.802 1.98-1.865 2.113l-9.757 1.219a7.638 7.638 0 0 0-6.399 5.49 71.906 71.906 0 0 1-6.402 15.416 7.637 7.637 0 0 0 .634 8.406l6.037 7.78a2.13 2.13 0 0 1-.177 2.81l-15.481 15.482a2.131 2.131 0 0 1-2.813.175l-7.76-6.036a7.636 7.636 0 0 0-8.413-.638 72.085 72.085 0 0 1-15.428 6.408 7.637 7.637 0 0 0-5.49 6.398l-1.219 9.757a2.132 2.132 0 0 1-2.113 1.865h-21.894a2.132 2.132 0 0 1-2.113-1.862l-1.228-9.744a7.637 7.637 0 0 0-5.498-6.393 71.989 71.989 0 0 1-15.506-6.429 7.631 7.631 0 0 0-8.414.639l-7.759 6.036a2.134 2.134 0 0 1-2.814-.175l-15.482-15.482a2.132 2.132 0 0 1-.177-2.81l6.038-7.779a7.635 7.635 0 0 0 .634-8.406 71.927 71.927 0 0 1-6.402-15.416 7.638 7.638 0 0 0-6.399-5.49l-9.756-1.219a2.133 2.133 0 0 1-1.866-2.113v-21.895c0-1.07.8-1.979 1.863-2.113l9.742-1.23a7.635 7.635 0 0 0 6.392-5.498 71.971 71.971 0 0 1 6.43-15.506 7.637 7.637 0 0 0-.638-8.414l-6.037-7.761a2.131 2.131 0 0 1 .176-2.813l15.481-15.482a2.133 2.133 0 0 1 2.811-.176l7.779 6.037a7.637 7.637 0 0 0 8.406.634 71.944 71.944 0 0 1 15.496-6.423 7.637 7.637 0 0 0 5.499-6.393l1.228-9.744a2.133 2.133 0 0 1 2.113-1.863h21.894c1.072 0 1.98.802 2.113 1.865l1.219 9.757a7.636 7.636 0 0 0 5.491 6.399 71.999 71.999 0 0 1 15.417 6.402 7.633 7.633 0 0 0 8.406-.634l7.779-6.037a2.133 2.133 0 0 1 2.811.176l15.482 15.482c.758.758.832 1.966.174 2.813l-6.036 7.761a7.636 7.636 0 0 0-.638 8.413 71.933 71.933 0 0 1 6.429 15.506 7.635 7.635 0 0 0 6.392 5.499l9.745 1.228a2.132 2.132 0 0 1 1.863 2.113v21.895z"/><path d="M256 200.727c-30.478 0-55.275 24.796-55.275 55.274 0 7.672 1.545 15.103 4.592 22.087a7.637 7.637 0 0 0 13.998-6.106 39.738 39.738 0 0 1-3.318-15.981c0-22.058 17.945-40.003 40.003-40.003s40.003 17.945 40.003 40.003-17.945 40.003-40.003 40.003a40.027 40.027 0 0 1-19.306-4.957 7.637 7.637 0 0 0-7.383 13.369c8.127 4.488 17.355 6.86 26.689 6.86 30.478 0 55.275-24.796 55.275-55.274S286.478 200.727 256 200.727z"/></symbol><symbol fill="currentColor" viewBox="0 0 512 512" id="ide" xmlns="http://www.w3.org/2000/svg"><path d="M502 0H10C4.478 0 0 4.477 0 10v492c0 5.523 4.478 10 10 10h492c5.522 0 10-4.477 10-10V10c0-5.523-4.478-10-10-10zm-10 20v60H216.181l-30-60H492zm-328.181 0l10 20H90c-5.51 0-10 4.49-10 10s4.49 10 10 10h93.819l10 20H20V20h143.819zM492 492H20V100h472v392z"/><path d="M462 60c5.52 0 10-4.48 10-10s-4.48-10-10-10c-5.521 0-10 4.48-10 10s4.479 10 10 10zM382 60c5.52 0 10-4.48 10-10s-4.48-10-10-10c-5.521 0-10 4.48-10 10s4.479 10 10 10zM422 60c5.52 0 10-4.48 10-10s-4.48-10-10-10c-5.521 0-10 4.48-10 10s4.479 10 10 10zM50 60c5.51 0 10-4.49 10-10s-4.49-10-10-10-10 4.49-10 10 4.49 10 10 10zM186.047 198.921c-3.278-4.443-9.537-5.388-13.984-2.11l-38.143 28.142a10 10 0 0 0 0 16.094l38.143 28.142a9.958 9.958 0 0 0 5.93 1.954 9.987 9.987 0 0 0 8.055-4.063c3.279-4.444 2.334-10.705-2.109-13.984L156.701 233l27.236-20.095c4.444-3.279 5.389-9.54 2.11-13.984zM325.953 267.079a9.98 9.98 0 0 0 8.055 4.063 9.96 9.96 0 0 0 5.93-1.954l38.143-28.142a10 10 0 0 0 0-16.094l-38.143-28.142c-4.445-3.28-10.705-2.334-13.984 2.11s-2.334 10.705 2.109 13.984L355.299 233l-27.236 20.095c-4.444 3.279-5.389 9.54-2.11 13.984zM209.163 317.752a9.998 9.998 0 0 0 13.589-3.915l84-152c2.672-4.834.919-10.918-3.915-13.589-4.831-2.669-10.917-.918-13.589 3.916l-84 152c-2.672 4.833-.919 10.917 3.915 13.588zM301 452h-40c-5.522 0-10 4.477-10 10s4.478 10 10 10h40c5.522 0 10-4.477 10-10s-4.478-10-10-10zM221 452h-10c-5.522 0-10 4.477-10 10s4.478 10 10 10h10c5.522 0 10-4.477 10-10s-4.478-10-10-10zM301 412h-90c-5.522 0-10 4.477-10 10s4.478 10 10 10h90c5.522 0 10-4.477 10-10s-4.478-10-10-10zM291 372c-5.522 0-10 4.477-10 10s4.478 10 10 10h10c5.522 0 10-4.477 10-10s-4.478-10-10-10h-10zM211 392h40c5.522 0 10-4.477 10-10s-4.478-10-10-10h-40c-5.522 0-10 4.477-10 10s4.478 10 10 10zM431 452h-70c-5.522 0-10 4.477-10 10s4.478 10 10 10h70c5.522 0 10-4.477 10-10s-4.478-10-10-10zM451 412h-90c-5.522 0-10 4.477-10 10s4.478 10 10 10h90c5.522 0 10-4.477 10-10s-4.478-10-10-10zM351 382c0 5.51 4.49 10 10 10h50c5.51 0 10-4.49 10-10s-4.49-10-10-10h-50c-5.51 0-10 4.49-10 10zM451 392c5.51 0 10-4.49 10-10s-4.49-10-10-10-10 4.49-10 10 4.49 10 10 10zM131 452H61c-5.522 0-10 4.477-10 10s4.478 10 10 10h70c5.522 0 10-4.477 10-10s-4.478-10-10-10zM61 432c5.51 0 10-4.49 10-10s-4.49-10-10-10-10 4.49-10 10 4.49 10 10 10zM151 412h-50c-5.51 0-10 4.49-10 10s4.49 10 10 10h50c5.51 0 10-4.49 10-10s-4.49-10-10-10zM151 372H61c-5.522 0-10 4.477-10 10s4.478 10 10 10h90c5.522 0 10-4.477 10-10s-4.478-10-10-10z"/></symbol><symbol fill="currentColor" viewBox="0 0 512 512" id="inspiration" xmlns="http://www.w3.org/2000/svg"><path d="M432.044 229.021c-5.315-1.487-10.837 1.614-12.327 6.932-14.357 51.255-52.612 93.355-102.331 112.617a10 10 0 0 0-6.387 9.325V372h-45v-90.452c2.679.294 5.354.448 8.015.448 19.122 0 37.539-7.513 51.549-21.523 18.496-18.496 25.667-44.667 19.182-70.006a10 10 0 0 0-7.209-7.209c-25.339-6.483-51.51.687-70.006 19.181a74.367 74.367 0 0 0-11.531 14.878 74.39 74.39 0 0 0-11.53-14.878c-18.496-18.496-44.67-25.667-70.007-19.182a10 10 0 0 0-7.209 7.209c-6.484 25.34.687 51.511 19.182 70.007 14.012 14.011 32.426 21.523 51.549 21.523 2.661 0 5.336-.155 8.015-.449V372h-45v-14.104c0-4.129-2.538-7.833-6.387-9.325C129.648 323.402 86 259.677 86 190c0-93.738 76.262-170 170-170 78.679 0 146.605 53.313 165.184 129.646 1.306 5.367 6.719 8.658 12.081 7.352 5.366-1.306 8.658-6.715 7.352-12.081-9.892-40.641-33.462-77.45-66.37-103.646C340.33 14.271 299.44 0 256 0 151.233 0 66 85.234 66 190c0 39.087 11.78 76.632 34.067 108.578 20.45 29.313 48.331 52.034 80.933 66.035v9.108c-11.639 4.128-20 15.243-20 28.28s8.361 24.152 20 28.28V437c0 41.355 33.645 75 75 75s75-33.645 75-75v-6.72c11.639-4.128 20-15.243 20-28.28s-8.361-24.152-20-28.28v-9.111c52.44-22.571 92.55-68.188 107.977-123.261 1.489-5.318-1.614-10.837-6.933-12.327zm-150.372-12.439c11.989-11.988 28.411-17.432 44.886-15.136 2.296 16.476-3.149 32.898-15.136 44.885-11.988 11.988-28.407 17.432-44.885 15.136-2.298-16.477 3.148-32.898 15.135-44.885zm-36.209 44.885c-16.479 2.295-32.898-3.149-44.885-15.136-11.988-11.988-17.434-28.409-15.136-44.885 16.474-2.298 32.897 3.148 44.885 15.135 11.988 11.988 17.434 28.409 15.136 44.886zM311 437c0 30.327-24.673 55-55 55s-55-24.673-55-55v-5h110v5zm10-25H191c-5.514 0-10-4.486-10-10s4.486-10 10-10h130c5.514 0 10 4.486 10 10s-4.486 10-10 10z"/><path d="M436 180c-5.523 0-10 4.477-10 10l-.002.86c-.026 5.523 4.429 10.021 9.952 10.048h.049c5.5 0 9.972-4.445 9.999-9.952L446 190c0-5.523-4.477-10-10-10zM255.99 54c-5.523 0-10 4.477-10 10v65.743c0 5.523 4.477 10 10 10s10-4.477 10-10V64c0-5.523-4.477-10-10-10zM212.243 122.67l-19.076-19.06c-3.907-3.905-10.238-3.902-14.142.005s-3.901 10.239.005 14.142l19.076 19.061a9.968 9.968 0 0 0 7.068 2.926 9.97 9.97 0 0 0 7.074-2.932c3.904-3.907 3.901-10.239-.005-14.142zM332.969 103.629c-3.907-3.904-10.239-3.9-14.142.006l-20.28 20.297c-3.904 3.907-3.901 10.239.005 14.142A9.968 9.968 0 0 0 305.62 141a9.97 9.97 0 0 0 7.074-2.932l20.28-20.297c3.904-3.907 3.901-10.239-.005-14.142zM263.2 162.01c-1.86-1.86-4.44-2.93-7.07-2.93s-5.21 1.07-7.07 2.93a10.033 10.033 0 0 0-2.93 7.07c0 2.64 1.06 5.21 2.93 7.07 1.86 1.87 4.44 2.93 7.07 2.93s5.21-1.06 7.07-2.93c1.86-1.86 2.93-4.43 2.93-7.07 0-2.63-1.07-5.21-2.93-7.07z"/></symbol><symbol fill="currentColor" viewBox="-78 0 512 512" id="list" xmlns="http://www.w3.org/2000/svg"><path d="M348.5 147c4.14 0 7.5-3.36 7.5-7.5v-62c0-15.164-12.336-27.5-27.5-27.5H294V37.5c0-9.648-7.852-17.5-17.5-17.5h-38.836c.707-4.879-.633-9.805-3.789-13.633A17.442 17.442 0 0 0 220.371 0H135.63a17.434 17.434 0 0 0-13.5 6.367c-3.156 3.828-4.5 8.754-3.793 13.633H80c-9.648 0-17.5 7.852-17.5 17.5V50h-35C12.336 50 0 62.336 0 77.5v407C0 499.664 12.336 512 27.5 512h33c4.14 0 7.5-3.36 7.5-7.5s-3.36-7.5-7.5-7.5h-33c-6.895 0-12.5-5.605-12.5-12.5v-5.52c3.754 1.926 8 3.02 12.5 3.02h301c4.5 0 8.746-1.094 12.5-3.02v5.52c0 6.895-5.605 12.5-12.5 12.5h-233c-4.14 0-7.5 3.36-7.5 7.5s3.36 7.5 7.5 7.5h233c15.164 0 27.5-12.336 27.5-27.5v-310c0-4.14-3.36-7.5-7.5-7.5s-7.5 3.36-7.5 7.5v280c0 6.895-5.605 12.5-12.5 12.5h-301c-6.895 0-12.5-5.605-12.5-12.5v-377C15 70.605 20.605 65 27.5 65h99.523l5.97 30.742C135.5 108.641 146.851 118 159.987 118h36.024c13.136 0 24.492-9.36 26.996-22.258L228.977 65H328.5c6.895 0 12.5 5.605 12.5 12.5v62c0 4.14 3.36 7.5 7.5 7.5zm-271-97V37.5c0-1.379 1.121-2.5 2.5-2.5h41.2l2.913 15zm130.781 42.883c-1.14 5.863-6.3 10.117-12.27 10.117h-36.023c-5.968 0-11.129-4.254-12.27-10.117l-14.542-74.906c-.196-1.008.242-1.727.523-2.067s.903-.91 1.93-.91h84.742c1.027 0 1.649.57 1.93.91.277.34.719 1.059.523 2.067zM231.887 50l2.914-15H276.5c1.379 0 2.5 1.121 2.5 2.5V50zm0 0"/><path d="M123 170.5c0-9.648-7.852-17.5-17.5-17.5h-35c-9.648 0-17.5 7.852-17.5 17.5v35c0 9.648 7.852 17.5 17.5 17.5h35c9.648 0 17.5-7.852 17.5-17.5zm-15 35c0 1.379-1.121 2.5-2.5 2.5h-35a2.502 2.502 0 0 1-2.5-2.5v-35c0-1.379 1.121-2.5 2.5-2.5h35c1.379 0 2.5 1.121 2.5 2.5zm0 0M296 167H151c-4.14 0-7.5 3.36-7.5 7.5s3.36 7.5 7.5 7.5h145c4.14 0 7.5-3.36 7.5-7.5s-3.36-7.5-7.5-7.5zm0 0M151 211h40c4.14 0 7.5-3.36 7.5-7.5s-3.36-7.5-7.5-7.5h-40c-4.14 0-7.5 3.36-7.5 7.5s3.36 7.5 7.5 7.5zm0 0M266 211c4.14 0 7.5-3.36 7.5-7.5s-3.36-7.5-7.5-7.5h-40c-4.14 0-7.5 3.36-7.5 7.5s3.36 7.5 7.5 7.5zm0 0M123 270.5c0-9.648-7.852-17.5-17.5-17.5h-35c-9.648 0-17.5 7.852-17.5 17.5v35c0 9.648 7.852 17.5 17.5 17.5h35c9.648 0 17.5-7.852 17.5-17.5zm-15 35c0 1.379-1.121 2.5-2.5 2.5h-35a2.502 2.502 0 0 1-2.5-2.5v-35c0-1.379 1.121-2.5 2.5-2.5h35c1.379 0 2.5 1.121 2.5 2.5zm0 0M296 266H151c-4.14 0-7.5 3.36-7.5 7.5s3.36 7.5 7.5 7.5h145c4.14 0 7.5-3.36 7.5-7.5s-3.36-7.5-7.5-7.5zm0 0M151 311h40c4.14 0 7.5-3.36 7.5-7.5s-3.36-7.5-7.5-7.5h-40c-4.14 0-7.5 3.36-7.5 7.5s3.36 7.5 7.5 7.5zm0 0M266 311c4.14 0 7.5-3.36 7.5-7.5s-3.36-7.5-7.5-7.5h-40c-4.14 0-7.5 3.36-7.5 7.5s3.36 7.5 7.5 7.5zm0 0M105.5 353h-35c-9.648 0-17.5 7.852-17.5 17.5v35c0 9.648 7.852 17.5 17.5 17.5h35c9.648 0 17.5-7.852 17.5-17.5v-35c0-9.648-7.852-17.5-17.5-17.5zm2.5 52.5c0 1.379-1.121 2.5-2.5 2.5h-35a2.502 2.502 0 0 1-2.5-2.5v-35c0-1.379 1.121-2.5 2.5-2.5h35c1.379 0 2.5 1.121 2.5 2.5zm0 0M303.5 373.5c0-4.14-3.36-7.5-7.5-7.5H151c-4.14 0-7.5 3.36-7.5 7.5s3.36 7.5 7.5 7.5h145c4.14 0 7.5-3.36 7.5-7.5zm0 0M151 396c-4.14 0-7.5 3.36-7.5 7.5s3.36 7.5 7.5 7.5h40c4.14 0 7.5-3.36 7.5-7.5s-3.36-7.5-7.5-7.5zm0 0M226 396c-4.14 0-7.5 3.36-7.5 7.5s3.36 7.5 7.5 7.5h40c4.14 0 7.5-3.36 7.5-7.5s-3.36-7.5-7.5-7.5zm0 0M186.5 35h-17a7.497 7.497 0 0 0-7.414 8.625l5 33A7.5 7.5 0 0 0 174.5 83h7a7.5 7.5 0 0 0 7.414-6.375l5-33a7.5 7.5 0 0 0-1.726-6.016A7.508 7.508 0 0 0 186.5 35zm0 0"/></symbol><symbol fill="currentColor" viewBox="0 0 470 470" id="math" xmlns="http://www.w3.org/2000/svg"><path d="M311.25 353.75H250a7.5 7.5 0 0 0-7.5 7.5v61.25a7.5 7.5 0 0 0 7.5 7.5h61.25a7.5 7.5 0 0 0 7.5-7.5v-61.25a7.5 7.5 0 0 0-7.5-7.5zm-7.5 61.25H257.5v-46.25h46.25V415zM220 353.75h-61.25a7.5 7.5 0 0 0-7.5 7.5v61.25a7.5 7.5 0 0 0 7.5 7.5H220a7.5 7.5 0 0 0 7.5-7.5v-61.25a7.5 7.5 0 0 0-7.5-7.5zM212.5 415h-46.25v-46.25h46.25V415zM220 262.5h-61.25a7.5 7.5 0 0 0-7.5 7.5v61.25a7.5 7.5 0 0 0 7.5 7.5H220a7.5 7.5 0 0 0 7.5-7.5V270a7.5 7.5 0 0 0-7.5-7.5zm-7.5 61.25h-46.25V277.5h46.25v46.25zM128.75 353.75H67.5a7.5 7.5 0 0 0-7.5 7.5v61.25a7.5 7.5 0 0 0 7.5 7.5h61.25a7.5 7.5 0 0 0 7.5-7.5v-61.25a7.5 7.5 0 0 0-7.5-7.5zm-7.5 61.25H75v-46.25h46.25V415zM402.5 202.5h-61.25a7.5 7.5 0 0 0-7.5 7.5v30a7.5 7.5 0 0 0 7.5 7.5h61.25a7.5 7.5 0 0 0 7.5-7.5v-30a7.5 7.5 0 0 0-7.5-7.5zm-7.5 30h-46.25v-15H395v15zM311.25 262.5H250a7.5 7.5 0 0 0-7.5 7.5v61.25a7.5 7.5 0 0 0 7.5 7.5h61.25a7.5 7.5 0 0 0 7.5-7.5V270a7.5 7.5 0 0 0-7.5-7.5zm-7.5 61.25H257.5V277.5h46.25v46.25zM128.75 262.5H67.5A7.5 7.5 0 0 0 60 270v61.25a7.5 7.5 0 0 0 7.5 7.5h61.25a7.5 7.5 0 0 0 7.5-7.5V270a7.5 7.5 0 0 0-7.5-7.5zm-7.5 61.25H75V277.5h46.25v46.25zM311.25 202.5H250a7.5 7.5 0 0 0-7.5 7.5v30a7.5 7.5 0 0 0 7.5 7.5h61.25a7.5 7.5 0 0 0 7.5-7.5v-30a7.5 7.5 0 0 0-7.5-7.5zm-7.5 30H257.5v-15h46.25v15z"/><path d="M402.5 0h-335C46.822 0 30 16.822 30 37.5v395c0 20.678 16.822 37.5 37.5 37.5h335c20.678 0 37.5-16.822 37.5-37.5v-395C440 16.822 423.178 0 402.5 0zM425 432.5c0 12.407-10.094 22.5-22.5 22.5h-335C55.094 455 45 444.907 45 432.5v-395C45 25.093 55.094 15 67.5 15h335c12.406 0 22.5 10.093 22.5 22.5v395z"/><path d="M402.5 262.5h-61.25a7.5 7.5 0 0 0-7.5 7.5v152.5a7.5 7.5 0 0 0 7.5 7.5h61.25a7.5 7.5 0 0 0 7.5-7.5V330c0-4.142-3.357-7.5-7.5-7.5s-7.5 3.358-7.5 7.5v85h-46.25V277.5H395V300c0 4.142 3.357 7.5 7.5 7.5s7.5-3.358 7.5-7.5v-30a7.5 7.5 0 0 0-7.5-7.5zM402.5 40h-335a7.5 7.5 0 0 0-7.5 7.5V170a7.5 7.5 0 0 0 7.5 7.5h61.25c4.143 0 7.5-3.358 7.5-7.5s-3.357-7.5-7.5-7.5H75V55h320v107.5H158.75c-4.143 0-7.5 3.358-7.5 7.5s3.357 7.5 7.5 7.5H402.5a7.5 7.5 0 0 0 7.5-7.5V47.5a7.5 7.5 0 0 0-7.5-7.5z"/><path d="M342.5 85h30c4.143 0 7.5-3.358 7.5-7.5s-3.357-7.5-7.5-7.5h-30c-4.143 0-7.5 3.358-7.5 7.5s3.357 7.5 7.5 7.5zM342.5 145h30c4.143 0 7.5-3.358 7.5-7.5s-3.357-7.5-7.5-7.5h-30c-4.143 0-7.5 3.358-7.5 7.5s3.357 7.5 7.5 7.5zM335 117.5c0 4.142 3.357 7.5 7.5 7.5s7.5-3.358 7.5-7.5v-20c0-4.142-3.357-7.5-7.5-7.5s-7.5 3.358-7.5 7.5v20z"/></symbol><symbol fill="currentColor" viewBox="0 0 511.998 511.998" id="music-note" xmlns="http://www.w3.org/2000/svg"><path d="M454.837 7.765a43.244 43.244 0 0 0-39.661-5.103L197.309 82.92c-16.915 6.231-28.28 22.53-28.28 40.555v245.242c-12.431-8.824-28.382-12.304-45.873-9.805-19.734 2.819-39.255 13.025-54.966 28.737-15.712 15.712-25.918 35.233-28.737 54.966-2.997 20.982 2.579 39.767 15.703 52.89 10.805 10.805 25.445 16.492 41.993 16.492 3.55 0 7.191-.262 10.896-.791 19.734-2.819 39.255-13.025 54.967-28.737 15.711-15.712 25.918-35.233 28.737-54.967.446-3.128.68-6.2.75-9.221.008-.182.027-212.657.027-212.657l257.317-94.791v154.435c-12.43-8.822-28.381-12.303-45.873-9.805-19.734 2.818-39.255 13.025-54.967 28.737s-25.918 35.233-28.737 54.967c-2.998 20.982 2.579 39.767 15.702 52.89 10.805 10.805 25.445 16.494 41.994 16.494 3.55 0 7.191-.262 10.896-.792 19.734-2.819 39.255-13.025 54.967-28.737 15.711-15.712 25.918-35.233 28.737-54.967.445-3.125.775-280.839.775-280.839a43.25 43.25 0 0 0-18.5-35.451zM169.029 416.976a52.91 52.91 0 0 1-.54 7.205c-2.105 14.735-9.95 29.536-22.092 41.677-12.141 12.141-26.942 19.987-41.676 22.091-13.48 1.925-25.186-1.29-32.953-9.056-7.766-7.766-10.983-19.47-9.056-32.954 2.105-14.734 9.95-29.535 22.091-41.675 12.141-12.141 26.942-19.987 41.676-22.093a52.684 52.684 0 0 1 7.453-.545c10.32 0 19.205 3.307 25.5 9.603 6.27 6.27 9.571 15.107 9.598 25.375v.372zM449.842 85.798L192.524 180.59v-57.113c0-8.227 5.187-15.664 12.907-18.508l217.867-80.26c6.137-2.26 12.734-1.413 18.101 2.33 5.365 3.74 8.443 9.639 8.443 16.179v42.58zm-.001 227.712a53.048 53.048 0 0 1-.54 7.225c-2.105 14.734-9.951 29.533-22.091 41.675-12.141 12.142-26.942 19.987-41.676 22.093-13.485 1.927-25.187-1.291-32.953-9.057-7.766-7.766-10.984-19.469-9.057-32.953 2.105-14.734 9.95-29.535 22.093-41.676 12.141-12.141 26.941-19.986 41.675-22.091a52.695 52.695 0 0 1 7.453-.545c10.32 0 19.205 3.306 25.5 9.602 6.274 6.274 9.575 15.119 9.598 25.396v.331z"/></symbol><symbol fill="currentColor" viewBox="-38 0 512 512" id="newsletter" xmlns="http://www.w3.org/2000/svg"><path d="M427.5 327.5c4.145 0 7.5-3.355 7.5-7.5v-35.5c0-8.445-3.8-16.3-10.414-21.543-.016-.012-.031-.023-.05-.035-.087-.067-.177-.129-.263-.192A27.56 27.56 0 0 0 407.5 257h-25V7.5c0-4.145-3.355-7.5-7.5-7.5H60a7.497 7.497 0 0 0-7.5 7.5v24.168c0 4.14 3.355 7.5 7.5 7.5s7.5-3.36 7.5-7.5V15h300v275.148l-150 85.715-37.965-21.691a7.493 7.493 0 0 0-10.23 2.789 7.496 7.496 0 0 0 2.793 10.23L399.258 497H27.5c-2.848 0-5.527-.934-7.762-2.71A12.417 12.417 0 0 1 15 484.5v-200c0-2.195.582-4.297 1.633-6.145l127.68 72.961a7.46 7.46 0 0 0 3.714.989 7.493 7.493 0 0 0 6.52-3.778 7.503 7.503 0 0 0-2.79-10.234L67.5 290.148V64c0-4.145-3.355-7.5-7.5-7.5s-7.5 3.355-7.5 7.5v193h-25a27.562 27.562 0 0 0-16.781 5.734c-.086.063-.172.121-.254.188a.263.263 0 0 1-.043.027C3.8 268.2 0 276.055 0 284.5v200c0 8.445 3.8 16.3 10.414 21.543A27.582 27.582 0 0 0 27.5 512h380a27.557 27.557 0 0 0 16.828-5.77c.059-.042.121-.085.18-.132a.792.792 0 0 0 .07-.051C431.2 500.8 435 492.945 435 484.5V351.75c0-4.145-3.355-7.5-7.5-7.5s-7.5 3.355-7.5 7.5V484.5c0 2.195-.582 4.297-1.633 6.145L232.617 384.5l185.75-106.145A12.402 12.402 0 0 1 420 284.5V320c0 4.145 3.355 7.5 7.5 7.5zm-375-45.926L35.742 272H52.5zm330-9.574h16.758l-16.758 9.574zm0 0"/><path d="M305.5 201.5c4.145 0 7.5-3.355 7.5-7.5V46c0-4.145-3.355-7.5-7.5-7.5h-176A7.497 7.497 0 0 0 122 46v148c0 4.145 3.355 7.5 7.5 7.5zm-168.5-15v-20.355l47.93-42.06 81.566 62.415zm161 0h-6.82l-26.989-20.652L298 136.457zm0-133v63.082l-45.969 39.961-60.355-46.184c-4.285-3.28-10.34-3.078-14.399.485L137 146.188V53.5zm0 0"/><path d="M257.8 112.68c14.563 0 26.415-11.852 26.415-26.418 0-14.567-11.852-26.414-26.414-26.414-14.567 0-26.418 11.847-26.418 26.414 0 14.566 11.851 26.418 26.418 26.418zm0-37.832c6.294 0 11.415 5.12 11.415 11.414 0 6.297-5.121 11.418-11.414 11.418-6.297 0-11.418-5.121-11.418-11.418 0-6.293 5.12-11.414 11.418-11.414zm0 0M102 229c0 4.145 3.355 7.5 7.5 7.5h216c4.145 0 7.5-3.355 7.5-7.5s-3.355-7.5-7.5-7.5h-216a7.497 7.497 0 0 0-7.5 7.5zm0 0M109.5 272.5h216c4.145 0 7.5-3.355 7.5-7.5s-3.355-7.5-7.5-7.5h-216c-4.145 0-7.5 3.355-7.5 7.5s3.355 7.5 7.5 7.5zm0 0M109.5 308.5h216c4.145 0 7.5-3.355 7.5-7.5s-3.355-7.5-7.5-7.5h-216c-4.145 0-7.5 3.355-7.5 7.5s3.355 7.5 7.5 7.5zm0 0"/></symbol><symbol viewBox="0 0 511.855 511.855" id="oer" xmlns="http://www.w3.org/2000/svg"><path d="M131.496 137.827l-7.926 12.734-15-9.336 7.925-12.734zM224.87 55.503l7.976 12.705 24.011-15.076 23.991 15.074 7.98-12.701-31.968-20.086zM366.438 121.966l7.979-12.702 28.896 18.15-7.979 12.703zM142.573 419.734l-13.049-7.938 7.796-12.814 13.048 7.938zM187.855 447.28l-32.463-19.748 7.795-12.814 32.464 19.748zM305.894 458.933l-7.927-12.734 15-9.338 7.928 12.733zM357.397 426.869l-7.928-12.734 28-17.431 7.927 12.733zM434.928 230.855h15v18h-15zM364.928 451.855h15v60h-15zM132.928 451.855h15v60h-15z"/><path d="M70.079 134.936L256.865 17.711l98.304 61.746 7.979-12.702L256.868 0 41.777 134.989l45.821 28.519 7.926-12.735z"/><path d="M375.85 74.733l-7.979 12.702 73.905 46.421-97.849 60.854v-56.855h-15v39.5h-145v-39.5h-15v58.602l-60.669-37.76-7.926 12.735 68.595 42.692v7.8c0 25.378 10.864 48.263 28.18 64.26-28.919 11.001-54.712 30.11-73.661 54.812-22.583 29.44-34.52 64.662-34.52 101.858v69h15v-69c0-25.317 6.339-49.581 17.667-71.018l70.141 42.669 7.796-12.815-70.289-42.759a153.97 153.97 0 0 1 30.628-34.04l96.609 58.771 95.54-59.484a154.936 154.936 0 0 1 30.964 33.732l-126.23 78.59-44.406-27.014-7.796 12.815 52.292 31.812 133.916-83.376c4.937 9.127 8.975 18.786 11.951 28.869l14.387-4.246c-7.953-26.945-22.77-51.69-42.847-71.561a168.077 168.077 0 0 0-58.505-37.612c17.318-15.997 28.183-38.883 28.183-64.263v-9.551l91-56.595v60.075h15v-69.404l20.151-12.532-94.228-59.184zm-36.944 239.941l-82.518 51.375-83.469-50.777a150.881 150.881 0 0 1 38.69-18.224c13.117 7.855 28.448 12.378 44.818 12.378 16.361 0 31.685-4.518 44.798-12.366 13.409 4.121 26.071 10.093 37.681 17.614zm-9.978-92.748c0 39.977-32.523 72.5-72.5 72.5s-72.5-32.523-72.5-72.5v-29.57h145v29.57zM406.105 413.49a153.751 153.751 0 0 1 2.823 29.366v69h15v-69c0-10.839-1.043-21.685-3.101-32.237l-14.722 2.871z"/></symbol><symbol viewBox="0 -8 472 471" id="online-learning" xmlns="http://www.w3.org/2000/svg"><path d="M232 88.465h-72a8 8 0 0 0 0 16h72a8 8 0 0 0 0-16zm0 0M48 88.465a8 8 0 0 0 0 16h32a8 8 0 0 0 0-16zm0 0M112 88.465a8 8 0 0 0 0 16h16a8 8 0 0 0 0-16zm0 0"/><path d="M232 344.465H48c-17.672 0-32-14.328-32-32v-180.32a47.76 47.76 0 0 0 32 12.32h184a8 8 0 0 0 0-16H48c-17.672 0-32-14.328-32-32s14.328-32 32-32h184a8 8 0 0 0 0-16H48c-26.5.027-47.973 21.5-48 48v216c.027 26.5 21.5 47.973 48 48h184a8 8 0 0 0 0-16zm0 0"/><path d="M240 256.465v-40a8 8 0 0 0-16 0v40a8 8 0 0 0 16 0zm0 0M384 176.465c44.746-.063 82.34-33.66 87.406-78.121v-.063c4.606-40.726-19.543-79.226-58.21-92.812-38.669-13.586-81.59 1.355-103.47 36.011 0 0-.07.055-.101.106-.031.047-.04.144-.09.207-17.074 27.086-18.058 61.32-2.562 89.34 15.492 28.023 45.007 45.39 77.027 45.332zm-72-88a71.433 71.433 0 0 1 7.105-30.977L336 68.746v19.719c0 3.672 2.5 6.87 6.063 7.762l24.593 6.152-6.289 31.469-9.289 18.617a71.999 71.999 0 0 1-39.078-64zm144 0c0 1.297-.129 2.566-.191 3.847l-28.176 18.786 4.207-21.032a7.853 7.853 0 0 0-.254-4.097l-8-24a8.001 8.001 0 0 0-4.617-4.903l-31.922-12.761L400 18.32c32.723 7.489 55.945 36.575 56 70.145zm-72.969-71.953L368.84 44.89c-1 2-1.117 4.332-.32 6.422a8.009 8.009 0 0 0 4.511 4.585l36.57 14.614 6.16 18.465-7.6 37.886c-.634 3.172.706 6.414 3.394 8.215s6.191 1.805 8.886.012l30.512-20.344c-13.144 33.899-49.625 52.547-84.8 43.352l9.046-18.059c.32-.633.547-1.309.68-2.008l8-40a8.003 8.003 0 0 0-5.902-9.328L352 82.22V64.465a8.003 8.003 0 0 0-3.559-6.656l-20.882-13.91a71.876 71.876 0 0 1 55.472-27.387zm0 0M448 304.465H320c-13.254 0-24 10.746-24 24v72c0 13.254 10.746 24 24 24h27.055l-8 16H328a8 8 0 0 0 0 16h112a8 8 0 0 0 0-16h-11.055l-8-16H448c13.254 0 24-10.746 24-24v-72c0-13.254-10.746-24-24-24zm-128 16h20.688l-14.344 14.344a8 8 0 1 0 11.312 11.312l25.656-25.656H448a8 8 0 0 1 8 8v48h-36.688l18.344-18.344a8 8 0 0 0-11.312-11.312l-29.656 29.656H312v-48a8 8 0 0 1 8-8zm91.055 120h-54.11l8-16h38.11zm44.945-40a8 8 0 0 1-8 8H320a8 8 0 0 1-8-8v-8h144zm0 0M276 321.555l-96-56a8 8 0 0 0-8 13.824l96 56c3.785 1.898 8.395.52 10.516-3.145s1.015-8.347-2.516-10.68zm0 0M295.352 149.313a7.999 7.999 0 0 0-10.504-4.2l-112 48a8.005 8.005 0 0 0-4.684 8.961 8.003 8.003 0 0 0 7.836 6.39 7.814 7.814 0 0 0 3.152-.648l112-48a7.999 7.999 0 0 0 4.2-10.504zm0 0M381.816 199.809l-3.609 80.296a7.997 7.997 0 0 0 2.086 5.762 7.992 7.992 0 0 0 5.547 2.598h.367a8 8 0 0 0 8-7.64l3.61-80.298a8.008 8.008 0 0 0-16-.718zm0 0M116 264.465c-15.465 0-28-12.535-28-28a8 8 0 0 0-16 0c0 24.3 19.7 44 44 44s44-19.7 44-44-19.7-44-44-44a8 8 0 0 0 0 16c15.465 0 28 12.535 28 28s-12.535 28-28 28zm0 0"/></symbol><symbol fill="currentColor" viewBox="0 0 64 64" id="open-content" xmlns="http://www.w3.org/2000/svg"><path d="M31 2c-8.077 0-15.58 3.243-21.127 9.133C-.305 21.939-.57 39.103 9.27 50.205a28.836 28.836 0 0 0 10.457 7.516 3.013 3.013 0 0 0 2.41-.049 3.02 3.02 0 0 0 1.605-1.844l4.176-13.486c.42-1.358-.144-2.838-1.344-3.518a8.969 8.969 0 0 1-4.566-8.174c.175-4.633 4.087-8.512 8.722-8.646a8.932 8.932 0 0 1 6.541 2.54A8.924 8.924 0 0 1 40 31a9.01 9.01 0 0 1-4.596 7.838c-1.188.668-1.749 2.125-1.334 3.465l4.188 13.525a3.027 3.027 0 0 0 1.607 1.844c.762.354 1.64.372 2.408.049 4.02-1.692 7.537-4.222 10.457-7.516 9.84-11.103 9.575-28.266-.603-39.072C46.58 5.243 39.077 2 31 2zm0 2c7.52 0 14.505 3.02 19.67 8.504 9.476 10.06 9.723 26.04.562 36.377a26.828 26.828 0 0 1-9.736 6.996.96.96 0 0 1-.787-.02 1.016 1.016 0 0 1-.541-.62l-.867-2.801A22.976 22.976 0 0 0 54 31a22.917 22.917 0 0 0-8.516-17.865 1 1 0 1 0-1.26 1.55A20.929 20.929 0 0 1 52 31a20.982 20.982 0 0 1-13.291 19.523l-2.729-8.812c-.138-.445.035-.922.407-1.13A11.007 11.007 0 0 0 42 31c0-2.998-1.185-5.8-3.336-7.89-2.15-2.09-4.98-3.183-7.992-3.106-5.666.166-10.45 4.908-10.664 10.57a10.962 10.962 0 0 0 5.58 9.99c.387.22.564.719.42 1.186l-4.176 13.488a1.018 1.018 0 0 1-.543.62.957.957 0 0 1-.787.019 26.828 26.828 0 0 1-9.736-6.996c-9.16-10.337-8.914-26.315.562-36.377C16.494 7.02 23.48 4 31 4zm-.438 4.006a23.08 23.08 0 0 0-15.826 6.73 22.743 22.743 0 0 0-5.603 9.123 1.001 1.001 0 0 0 .949 1.31c.421 0 .813-.268.951-.689a20.795 20.795 0 0 1 5.12-8.33 21.081 21.081 0 0 1 18.187-5.884.998.998 0 0 0 1.144-.829 1.002 1.002 0 0 0-.83-1.146 22.885 22.885 0 0 0-4.092-.285zm8.096 1.38a1 1 0 0 0-.309 1.936c.71.265 1.416.573 2.1.918a1 1 0 0 0 .902-1.785 22.9 22.9 0 0 0-2.3-1.006 1 1 0 0 0-.393-.062zM9.138 29.083a1.008 1.008 0 0 0-1.05.945 1 1 0 0 0 .943 1.053l1.998.106.053.002a1.001 1.001 0 0 0 .055-2l-1.998-.106zm2.53 5.2a1.008 1.008 0 0 0-.398.001l-1.957.414a1.001 1.001 0 0 0 .414 1.96l1.957-.415c.54-.116.885-.647.771-1.187a.996.996 0 0 0-.787-.774zm1.432 4.782a1 1 0 0 0-.383.106l-1.783.906a1.002 1.002 0 0 0 .908 1.783l1.781-.906c.492-.25.69-.853.44-1.346a1.002 1.002 0 0 0-.963-.543zm3.004 4.198a.998.998 0 0 0-.723.254l-1.488 1.338a1 1 0 0 0 1.337 1.488l1.489-1.338a1 1 0 0 0-.615-1.742zm3.99 3.324a.999.999 0 0 0-1.014.437L17.988 48.7a1.002 1.002 0 0 0 .836 1.547 1 1 0 0 0 .84-.453l1.092-1.678a1 1 0 0 0-.662-1.53z"/></symbol><symbol fill="currentColor" viewBox="0 0 512 512" id="operating-system" xmlns="http://www.w3.org/2000/svg"><path d="M125.191 189.227c-21.764 0-38.387 10.453-38.387 38.216v49.869c0 27.762 16.623 38.216 38.387 38.216 21.593-.001 38.559-10.455 38.559-38.216v-49.869c0-27.763-16.966-38.216-38.559-38.216zm20.394 88.085c0 15.081-7.711 22.106-20.393 22.106-12.853 0-20.222-7.025-20.222-22.106v-49.869c0-15.081 7.369-22.107 20.222-22.107 12.682 0 20.393 7.026 20.393 22.107v49.869zM202.483 219.903c0-10.797 8.912-15.595 21.421-15.595 14.567 0 19.022 6.512 23.649 6.512 5.141 0 7.541-6.341 7.541-9.769 0-9.425-20.051-12.339-31.19-12.339-18.336 0-39.586 7.541-39.586 32.903 0 41.13 55.695 29.305 55.695 59.638 0 12.339-9.254 18.165-21.593 18.165-19.022 0-23.135-13.538-29.304-13.538-4.285 0-7.883 5.655-7.883 9.769 0 8.568 15.595 20.222 37.873 20.222 22.621 0 39.073-11.996 39.073-36.502 0-45.585-55.696-34.104-55.696-59.466zM440.183 231.305c-6.303-29.2-24.873-54.447-50.948-69.266a7.5 7.5 0 1 0-7.413 13.041c22.367 12.712 38.295 34.359 43.699 59.391a7.503 7.503 0 0 0 7.324 5.919 7.5 7.5 0 0 0 7.338-9.085z"/><path d="M471.317 234.086c-3.71-23.336-13.458-45.491-28.19-64.071-14.53-18.324-33.564-32.772-55.045-41.781a7.5 7.5 0 0 0-5.801 13.832c39.136 16.414 67.577 52.576 74.224 94.376a7.5 7.5 0 0 0 8.584 6.229 7.5 7.5 0 0 0 6.228-8.585z"/><path d="M352.68 79.49V54.034c0-10.831-8.812-19.643-19.642-19.643H19.642C8.812 34.392 0 43.203 0 54.034v403.932c0 10.831 8.812 19.643 19.642 19.643h313.396c10.831 0 19.642-8.812 19.642-19.643v-25.469C442.574 423.368 512 347.173 512 255.993S442.574 88.618 352.68 79.49zm-15 378.476a4.648 4.648 0 0 1-4.642 4.643H19.642A4.648 4.648 0 0 1 15 457.966V54.034a4.648 4.648 0 0 1 4.642-4.643h313.396a4.648 4.648 0 0 1 4.642 4.643v403.932zm15-227.048c7.867 5.719 12.85 14.986 12.85 25.075s-4.982 19.356-12.85 25.075v-50.15zm0 67.322c16.646-7.164 27.85-23.795 27.85-42.247 0-18.452-11.204-35.083-27.85-42.247v-18.622a63.611 63.611 0 0 1 29.84 19.257 63.458 63.458 0 0 1 15.536 41.612c0 15.3-5.518 30.077-15.536 41.612a63.613 63.613 0 0 1-29.84 19.258V298.24zm0 119.185v-85.051a78.576 78.576 0 0 0 41.165-24.932 78.46 78.46 0 0 0 19.211-51.448 78.458 78.458 0 0 0-19.211-51.448 78.566 78.566 0 0 0-41.165-24.932V94.562C434.23 103.617 497 173.036 497 255.993s-62.77 152.376-144.32 161.432z"/><path d="M311.676 268.579a7.502 7.502 0 0 0-8.507 6.334c-4.07 27.794-16.752 53.018-36.677 72.942-50.658 50.66-133.086 50.66-183.746.001-19.925-19.926-32.607-45.149-36.677-72.943-.6-4.098-4.405-6.926-8.507-6.334a7.499 7.499 0 0 0-6.334 8.508c4.54 31.011 18.688 59.15 40.912 81.376 28.253 28.253 65.367 42.38 102.479 42.38s74.226-14.127 102.479-42.38c22.225-22.226 36.372-50.364 40.913-81.376a7.502 7.502 0 0 0-6.335-8.508zM318.011 234.888c-4.538-31.015-18.686-59.158-40.913-81.385-56.507-56.506-148.452-56.506-204.959 0-22.303 22.304-36.465 50.548-40.957 81.68a7.5 7.5 0 0 0 7.433 8.572 7.502 7.502 0 0 0 7.414-6.43c4.025-27.903 16.721-53.22 36.716-73.215 50.659-50.66 133.087-50.66 183.746 0 19.927 19.927 32.61 45.152 36.678 72.95a7.5 7.5 0 1 0 14.842-2.172z"/></symbol><symbol fill="currentColor" viewBox="0 0 511.999 511.999" id="paintbrush" xmlns="http://www.w3.org/2000/svg"><path d="M509.067 80.055c-3.9-3.9-10.24-3.9-14.14 0-3.91 3.91-3.91 10.24 0 14.14 3.9 3.91 10.24 3.91 14.14 0 3.91-3.9 3.91-10.23 0-14.14zM480.786 23.485c-3.91-3.9-10.24-3.9-14.15 0-3.9 3.91-3.9 10.24 0 14.14a10 10 0 0 0 14.15 0c3.901-3.9 3.901-10.23 0-14.14zM410.076 9.345c-3.91-3.9-10.24-3.9-14.15 0-3.9 3.91-3.9 10.24 0 14.14a10 10 0 0 0 14.15 0c3.901-3.9 3.901-10.23 0-14.14zM59.977 445.605c-3.91-3.899-10.24-3.899-14.15 0-3.9 3.91-3.9 10.24 0 14.15 3.91 3.9 10.24 3.9 14.15 0 3.899-3.91 3.899-10.24 0-14.15zM141.281 362.808c-3.953-3.856-10.284-3.779-14.141.174l-53.11 54.43c-3.857 3.952-3.779 10.283.173 14.141a9.97 9.97 0 0 0 6.983 2.843 9.966 9.966 0 0 0 7.158-3.017l53.11-54.43c3.857-3.952 3.778-10.283-.173-14.141z"/><path d="M466.638 235.623l-35.272-35.271a12.068 12.068 0 0 0-.16-.16l-42.276-42.276-.148-.148-42.273-42.273a10.049 10.049 0 0 0-.146-.146l-42.285-42.285a9.775 9.775 0 0 0-.144-.144l-35.285-35.285a10.001 10.001 0 0 0-14.142 0L141.378 150.761l-14.155 14.146c-19.488 19.5-19.487 51.221.002 70.71l28.291 28.29c1.888 1.889 2.928 4.398 2.928 7.068s-1.04 5.181-2.928 7.069l-13.951 13.95-121.14 108.492-.014.013a64.011 64.011 0 0 0-2.866 2.685c-23.394 23.394-23.394 61.459 0 84.853 11.315 11.314 26.382 17.546 42.426 17.546 16.043 0 31.111-6.231 42.424-17.544a62.71 62.71 0 0 0 2.755-2.943l.006-.008.014-.015 107.151-122.41 13.906-13.907c3.898-3.898 10.24-3.897 14.139.001l28.287 28.276c9.443 9.45 21.999 14.654 35.353 14.654s25.91-5.204 35.349-14.649l14.153-14.142 113.129-113.13c3.905-3.905 3.905-10.237.001-14.143zM90.123 471.899a43.223 43.223 0 0 1-1.867 1.995c-7.538 7.538-17.582 11.688-28.284 11.688s-20.746-4.15-28.283-11.688c-15.596-15.596-15.596-40.972-.002-56.565a44.57 44.57 0 0 1 2.021-1.89l.029-.028.033-.027 114.3-102.365 43.261 43.261L90.123 471.899zm235.091-109.002c-5.665 5.669-13.197 8.791-21.207 8.791-8.01 0-15.541-3.122-21.21-8.795l-28.289-28.279c-11.695-11.695-30.726-11.694-42.422 0l-7.069 7.069-42.427-42.427 7.068-7.068c5.666-5.667 8.786-13.2 8.786-21.212s-3.121-15.545-8.786-21.211l-28.29-28.29c-11.694-11.693-11.693-30.728-.003-42.425l7.079-7.074 183.848 183.848-7.078 7.073zm21.224-21.213L162.589 157.835l98.987-98.987 21.217 21.217-49.497 49.489c-3.906 3.904-3.906 10.236-.001 14.142a9.97 9.97 0 0 0 7.072 2.93 9.968 9.968 0 0 0 7.07-2.929l49.499-49.49 28.288 28.288-49.498 49.489c-3.906 3.904-3.906 10.236-.001 14.142a9.97 9.97 0 0 0 7.072 2.93 9.968 9.968 0 0 0 7.07-2.929l49.499-49.49 28.278 28.278-49.497 49.489c-3.906 3.904-3.906 10.236-.001 14.142a9.97 9.97 0 0 0 7.072 2.93 9.968 9.968 0 0 0 7.07-2.929l49.498-49.49 28.288 28.288-49.497 49.489c-3.906 3.904-3.906 10.236-.001 14.142a9.97 9.97 0 0 0 7.072 2.93 9.968 9.968 0 0 0 7.07-2.929l49.499-49.49 21.209 21.209-98.988 98.988zM381.788 37.634c-3.905-3.904-10.237-3.904-14.143 0l-28.28 28.28c-3.905 3.905-3.905 10.237 0 14.143a9.976 9.976 0 0 0 7.072 2.929 9.97 9.97 0 0 0 7.071-2.929l28.28-28.28c3.905-3.905 3.905-10.237 0-14.143zM325.218 9.343c-3.905-3.903-10.237-3.904-14.142 0l-14.14 14.14c-3.905 3.905-3.906 10.237 0 14.143a9.968 9.968 0 0 0 7.071 2.929 9.97 9.97 0 0 0 7.071-2.929l14.14-14.14c3.905-3.905 3.906-10.237 0-14.143zM452.498 51.774c-3.905-3.904-10.237-3.904-14.143 0l-56.57 56.57c-3.904 3.905-3.904 10.238.001 14.143 1.953 1.952 4.512 2.929 7.071 2.929s5.119-.977 7.071-2.929l56.57-56.57c3.905-3.905 3.905-10.237 0-14.143zM480.789 108.345c-3.905-3.907-10.236-3.906-14.142-.002l-42.43 42.42c-3.906 3.905-3.906 10.236-.001 14.143a9.97 9.97 0 0 0 7.072 2.93 9.971 9.971 0 0 0 7.07-2.928l42.43-42.42c3.905-3.905 3.905-10.236.001-14.143zM494.928 179.054c-3.905-3.904-10.237-3.904-14.142 0l-14.14 14.14c-3.905 3.905-3.905 10.237 0 14.143 1.953 1.952 4.512 2.929 7.071 2.929s5.119-.977 7.071-2.929l14.14-14.14c3.905-3.905 3.905-10.237 0-14.143z"/></symbol><symbol fill="currentColor" viewBox="0 0 512 512" id="platform" xmlns="http://www.w3.org/2000/svg"><path d="M375.396 369.964c-4.143 0-7.5 3.357-7.5 7.5s3.357 7.5 7.5 7.5h1.941c4.143 0 7.5-3.357 7.5-7.5s-3.357-7.5-7.5-7.5h-1.941zM350.158 263.98h14.561c4.143 0 7.5-3.357 7.5-7.5s-3.357-7.5-7.5-7.5h-14.561c-4.143 0-7.5 3.357-7.5 7.5s3.358 7.5 7.5 7.5zM350.158 235.175h29.121c4.143 0 7.5-3.357 7.5-7.5s-3.357-7.5-7.5-7.5h-29.121c-4.143 0-7.5 3.357-7.5 7.5s3.358 7.5 7.5 7.5zM350.158 292.786h29.121c4.143 0 7.5-3.357 7.5-7.5s-3.357-7.5-7.5-7.5h-29.121c-4.143 0-7.5 3.357-7.5 7.5s3.358 7.5 7.5 7.5z"/><path d="M405.488 181.768h-29.121c-4.143 0-7.5 3.357-7.5 7.5s3.357 7.5 7.5 7.5h21.621v144.391h-91.777V196.768h22.106c4.143 0 7.5-3.357 7.5-7.5s-3.357-7.5-7.5-7.5h-29.606a7.499 7.499 0 0 0-7.5 7.5v231.404c0 4.143 3.357 7.5 7.5 7.5h22.943c3.068 8.394 11.136 14.403 20.58 14.403h19.73c12.077 0 21.902-9.825 21.902-21.902 0-12.077-9.825-21.903-21.902-21.903h-19.73c-9.443 0-17.51 6.007-20.579 14.402h-15.444v-57.014h91.777v57.014h-2.207c-4.143 0-7.5 3.357-7.5 7.5s3.357 7.5 7.5 7.5h9.707c4.143 0 7.5-3.357 7.5-7.5V189.268c0-4.143-3.357-7.5-7.5-7.5zM342.234 413.77h19.73a6.91 6.91 0 0 1 6.902 6.903 6.91 6.91 0 0 1-6.902 6.902h-19.73a6.91 6.91 0 0 1-6.902-6.902 6.91 6.91 0 0 1 6.902-6.903zM201.641 164.632c-4.142 0-7.5 3.357-7.5 7.5s3.358 7.5 7.5 7.5h46.594c4.142 0 7.5-3.357 7.5-7.5s-3.358-7.5-7.5-7.5h-46.594zM230.762 251.049c-4.142 0-7.5 3.357-7.5 7.5s3.358 7.5 7.5 7.5h1.941c4.142 0 7.5-3.357 7.5-7.5s-3.358-7.5-7.5-7.5h-1.941zM201.641 251.049c-4.142 0-7.5 3.357-7.5 7.5s3.358 7.5 7.5 7.5h1.941c4.142 0 7.5-3.357 7.5-7.5s-3.358-7.5-7.5-7.5h-1.941zM254.021 229.743a7.5 7.5 0 0 0-7.5-7.5H201.64c-4.142 0-7.5 3.357-7.5 7.5s3.358 7.5 7.5 7.5h44.881c4.143 0 7.5-3.357 7.5-7.5zM201.641 208.438h9.707c4.142 0 7.5-3.357 7.5-7.5s-3.358-7.5-7.5-7.5h-9.707c-4.142 0-7.5 3.357-7.5 7.5s3.358 7.5 7.5 7.5zM201.641 122.021h106.777c4.143 0 7.5-3.357 7.5-7.5s-3.357-7.5-7.5-7.5H201.641c-4.142 0-7.5 3.357-7.5 7.5s3.358 7.5 7.5 7.5z"/><path d="M351.008 196.768h1.941c4.143 0 7.5-3.357 7.5-7.5s-3.357-7.5-7.5-7.5h-1.941a7.499 7.499 0 0 0-7.5 7.5 7.5 7.5 0 0 0 7.5 7.5zM351.129 369.964c-4.143 0-7.5 3.357-7.5 7.5s3.357 7.5 7.5 7.5h1.941c4.143 0 7.5-3.357 7.5-7.5s-3.357-7.5-7.5-7.5h-1.941zM201.641 150.826h49.282c4.142 0 7.5-3.357 7.5-7.5s-3.357-7.5-7.5-7.5h-49.282c-4.142 0-7.5 3.357-7.5 7.5s3.358 7.5 7.5 7.5zM63.801 122.021h1.941c4.142 0 7.5-3.357 7.5-7.5s-3.358-7.5-7.5-7.5h-1.941c-4.142 0-7.5 3.357-7.5 7.5s3.358 7.5 7.5 7.5zM94.863 208.438h19.414c4.142 0 7.5-3.357 7.5-7.5s-3.358-7.5-7.5-7.5H94.863c-4.142 0-7.5 3.357-7.5 7.5s3.358 7.5 7.5 7.5zM63.801 150.826h1.941c4.142 0 7.5-3.357 7.5-7.5s-3.358-7.5-7.5-7.5h-1.941c-4.142 0-7.5 3.357-7.5 7.5s3.358 7.5 7.5 7.5zM63.801 208.438h1.941c4.142 0 7.5-3.357 7.5-7.5s-3.358-7.5-7.5-7.5h-1.941c-4.142 0-7.5 3.357-7.5 7.5s3.358 7.5 7.5 7.5zM63.801 179.632h1.941c4.142 0 7.5-3.357 7.5-7.5s-3.358-7.5-7.5-7.5h-1.941c-4.142 0-7.5 3.357-7.5 7.5s3.358 7.5 7.5 7.5z"/><path d="M504.5 312.352h-21.621V70.204c0-14.725-12.073-26.704-26.914-26.704H56.035c-14.84 0-26.914 11.979-26.914 26.704v242.149H7.5a7.5 7.5 0 0 0-7.5 7.5c0 25.313 20.783 45.908 46.328 45.906H240.47c4.142 0 7.5-3.357 7.5-7.5s-3.358-7.5-7.5-7.5H46.329c-14.654 0-26.99-9.977-30.396-23.408h182.994a22.1 22.1 0 0 0 18.245 9.603h23.297c4.142 0 7.5-3.357 7.5-7.5s-3.358-7.5-7.5-7.5h-23.297c-3.894 0-7.061-3.096-7.061-6.903 0-3.805 3.168-6.902 7.061-6.902h23.54c4.142 0 7.5-3.357 7.5-7.5s-3.358-7.5-7.5-7.5h-23.54c-11.244 0-20.55 8.395-21.894 19.203h-24.965V91.442h297.565v220.911h-4.148c-4.143 0-7.5 3.357-7.5 7.5s3.357 7.5 7.5 7.5h32.338c-3.407 13.43-15.743 23.408-30.396 23.408h-3.397c-4.143 0-7.5 3.357-7.5 7.5s3.357 7.5 7.5 7.5h3.397c25.545 0 46.328-20.595 46.328-45.908a7.5 7.5 0 0 0-7.5-7.501zm-349.188 0H44.121V91.442h111.191v220.91zm312.567-235.91H44.121v-6.238c0-6.454 5.345-11.704 11.914-11.704h399.93c6.569 0 11.914 5.25 11.914 11.704v6.238z"/><path d="M94.863 179.632h38.828c4.142 0 7.5-3.357 7.5-7.5s-3.358-7.5-7.5-7.5H94.863c-4.142 0-7.5 3.357-7.5 7.5s3.358 7.5 7.5 7.5zM327.832 248.98h-1.941c-4.143 0-7.5 3.357-7.5 7.5s3.357 7.5 7.5 7.5h1.941c4.143 0 7.5-3.357 7.5-7.5s-3.357-7.5-7.5-7.5zM327.832 277.786h-1.941c-4.143 0-7.5 3.357-7.5 7.5s3.357 7.5 7.5 7.5h1.941c4.143 0 7.5-3.357 7.5-7.5s-3.357-7.5-7.5-7.5zM326.861 369.964c-4.143 0-7.5 3.357-7.5 7.5s3.357 7.5 7.5 7.5h1.941c4.143 0 7.5-3.357 7.5-7.5s-3.357-7.5-7.5-7.5h-1.941zM327.832 220.175h-1.941c-4.143 0-7.5 3.357-7.5 7.5s3.357 7.5 7.5 7.5h1.941c4.143 0 7.5-3.357 7.5-7.5s-3.357-7.5-7.5-7.5zM94.863 150.826h19.414c4.142 0 7.5-3.357 7.5-7.5s-3.358-7.5-7.5-7.5H94.863c-4.142 0-7.5 3.357-7.5 7.5s3.358 7.5 7.5 7.5zM94.863 122.021h38.828c4.142 0 7.5-3.357 7.5-7.5s-3.358-7.5-7.5-7.5H94.863c-4.142 0-7.5 3.357-7.5 7.5s3.358 7.5 7.5 7.5z"/><path d="M424.61 154.754H279.59c-9.649 0-17.5 7.851-17.5 17.5v78.8a7.817 7.817 0 0 0-.266-.005h-1.941c-4.142 0-7.5 3.357-7.5 7.5s3.358 7.5 7.5 7.5h1.941c.089 0 .178-.002.266-.005V451c0 9.649 7.851 17.5 17.5 17.5h145.019c9.649 0 17.5-7.851 17.5-17.5V172.254c0-9.65-7.85-17.5-17.499-17.5zM427.11 451c0 1.379-1.121 2.5-2.5 2.5H279.59a2.502 2.502 0 0 1-2.5-2.5V172.254c0-1.379 1.121-2.5 2.5-2.5h145.019c1.379 0 2.5 1.121 2.5 2.5h.001V451z"/></symbol><symbol fill="currentColor" viewBox="0 0 511.998 511.998" id="standards" xmlns="http://www.w3.org/2000/svg"><path d="M361.927 95.384h-14.483c-2.207-4.476-6.805-7.569-12.124-7.569h-22.089c-5.319 0-9.917 3.094-12.125 7.569h-21.937a13.592 13.592 0 0 0-5.127-5.596V67.596a7.5 7.5 0 0 0-7.5-7.5 7.5 7.5 0 0 0-7.5 7.5v20.219h-6.085V18.044c0-1.649 1.393-3.043 3.042-3.043s3.042 1.394 3.042 3.043v15.803a7.5 7.5 0 0 0 7.5 7.5 7.5 7.5 0 0 0 7.5-7.5V18.043C274.042 8.094 265.95 0 256 0c-9.949 0-18.042 8.094-18.042 18.043v71.744a13.592 13.592 0 0 0-5.127 5.596h-21.937c-2.207-4.476-6.806-7.569-12.125-7.569H176.68c-5.319 0-9.917 3.094-12.124 7.569h-14.483c-9.949 0-18.042 8.094-18.042 18.043 0 9.948 8.094 18.042 18.042 18.042h13.083v266.169c0 7.279 3.725 13.865 9.964 17.615 6.239 3.751 13.803 3.95 20.23.535l44.607-23.698v101.867c0 9.948 8.094 18.042 18.042 18.042s18.042-8.094 18.042-18.042V392.089l44.606 23.697a20.536 20.536 0 0 0 9.651 2.427c3.654 0 7.3-.99 10.579-2.962 6.239-3.75 9.964-10.336 9.964-17.615V131.469h13.083c9.949 0 18.042-8.094 18.042-18.042.003-9.949-8.091-18.043-18.039-18.043zm-198.769 21.085h-13.083c-1.649 0-3.042-1.393-3.042-3.042s1.393-3.043 3.042-3.043h13.083v6.085zm117.412-6.085h19.137v6.085H280.57v-6.085zm-68.276 0h19.137v6.085h-19.137v-6.085zm46.75 383.574c0 1.649-1.393 3.042-3.042 3.042s-3.042-1.393-3.042-3.042V384.122l3.042-1.616 3.042 1.616v109.836zm74.8-96.321c0 2.836-1.882 4.273-2.692 4.759-.81.487-2.962 1.475-5.465.146l-62.189-33.038v-30.908a7.5 7.5 0 0 0-7.5-7.5 7.5 7.5 0 0 0-7.5 7.5v30.912l-62.183 33.035c-2.503 1.329-4.655.342-5.465-.146-.81-.486-2.692-1.924-2.692-4.759V102.814h19.137v31.992a7.5 7.5 0 0 0 7.5 7.5h34.137a7.5 7.5 0 0 0 7.5-7.5v-31.992h2.066v202.531a7.5 7.5 0 0 0 7.5 7.5 7.5 7.5 0 0 0 7.5-7.5V102.814h2.072v31.992a7.5 7.5 0 0 0 7.5 7.5h34.137a7.5 7.5 0 0 0 7.5-7.5v-31.992h19.137v294.823zm28.083-281.168h-13.083v-6.085h13.083c1.649 0 3.042 1.394 3.042 3.043s-1.393 3.042-3.042 3.042z"/></symbol><symbol fill="currentColor" viewBox="0 0 512.003 512.003" id="stocks" xmlns="http://www.w3.org/2000/svg"><path d="M265.221 113.107a7.499 7.499 0 0 0 7.394-8.803l-1.538-8.722a7.5 7.5 0 0 0-8.689-6.083 7.499 7.499 0 0 0-6.083 8.688l1.538 8.722a7.504 7.504 0 0 0 7.378 6.198zM170.583 222.718a7.5 7.5 0 1 0 2.604 14.772l118.541-20.902a7.5 7.5 0 0 0 6.084-8.688c-.719-4.079-4.608-6.808-8.689-6.083l-118.54 20.901zM165.995 114.111c-.719-4.079-4.604-6.808-8.688-6.084a7.5 7.5 0 0 0-6.084 8.688l1.538 8.722a7.502 7.502 0 0 0 14.773-2.604l-1.539-8.722zM105.964 276.77c-9.778-1.724-19.648.463-27.784 6.159-8.135 5.697-13.566 14.222-15.29 24.002-1.725 9.781.463 19.648 6.16 27.784s14.221 13.565 24.002 15.29c2.175.384 4.338.569 6.475.569 17.695 0 33.423-12.714 36.6-30.729 3.559-20.191-9.972-39.516-30.163-43.075zm15.389 40.47c-2.124 12.046-13.656 20.114-25.698 17.994a22.035 22.035 0 0 1-14.319-9.123 22.03 22.03 0 0 1-3.674-16.574 22.041 22.041 0 0 1 9.122-14.32c3.771-2.641 8.166-4.017 12.677-4.017 1.294 0 2.598.113 3.899.343 12.045 2.122 20.117 13.651 17.993 25.697z"/><path d="M508.246 39.718a16.012 16.012 0 0 0-12.296-5.733h-55.396A40.828 40.828 0 0 0 400.29 67.77l-7.675 43.529-18.827 106.776-29.869-169.394c-1.873-10.621-7.77-19.877-16.604-26.063s-19.55-8.563-30.169-6.687L127.78 45.794c-37.526 6.617-62.673 42.53-56.056 80.057l7.763 44.025c.72 4.079 4.609 6.806 8.688 6.083a7.5 7.5 0 0 0 6.084-8.689l-4.275-24.246v-.001c-.542-3.071-.457-8.273 1.566-12.825 2.026-4.559 5.393-7.195 10.294-8.059 21.924-3.866 36.617-24.849 32.751-46.774-.864-4.9.461-8.966 4.053-12.429 3.585-3.457 8.444-5.316 11.516-5.858l.007-.001L299.75 30.703c13.782-2.431 26.967 6.804 29.397 20.584l31.292 177.469h-18.126a48.896 48.896 0 0 0-48.222 40.463 48.977 48.977 0 0 0-.342 14.694l-184.663-32.561-8.642-49.008c-.719-4.078-4.608-6.806-8.688-6.083a7.5 7.5 0 0 0-6.084 8.689l7.693 43.631-41.915-7.391c-9.88-1.75-19.33 4.876-21.072 14.753L.281 426.625a18.075 18.075 0 0 0 3.014 13.592 18.039 18.039 0 0 0 9.044 6.768c.03.01.056.026.086.036.068.023.132.037.199.059.32.102.64.203.967.288.487.131.964.243 1.433.327l.025.003 276.315 48.722c1.064.189 2.123.278 3.168.278 8.655-.001 16.349-6.219 17.904-15.031l2.693-15.27c16.738 14.205 38.389 22.789 62.01 22.789 18.786 0 36.982-5.43 52.622-15.702a7.5 7.5 0 0 0 2.151-10.386 7.497 7.497 0 0 0-10.386-2.151c-13.186 8.661-28.535 13.239-44.387 13.239-44.646 0-80.967-36.321-80.967-80.967 0-8.785 1.388-17.32 4.017-25.362.151-.355.276-.719.37-1.091 5.701-16.627 16.753-31.063 31.917-41.087a49.134 49.134 0 0 0 9.837 1.008h22.119a48.854 48.854 0 0 0 32.201-12.064c35.843 8.85 61.474 41.303 61.474 78.596 0 16.081-4.702 31.616-13.596 44.926a7.498 7.498 0 0 0 2.069 10.402 7.494 7.494 0 0 0 10.403-2.068c10.549-15.785 16.124-34.202 16.124-53.26 0-41.825-27.215-78.505-66.143-91.217a49.018 49.018 0 0 0 5.69-15.778l29.292-166.122h12.995a53.496 53.496 0 0 0 52.76-44.271l4.057-23.009a16.02 16.02 0 0 0-3.512-13.104zM119.823 77.971c2.43 13.779-6.804 26.967-20.583 29.397-5.207.918-9.79 3.047-13.553 6.201.107-22.454 14.266-42.675 35.329-50.456-1.678 4.616-2.111 9.65-1.193 14.858zM33.781 435.77l81.891-57.34c5.086-3.56 12.119-2.32 15.68 2.765l14.576 20.817.004.006.004.004 42.757 61.063L33.781 435.77zm268.454 17.367l-4.571 25.925c-.305 1.732-1.965 2.884-3.694 2.587l-84.386-14.88-47.062-67.211 79.697-55.804a22.054 22.054 0 0 1 16.588-3.678 22.052 22.052 0 0 1 14.331 9.129l11.87 16.952a96.81 96.81 0 0 0-3.836 27.061c0 22.65 7.892 43.487 21.063 59.919zm-10.604-103.672l-6.206-8.863c-5.7-8.14-14.228-13.572-24.013-15.298-9.788-1.725-19.658.464-27.797 6.163l-79.697 55.803-10.279-14.68c-8.304-11.859-24.709-14.751-36.57-6.448l-91.97 64.398a3.119 3.119 0 0 1-.045-1.311L45.15 258.546a3.195 3.195 0 0 1 3.694-2.587l52.413 9.242.061.011 197.4 34.807a49.122 49.122 0 0 0 6.085 9.177 49.005 49.005 0 0 0 11.35 9.91c-10.305 8.439-18.601 18.774-24.522 30.359zm106.25-65.846a33.892 33.892 0 0 1-8.664 17.34 7.47 7.47 0 0 0-.591.615 33.898 33.898 0 0 1-24.195 10.114h-22.119a33.885 33.885 0 0 1-26.019-12.133 33.888 33.888 0 0 1-7.431-27.731 33.916 33.916 0 0 1 33.45-28.067h27.033l.022.001.023-.001h8.807a7.5 7.5 0 0 0 7.386-6.197l20.71-117.456h20.419l-28.831 163.515zm95.046-210.393a38.516 38.516 0 0 1-37.987 31.876h-46.002l6.124-34.727a25.849 25.849 0 0 1 25.491-21.391h55.396c.325 0 .596.126.805.375.209.249.286.538.229.857l-4.056 23.01z"/><path d="M368.391 346.59c-7.2-3.602-15.588-3.223-22.438 1.009-6.849 4.232-10.938 11.566-10.938 19.617v52.005c0 8.051 4.088 15.385 10.937 19.617 3.727 2.304 7.91 3.466 12.11 3.466 3.517 0 7.046-.815 10.327-2.456l52.005-26.003c7.863-3.931 12.747-11.834 12.748-20.625 0-8.792-4.884-16.696-12.748-20.628l-52.003-26.002zm45.297 53.839l-52.005 26.003c-2.553 1.276-5.414 1.147-7.843-.354-2.43-1.502-3.823-4.001-3.823-6.857v-52.005c0-2.856 1.393-5.355 3.823-6.857 1.32-.815 2.767-1.226 4.222-1.226 1.224 0 2.454.29 3.621.873l52.004 26.002c2.79 1.396 4.457 4.091 4.457 7.211 0 3.119-1.666 5.815-4.456 7.21zM158.354 196.561a7.501 7.501 0 0 0 8.688 6.083l118.541-20.902a7.5 7.5 0 0 0-2.604-14.771l-118.542 20.902a7.5 7.5 0 0 0-6.083 8.688zM210.636 129.351a26.158 26.158 0 0 0 22.397-12.667 7.5 7.5 0 1 0-12.848-7.742 11.16 11.16 0 0 1-7.618 5.239 11.18 11.18 0 0 1-8.951-2.317 7.5 7.5 0 1 0-9.425 11.67 26.17 26.17 0 0 0 16.445 5.817z"/></symbol><symbol fill="currentColor" viewBox="-64 0 496 496" id="student-packs" xmlns="http://www.w3.org/2000/svg"><path d="M152 200a8 8 0 1 1-16 0 8 8 0 0 1 16 0zm0 0M232 200a8 8 0 1 1-16 0 8 8 0 0 1 16 0zm0 0M184 264c-8.824 0-16-7.176-16-16h-16c0 17.648 14.352 32 32 32s32-14.352 32-32h-16c0 8.824-7.176 16-16 16zm0 0"/><path d="M368 48V16c0-8.824-7.176-16-16-16H16C7.176 0 0 7.176 0 16v32c0 8.824 7.176 16 16 16h32v61.77l5.473 1.824c.597.199 5.437 1.765 13.976 3.855A119.667 119.667 0 0 0 64 160v48c0 7.176-2.488 10.281-6.238 14.977C53.406 228.407 48 235.16 48 247.96c0 12.8 5.406 19.566 9.762 25C61.52 277.656 64 280.77 64 287.953c0 7.2-2.625 10.488-6.246 15.024-4.348 5.43-9.754 12.191-9.754 25 0 3.312.367 6.351 1.09 9.222-19.793 8.938-33.09 28.848-33.09 51V496h336V388.2c0-22.153-13.29-42.063-33.078-50.993.719-2.871 1.078-5.918 1.078-9.23 0-12.809-5.406-19.57-9.754-25-3.621-4.536-6.246-7.817-6.246-15.024 0-7.183 2.488-10.297 6.238-14.992 4.356-5.434 9.762-12.191 9.762-25s-5.406-19.555-9.762-24.984C306.488 218.28 304 215.176 304 208v-48a119.78 119.78 0 0 0-3.45-28.559c8.54-2.082 13.38-3.656 13.977-3.855L320 125.77V64h16v82.062c-4.742 2.547-8.215 7.227-8.93 12.883l-6.886 55.117a22.82 22.82 0 0 0-.184 2.875c0 12.72 10.344 23.063 23.062 23.063h1.875c12.72 0 23.063-10.344 23.063-23.063 0-.96-.063-1.921-.176-2.859l-6.887-55.14c-.714-5.649-4.183-10.329-8.93-12.876V64C360.825 64 368 56.824 368 48zm-23.063 176h-1.875a7.07 7.07 0 0 1-7.007-7.938l6.89-55.125c.07-.53.528-.937 1.055-.937s.984.406 1.055.93l6.89 55.148c.04.281.055.57.055.86a7.07 7.07 0 0 1-7.063 7.062zm-172.671-80.145c-16.961 14.45-37.938 22.747-60.266 23.887V152H96v16.809c-5.945 1.214-11.328 3.855-16 7.39V160c0-8.535 1.055-16.96 3.09-25.145 20.36 3.993 50.652 8.258 89.176 9zM272 185.473c9.29 3.312 16 12.113 16 22.527s-6.71 19.215-16 22.527zm-48 133.726C220.191 338.207 203.375 352 184 352s-36.191-13.793-40-32.816v-8.903c12.016 6.168 25.594 9.719 40 9.719s27.984-3.55 40-9.71zM184 304c-39.703 0-72-32.297-72-72v-48.23c26.762-1.176 51.93-11.176 72-28.81 20.07 17.626 45.238 27.626 72 28.81V232c0 39.703-32.297 72-72 72zM80 208c0-10.414 6.71-19.215 16-22.527v45.047c-9.29-3.305-16-12.106-16-22.52zm-9.754 104.969c4.348-5.442 9.754-12.2 9.754-25.016 0-12.808-5.406-19.562-9.754-24.992-3.758-4.703-6.246-7.8-6.246-15 0-7.184 2.488-10.29 6.238-14.984.45-.563.907-1.137 1.371-1.73a40.193 40.193 0 0 0 25.817 16.058A87.98 87.98 0 0 0 128 299.825v14.144l-63.617 18.168a22.926 22.926 0 0 1-.383-4.16c0-7.192 2.488-10.305 6.246-15.008zM104 480H32v-48h32v16H48v16h72c10.434 0 19.328 6.688 22.633 16zm72 0h-16.809c-3.718-18.23-19.87-32-39.191-32h-8v-64h40c13.23 0 24 10.77 24 24zm16 0v-72c0-13.23 10.77-24 24-24h40v64h-8c-19.313 0-35.473 13.77-39.191 32zm72 0h-38.633c3.305-9.313 12.2-16 22.633-16h72v-16h-16v-16h32v48zm72-91.8V416h-32v-16h-16v48h-16v-80h-56c-13.129 0-24.703 6.45-32 16.246C176.703 374.45 165.129 368 152 368H96v80H80v-48H64v16H32v-27.8c0-17.766 11.93-33.575 29.008-38.458l69.52-19.863C138.39 352.336 159.68 368 184 368c24.129 0 45.313-15.414 53.434-38.129l69.558 19.883C324.07 354.625 336 370.44 336 388.199zm-38.238-155.223c3.758 4.695 6.238 7.8 6.238 14.984 0 7.191-2.488 10.297-6.246 15-4.348 5.43-9.754 12.191-9.754 24.992 0 12.817 5.406 19.574 9.754 25.016 3.758 4.703 6.246 7.816 6.246 15.008 0 1.625-.168 2.953-.39 4.16L240 313.969v-14.145a88 88 0 0 0 30.574-52.496c10.61-1.77 19.785-7.68 25.832-16.07.45.59.906 1.168 1.356 1.719zM288 160v16.207c-4.672-3.535-10.055-6.184-16-7.39V152h-16v15.742c-22.328-1.133-43.305-9.43-60.266-23.887 38.524-.742 68.817-5.007 89.176-9A104.093 104.093 0 0 1 288 160zM79.656 48v16H304v50.008C289.414 117.984 246.473 128 184 128S78.586 117.984 64 114.008V48H16V16h336v32zm0 0"/><path d="M128 400h32v16h-32zm0 0M208 400h32v16h-32zm0 0M208 432h16v16h-16zm0 0M144 432h16v16h-16zm0 0"/></symbol><symbol fill="currentColor" viewBox="0 0 512 512" id="study" xmlns="http://www.w3.org/2000/svg"><path d="M509.07 93.916l-91-90.987A9.999 9.999 0 0 0 411 0H114C97.458 0 84 13.458 84 30v19.064C34.875 68.334 0 116.215 0 172.091c0 5.522 4.478 10 10 10h122.091c5.522 0 10-4.478 10-10V50c0-5.522-4.478-10-10-10-9.638 0-19.034 1.047-28.091 3.017V30c0-5.514 4.486-10 10-10h287v61c0 16.542 13.458 30 30 30h61v371c0 5.514-4.486 10-10 10H114c-5.514 0-10-4.486-10-10v-85.667c0-5.522-4.478-10-10-10s-10 4.478-10 10V482c0 16.542 13.458 30 30 30h368c16.542 0 30-13.458 30-30V100.987a9.998 9.998 0 0 0-2.93-7.071zM122.09 60.443v101.648H20.442c4.781-53.848 47.801-96.867 101.648-101.648zM431 91c-5.514 0-10-4.486-10-10V34.14L477.868 91H431z"/><path d="M101.069 352.93C99.21 351.069 96.63 350 94 350s-5.21 1.069-7.07 2.93C85.07 354.79 84 357.37 84 360s1.069 5.21 2.93 7.069C88.79 368.93 91.37 370 94 370s5.21-1.07 7.069-2.931C102.93 365.21 104 362.63 104 360s-1.07-5.21-2.931-7.07zM167.909 75.819c-5.522 0-10 4.478-10 10v112.09H45.819c-5.522 0-10 4.478-10 10C35.819 280.744 95.074 340 167.909 340S300 280.744 300 207.909s-59.256-132.09-132.091-132.09zm10 20.443c23.41 2.078 44.771 11.388 61.836 25.67l-61.836 61.835V96.262zm-10 223.738c-58.437 0-106.574-44.949-111.647-102.091h111.647a9.969 9.969 0 0 0 7.068-2.926l.004-.003 78.909-78.908c16.291 19.467 26.11 44.527 26.11 71.837C280 269.716 229.716 320 167.909 320zM438.073 315.605c-16.542 0-30 13.458-30 30 0 4.146.846 8.097 2.373 11.692l-57.613 57.613a29.819 29.819 0 0 0-13.095-3.014 29.821 29.821 0 0 0-12.81 2.879l-38.258-38.258a29.845 29.845 0 0 0 2.062-10.913c0-16.542-13.458-30-30-30s-30 13.458-30 30c0 4.482.995 8.734 2.765 12.557l-36.695 36.695a29.808 29.808 0 0 0-12.897-2.919c-16.542 0-30 13.458-30 30s13.458 30 30 30 30-13.458 30-30c0-4.637-1.058-9.031-2.944-12.954l36.49-36.49a29.802 29.802 0 0 0 13.283 3.111 29.804 29.804 0 0 0 14.811-3.927l37.179 37.179a29.819 29.819 0 0 0-2.986 13.04c0 16.542 13.458 30 30 30s30-13.458 30-30c0-4.558-1.026-8.88-2.853-12.752l57.075-57.075a29.81 29.81 0 0 0 14.113 3.536c16.542 0 30-13.458 30-30s-13.458-30-30-30zM183.904 451.938c-5.514 0-10-4.486-10-10s4.486-10 10-10a9.955 9.955 0 0 1 6.918 2.797c.04.042.075.087.116.128.048.048.1.088.149.134a9.96 9.96 0 0 1 2.817 6.941c0 5.513-4.486 10-10 10zm76.828-76.334c-5.514 0-10-4.486-10-10s4.486-10 10-10 10 4.486 10 10-4.486 10-10 10zm79.004 76.292c-5.514 0-10-4.486-10-10s4.486-10 10-10 10 4.486 10 10-4.486 10-10 10zm98.335-96.292c-5.514 0-10-4.486-10-10s4.487-10 10-10c5.514 0 10 4.486 10 10s-4.486 10-10 10zM388.09 235h-52.779c-5.522 0-10 4.478-10 10s4.477 10 10 10h52.779c5.522 0 10-4.478 10-10s-4.478-10-10-10zM440.689 237.93c-1.859-1.86-4.439-2.93-7.069-2.93s-5.21 1.069-7.07 2.93c-1.86 1.86-2.93 4.44-2.93 7.07s1.069 5.21 2.93 7.069a10.059 10.059 0 0 0 7.07 2.931c2.63 0 5.21-1.07 7.069-2.931 1.86-1.859 2.931-4.439 2.931-7.069s-1.07-5.21-2.931-7.07zM457.465 139H335.311c-5.522 0-10 4.478-10 10s4.477 10 10 10h122.154c5.522 0 10-4.478 10-10s-4.478-10-10-10zM457.465 187H335.311c-5.522 0-10 4.478-10 10s4.477 10 10 10h122.154c5.522 0 10-4.478 10-10s-4.478-10-10-10z"/></symbol><symbol fill="currentColor" viewBox="-40 0 512 512" id="textbook" xmlns="http://www.w3.org/2000/svg"><path d="M423.719 60.688c4.203 0 7.61-3.41 7.61-7.614V22.836C431.328 10.242 421.085 0 408.491 0H79.715C35.902 0 .145 35.164 0 78.414V433.125c-.059 21.086 8.121 40.914 23.04 55.84C37.901 503.82 57.651 512 78.655 512h329.836c12.594 0 22.836-10.242 22.836-22.836V83.524a7.612 7.612 0 1 0-15.223 0V356a22.654 22.654 0 0 0-7.613-1.309H184.684a7.613 7.613 0 0 0 0 15.223h223.808c4.2 0 7.613 3.414 7.613 7.61 0 4.199-3.414 7.613-7.613 7.613H78.656c-13.074 0-25.32 5.16-34.476 14.535-9.153 9.371-14.024 21.734-13.72 34.82.606 25.95 22.567 47.063 48.954 47.063h329.078c4.2 0 7.613 3.414 7.613 7.61 0 4.198-3.414 7.612-7.613 7.612H78.656c-16.937 0-32.867-6.597-44.855-18.574-12.035-12.047-18.633-28.055-18.578-45.074.117-34.856 29.047-63.215 64.492-63.215h74.515c4.208 0 7.614-3.41 7.614-7.613s-3.406-7.61-7.614-7.61H79.715c-26.469 0-49.98 12.844-64.492 32.532V78.44c.117-34.859 29.047-63.218 64.492-63.218h328.777c4.2 0 7.613 3.414 7.613 7.613v30.238a7.615 7.615 0 0 0 7.614 7.613zM45.679 434.137c-.206-8.953 3.126-17.414 9.391-23.824 6.266-6.418 14.645-9.954 23.586-9.954h308.586a77.955 77.955 0 0 0-4.61 12.688H89.82a7.612 7.612 0 1 0 0 15.223h290.325a78.551 78.551 0 0 0 0 10.148H89.82c-4.203 0-7.613 3.41-7.613 7.613s3.41 7.614 7.613 7.614h292.813a77.913 77.913 0 0 0 4.61 12.683H79.413c-18.184 0-33.32-14.441-33.734-32.191zm362.813 32.191h-4c-12.398-20.168-12.398-45.797 0-65.969h4c2.672 0 5.23-.464 7.613-1.308v68.586a22.751 22.751 0 0 0-7.613-1.309zm0 0"/><path d="M132.14 83.523c-16.456 0-29.843 13.387-29.843 29.844v59.051c0 16.453 13.387 29.844 29.844 29.844h220.41c16.457 0 29.847-13.39 29.847-29.844v-59.05c0-16.458-13.39-29.845-29.847-29.845zm235.032 29.844v59.051c0 8.059-6.559 14.621-14.621 14.621H132.14c-8.063 0-14.621-6.562-14.621-14.621v-59.05c0-8.063 6.558-14.622 14.62-14.622h220.41c8.063 0 14.622 6.559 14.622 14.621zm0 0"/><path d="M335.207 151.531H149.488a7.615 7.615 0 0 0 0 15.227h185.719c4.203 0 7.61-3.41 7.61-7.613s-3.407-7.614-7.61-7.614zm0 0M335.207 119.027H149.488a7.611 7.611 0 1 0 0 15.223h185.719c4.203 0 7.61-3.406 7.61-7.61s-3.407-7.613-7.61-7.613zm0 0"/></symbol><symbol fill="currentColor" viewBox="0 0 511.999 511.999" id="uncategorized" xmlns="http://www.w3.org/2000/svg"><path d="M511.939 330.321a38.355 38.355 0 0 0-15.485-28.749c-14.891-11.05-35.555-9.898-49.128 2.742l-82.559 76.887c.503-16.916-10.616-31.846-27.269-36.071L236.67 319.539a96.368 96.368 0 0 0-53.548 1.751l-69.703 22.63v-20.057c0-5.522-4.478-9.999-9.999-9.999H9.999c-5.522 0-9.999 4.478-9.999 9.999V501.98c0 5.522 4.478 9.999 9.999 9.999h93.422c5.522 0 9.999-4.478 9.999-9.999V364.947l75.878-24.635a76.416 76.416 0 0 1 42.453-1.39l100.829 25.591c7.831 1.988 12.933 9.266 12.13 17.308a16.144 16.144 0 0 1-16.114 14.585h-70.282c-5.522 0-9.999 4.478-9.999 9.999 0 5.522 4.478 9.999 9.999 9.999h21.542c.376.043.757.07 1.145.07h49.589c16.54 0 32.315-6.209 44.421-17.481l85.947-80.044c6.515-6.068 16.434-6.62 23.584-1.316a18.407 18.407 0 0 1 7.432 13.8 18.41 18.41 0 0 1-5.854 14.541l-118.4 110.22a43.85 43.85 0 0 1-29.968 11.789H182.796c-5.522 0-9.999 4.478-9.999 9.999 0 5.522 4.478 9.999 9.999 9.999h154.958c16.23 0 31.712-6.091 43.594-17.15l118.397-110.22a38.353 38.353 0 0 0 12.194-30.29zM93.422 491.981H19.998V333.863h73.423v158.118z"/><path d="M149.518 470.913a10.089 10.089 0 0 0-7.069-2.93c-2.641 0-5.21 1.069-7.079 2.93-1.86 1.86-2.93 4.44-2.93 7.069s1.069 5.21 2.93 7.068a10.098 10.098 0 0 0 7.079 2.931c2.63 0 5.2-1.07 7.069-2.931 1.859-1.859 2.93-4.439 2.93-7.068s-1.07-5.209-2.93-7.069zM63.776 460.584a10.038 10.038 0 0 0-7.06-2.93c-2.64 0-5.22 1.06-7.079 2.93a10.054 10.054 0 0 0-2.92 7.069c0 2.63 1.061 5.21 2.92 7.069a10.103 10.103 0 0 0 7.079 2.93c2.63 0 5.2-1.07 7.06-2.93a10.045 10.045 0 0 0 2.939-7.069c0-2.64-1.07-5.209-2.939-7.069zM255.98.02c-49.622 0-89.993 40.371-89.993 89.993 0 16.541 13.457 29.998 29.998 29.998s29.998-13.457 29.998-29.998 13.457-29.998 29.998-29.998 29.998 13.457 29.998 29.998-13.457 29.998-29.998 29.998-29.998 13.457-29.998 29.998v42.997c0 16.541 13.457 29.998 29.998 29.998s29.998-13.457 29.998-29.998V174.87c35.69-12.598 59.995-46.446 59.995-84.857C345.973 40.39 305.602.02 255.98.02zm17.498 157.774a9.998 9.998 0 0 0-7.498 9.681v25.529c0 5.514-4.486 9.999-9.999 9.999-5.514 0-9.999-4.486-9.999-9.999v-42.997c0-5.514 4.486-9.999 9.999-9.999 27.568 0 49.996-22.428 49.996-49.996s-22.428-49.996-49.996-49.996-49.996 22.428-49.996 49.996c0 5.514-4.486 9.999-9.999 9.999-5.514 0-9.999-4.486-9.999-9.999 0-38.595 31.399-69.995 69.995-69.995 38.596 0 69.995 31.4 69.995 69.995-.002 31.925-21.59 59.798-52.499 67.782zM277.199 254.926c-5.576-5.592-13.31-8.798-21.219-8.798-7.908 0-15.643 3.207-21.2 8.779-5.591 5.576-8.797 13.31-8.797 21.218s3.207 15.643 8.787 21.209c5.586 5.586 13.316 8.788 21.21 8.788 7.895 0 15.626-3.204 21.209-8.788 5.586-5.586 8.788-13.316 8.788-21.209.001-7.893-3.202-15.624-8.778-21.199zm-14.153 28.268c-1.834 1.835-4.477 2.931-7.066 2.931-2.59 0-5.234-1.096-7.078-2.94-1.829-1.824-2.921-4.464-2.921-7.059 0-2.635 1.064-5.208 2.939-7.077 1.825-1.829 4.465-2.922 7.06-2.922 2.596 0 5.234 1.092 7.067 2.932 1.836 1.834 2.932 4.477 2.932 7.067s-1.096 5.232-2.933 7.068zM56.711 354.49c-5.522 0-9.999 4.478-9.999 9.999v63.497c0 5.522 4.477 9.999 9.999 9.999s9.999-4.478 9.999-9.999v-63.497c0-5.521-4.478-9.999-9.999-9.999z"/></symbol><symbol fill="currentColor" viewBox="0 -27 512 511" id="web-browsers" xmlns="http://www.w3.org/2000/svg"><path d="M310.004 168.5c-48.524 0-88 39.477-88 88s39.476 88 88 88c48.523 0 88-39.477 88-88s-39.477-88-88-88zm0 156c-37.496 0-68-30.504-68-68s30.504-68 68-68 68 30.504 68 68-30.504 68-68 68zm0 0"/><path d="M310.004 211.504c-5.524 0-10 4.476-10 10 0 5.523 4.476 10 10 10 13.781 0 24.996 11.215 24.996 24.996 0 5.523 4.477 10 10 10s10-4.477 10-10c0-24.813-20.184-44.996-44.996-44.996zm0 0M61.645 75.902c-2.54-4.902-8.57-6.82-13.477-4.285-4.906 2.54-6.824 8.574-4.285 13.48l26.918 52c1.742 3.368 5.265 5.426 9.031 5.403a10.004 10.004 0 0 0 8.863-5.672l16.297-33.93 17.7 34.2a10.009 10.009 0 0 0 8.882 5.402h.149a10.01 10.01 0 0 0 8.867-5.672l24.972-52c2.391-4.976.293-10.953-4.683-13.344-4.98-2.39-10.953-.293-13.344 4.688l-16.297 33.93-17.703-34.2c-1.742-3.367-5.258-5.433-9.027-5.402a10.005 10.005 0 0 0-8.867 5.672l-16.293 33.93zm0 0M125.988 20.5c2.633 0 5.211-1.07 7.07-2.93 1.864-1.86 2.93-4.441 2.93-7.07s-1.066-5.21-2.93-7.07a10.073 10.073 0 0 0-7.07-2.93 10.07 10.07 0 0 0-7.066 2.93c-1.863 1.86-2.934 4.441-2.934 7.07s1.07 5.21 2.934 7.07a10.07 10.07 0 0 0 7.066 2.93zm0 0"/><path d="M512 172.5v-132c0-22.055-17.945-40-40-40H167.988c-5.52 0-10 4.477-10 10s4.48 10 10 10H472c11.027 0 20 8.973 20 20v132c0 11.027-8.973 20-20 20h-48c-.29 0-.57.02-.852.043-15.433-27.195-40.382-48.305-70.293-58.777l14.825-30.864 17.703 34.196a9.991 9.991 0 0 0 8.879 5.402h.152a10.004 10.004 0 0 0 8.863-5.672l24.973-52c2.39-4.976.293-10.95-4.684-13.34-4.976-2.394-10.953-.297-13.343 4.684l-16.293 33.93-17.703-34.2c-1.743-3.367-5.254-5.433-9.032-5.398a9.988 9.988 0 0 0-8.863 5.668l-16.297 33.93-17.7-34.2c-2.538-4.902-8.573-6.82-13.48-4.28-4.906 2.538-6.82 8.57-4.285 13.476l22.133 42.754a130.581 130.581 0 0 0-18.695-1.352 129.72 129.72 0 0 0-35.477 4.922l22.38-46.594c2.39-4.976.292-10.95-4.688-13.34-4.977-2.394-10.953-.297-13.34 4.684l-16.297 33.93-17.703-34.2c-1.742-3.367-5.238-5.433-9.031-5.398a9.993 9.993 0 0 0-8.864 5.668l-16.293 33.93-17.703-34.2c-2.539-4.902-8.57-6.82-13.476-4.28a9.997 9.997 0 0 0-4.286 13.476l26.918 52c1.743 3.367 5.25 5.425 9.032 5.402a10.004 10.004 0 0 0 8.863-5.672l16.297-33.926 17.7 34.196c.296.574.66 1.093 1.054 1.59-24.524 11.476-44.899 30.382-58.207 53.812H40c-11.027 0-20-8.973-20-20v-132c0-11.027 8.973-20 20-20h40.992c5.524 0 10-4.477 10-10s-4.476-10-10-10H40C17.945.5 0 18.445 0 40.5v132c0 22.059 17.945 40 40 40h147.676c-4.961 13.75-7.672 28.563-7.672 44 0 71.684 58.316 130 130 130 23.555 0 45.668-6.297 64.742-17.297l79.367 79.367c6.61 6.61 15.293 9.914 23.977 9.914s17.367-3.304 23.976-9.914c13.223-13.222 13.223-34.734 0-47.957l-31.183-31.183c-3.906-3.903-10.238-3.907-14.14 0a9.996 9.996 0 0 0 0 14.14l31.183 31.188c5.422 5.422 5.422 14.246 0 19.672-5.422 5.422-14.246 5.422-19.668 0l-76.738-76.742c29.546-23.848 48.484-60.344 48.484-101.188 0-15.437-2.711-30.25-7.672-44H472c22.059 0 40-17.945 40-40zm-201.996 194c-60.652 0-110-49.348-110-110s49.348-110 110-110 110 49.348 110 110-49.344 110-110 110zm0 0"/><path d="M433.02 345.71a10.073 10.073 0 0 0-2.93 7.071c0 2.63 1.07 5.207 2.93 7.07 1.87 1.86 4.44 2.93 7.07 2.93s5.21-1.07 7.07-2.93a10.037 10.037 0 0 0 2.93-7.07c0-2.633-1.059-5.21-2.93-7.07a10.059 10.059 0 0 0-7.07-2.93 10.08 10.08 0 0 0-7.07 2.93zm0 0"/></symbol><symbol fill="currentColor" viewBox="0 -74 512.001 512" id="youtube" xmlns="http://www.w3.org/2000/svg"><path d="M329.848 343.492c-23.493.797-48.336 1.2-73.848 1.2-73.746 0-138.996-3.31-174.55-8.852-37.99-5.922-53.083-23.621-57.688-67.63-5.035-48.148-5.035-123.581 0-171.73 4.605-44.007 19.699-61.703 57.687-67.625 6.168-.964 13.414-1.878 21.543-2.722 5.496-.57 9.488-5.485 8.918-10.98-.57-5.493-5.492-9.489-10.98-8.915-8.47.88-16.059 1.84-22.563 2.852-23.695 3.695-40.305 11.652-52.265 25.039C13.793 47.895 6.73 67.047 3.867 94.402c-5.156 49.317-5.156 126.575 0 175.891 2.863 27.355 9.926 46.504 22.235 60.273 11.96 13.387 28.57 21.344 52.265 25.036 36.512 5.695 102.918 9.093 177.633 9.093 25.734 0 50.809-.406 74.523-1.21 5.52-.188 9.844-4.813 9.657-10.333a9.991 9.991 0 0 0-10.332-9.66zm0 0M508.133 94.402c-2.863-27.351-9.926-46.504-22.23-60.273-11.965-13.387-28.575-21.344-52.27-25.035C397.117 3.398 330.71 0 256 0c-25.734 0-50.805.41-74.52 1.21-5.523.188-9.847 4.813-9.66 10.333.188 5.523 4.793 9.855 10.336 9.66 23.489-.797 48.336-1.2 73.848-1.2 73.738 0 138.992 3.31 174.55 8.852 37.985 5.926 53.083 23.622 57.684 67.63 5.04 48.148 5.04 123.581 0 171.73-4.601 44.008-19.699 61.703-57.683 67.629-6.168.96-13.418 1.875-21.547 2.719-5.492.57-9.485 5.484-8.914 10.98a10 10 0 0 0 10.98 8.914c8.465-.879 16.055-1.836 22.559-2.852 23.695-3.695 40.305-11.648 52.27-25.035 12.304-13.77 19.367-32.922 22.23-60.273 5.156-49.317 5.156-126.578 0-175.895zm0 0"/><path d="M338.422 173.84L214.648 97.367a10.005 10.005 0 0 0-10.128-.226 10.007 10.007 0 0 0-5.13 8.734v152.941c0 3.625 1.965 6.97 5.13 8.735a10.007 10.007 0 0 0 10.129-.227l123.773-76.469a9.997 9.997 0 0 0 0-17.016zm-119.027 67.043v-117.07l94.742 58.535zm0 0M141.844 23.035c.222 0 .449-.008.676-.02 5.511-.367 9.68-5.132 9.312-10.644-.367-5.512-5.14-9.687-10.644-9.316h-.008c-5.512.367-9.676 5.132-9.309 10.644.352 5.285 4.75 9.336 9.973 9.336zm0 0M369.484 341.684c-5.511.363-9.683 5.129-9.316 10.64.352 5.285 4.75 9.336 9.969 9.336.226 0 .449-.008.675-.02h.008c5.512-.367 9.676-5.132 9.309-10.644-.367-5.512-5.125-9.676-10.645-9.312zm0 0"/></symbol></svg>